<?xml version="1.0" encoding="UTF-8"?>
<svg version="1.1" xmlns="http://www.w3.org/2000/svg" width="1024" height="1024">
<path d="M0 0 C18.93769457 -0.51593078 38.04569688 5.65023978 52.0625 18.55859375 C53.96893403 20.38472461 55.82847951 22.24562175 57.6875 24.12109375 C58.35523438 24.7553125 59.02296875 25.38953125 59.7109375 26.04296875 C72.88426035 39.51433058 77.34542604 59.37671916 77.15625 77.56274414 C76.44433521 100.04553224 66.60821255 117.67641579 50.6875 133.12109375 C51.47640625 133.34925781 52.2653125 133.57742187 53.078125 133.8125 C57.75593786 135.50846029 62.04246605 137.73793226 66.4375 140.05859375 C67.36199951 140.54585937 68.28649902 141.033125 69.23901367 141.53515625 C98.23396395 156.98985956 125.84510392 176.39065636 148.6875 200.12109375 C149.5125 200.94609375 150.3375 201.77109375 151.1875 202.62109375 C152.0125 203.44609375 152.8375 204.27109375 153.6875 205.12109375 C154.31914063 205.71792969 154.95078125 206.31476563 155.6015625 206.9296875 C161.81534006 212.91291854 167.08649151 219.40410414 172.28027344 226.26513672 C173.65744959 228.08146099 175.05095639 229.88435079 176.4453125 231.6875 C197.93512375 259.83574894 213.18021801 294.09760854 218.6875 329.12109375 C218.85886475 330.19085449 218.85886475 330.19085449 219.03369141 331.28222656 C225.13716453 371.26675718 218.31105441 416.01815743 194.625 449.51171875 C193.985625 450.3728125 193.34625 451.23390625 192.6875 452.12109375 C192.11 452.9203125 191.5325 453.71953125 190.9375 454.54296875 C180.73246403 468.0030593 167.25436897 481.96260656 151.6875 489.12109375 C152.47060547 489.96027344 152.47060547 489.96027344 153.26953125 490.81640625 C173.96144559 513.35646004 187.40304733 536.8778609 191.15234375 567.69140625 C191.80502213 571.87426475 193.03429732 575.23966136 194.6875 579.12109375 C198.88538421 594.61876216 196.15078809 616.04228067 188.84375 630.32421875 C173.16317169 654.69268504 131.75018292 665.1508667 105.6875 671.12109375 C96.72411769 672.98697826 87.71532846 674.60080829 78.6875 676.12109375 C100.13868277 681.0232279 122.73393353 682.37490813 144.6875 683.12109375 C146.27062988 683.17861816 146.27062988 683.17861816 147.88574219 683.23730469 C162.60097259 683.76038673 177.31624689 684.11364663 192.0390625 684.3359375 C269.33749366 685.50669332 269.33749366 685.50669332 300.6875 691.12109375 C301.56954102 691.27884277 302.45158203 691.4365918 303.36035156 691.59912109 C323.21747949 695.40264004 342.33784591 705.42134128 358.6875 717.12109375 C359.68136719 717.82492187 360.67523437 718.52875 361.69921875 719.25390625 C369.72569169 725.10851004 377.26812041 731.52339651 384.6875 738.12109375 C385.44675781 738.79398438 386.20601562 739.466875 386.98828125 740.16015625 C392.28093365 745.12414287 395.82619477 750.32576395 396.125 757.74609375 C395.6582668 766.04828727 390.17676634 772.25075437 384.6875 778.12109375 C369.43055115 791.39302354 353.44636322 794.19119566 333.86914062 793.37695312 C323.98976315 792.58247894 314.3717479 789.73396133 305.0234375 786.55078125 C295.88106264 783.45547279 286.31233164 782.07820998 276.75 780.99609375 C276.08427979 780.92060303 275.41855957 780.8451123 274.73266602 780.76733398 C261.35264898 779.36928061 248.02768793 778.98013907 234.58984375 779.05517578 C232.94484605 779.06038672 231.29984667 779.0650912 229.65484619 779.06933594 C226.14328471 779.07918508 222.63175166 779.09199976 219.12020874 779.10705948 C213.53172886 779.13044196 207.94325217 779.14352257 202.35473633 779.15475464 C186.47277144 779.18791699 170.59086029 779.22930202 154.70898438 779.29248047 C145.91308847 779.32738422 137.11723278 779.35094401 128.32127476 779.3626889 C123.69260922 779.36935525 119.06411513 779.38137646 114.43551636 779.40771866 C81.74916317 779.58874453 48.50128576 779.04593878 16.95141602 769.54541016 C7.29555411 766.66489021 1.3175214 765.49204628 -8.3125 769.12109375 C-11.39536564 770.02285416 -14.50424791 770.79953182 -17.625 771.55859375 C-18.49527832 771.77136963 -19.36555664 771.98414551 -20.26220703 772.20336914 C-28.51996763 774.12016879 -36.84983742 775.30218902 -45.25 776.37109375 C-46.5285083 776.53407959 -47.8070166 776.69706543 -49.12426758 776.86499023 C-63.19508659 778.57531079 -77.1135208 779.26649869 -91.27832031 779.20288086 C-92.93275866 779.19931467 -94.58719811 779.19623147 -96.24163818 779.19358826 C-99.77834645 779.18708736 -103.31502845 779.17756046 -106.85172272 779.16569328 C-112.47200443 779.14719869 -118.09228025 779.13774701 -123.71258545 779.129776 C-139.68634779 779.10578116 -155.66007218 779.07002494 -171.63378906 779.02514648 C-180.47649298 779.00038238 -189.31918187 778.98315092 -198.16191554 778.9735871 C-202.82055931 778.9681845 -207.47912303 778.9590202 -212.13773346 778.9401989 C-245.62526053 778.80793898 -278.60587616 779.30641133 -310.76953125 789.75390625 C-329.90391423 795.72887835 -350.27127968 795.4091674 -368.1875 786.24609375 C-377.38301427 780.87761432 -386.84726058 772.51681201 -390.3125 762.12109375 C-391.1018102 755.56076146 -390.22955652 750.48280725 -386.3125 745.12109375 C-371.16488802 728.01649164 -351.49652955 714.5915896 -331.3125 704.12109375 C-330.63751465 703.7653125 -329.9625293 703.40953125 -329.26708984 703.04296875 C-286.08942847 680.53145132 -230.32125708 684.99820207 -183.09727478 684.27844238 C-127.50044538 685.46060882 -127.50044538 685.46060882 -73.3125 676.12109375 C-74.33512939 675.94888306 -74.33512939 675.94888306 -75.37841797 675.77319336 C-110.94602647 669.69886543 -158.54428204 661.23584711 -182.91796875 631.40625 C-185.80152781 626.6810902 -187.03946239 621.46273399 -188.3125 616.12109375 C-188.53808594 615.28191406 -188.76367188 614.44273437 -188.99609375 613.578125 C-192.00337252 600.53275711 -191.6127981 585.74523619 -187.3125 573.12109375 C-186.95039313 571.54409211 -186.6173919 569.96014897 -186.3125 568.37109375 C-186.15394531 567.55511719 -185.99539063 566.73914063 -185.83203125 565.8984375 C-185.44508057 563.82985153 -185.06924581 561.75918017 -184.69921875 559.6875 C-180.03504337 534.6468713 -169.47735555 514.98029033 -152.265625 496.32421875 C-149.96214142 493.72588927 -148.10731247 491.0864361 -146.3125 488.12109375 C-147.40498047 487.72083984 -147.40498047 487.72083984 -148.51953125 487.3125 C-157.29335046 483.56982187 -164.47045681 476.59808891 -171.3125 470.12109375 C-172.199375 469.31027344 -173.08625 468.49945312 -174 467.6640625 C-201.04493196 442.04052611 -214.50667447 403.19582303 -215.515625 366.51953125 C-215.79768662 344.83671795 -213.53043456 323.93033582 -207.3125 303.12109375 C-207.0757959 302.32848145 -206.8390918 301.53586914 -206.59521484 300.71923828 C-198.5324183 274.48720913 -185.34791118 249.61289264 -168.3125 228.12109375 C-167.66925781 227.28578125 -167.02601563 226.45046875 -166.36328125 225.58984375 C-161.83002918 219.77845367 -156.95193936 214.36304039 -151.92578125 208.98046875 C-150.11613688 207.00040944 -148.3934542 205.02890135 -146.69921875 202.95703125 C-144.8086634 200.71064305 -143.05327129 198.86000805 -140.8125 196.99609375 C-137.77833291 194.41959432 -134.86005525 191.75614571 -131.97729492 189.01123047 C-113.51158653 171.54998008 -71.57282254 133.12109375 -45.3125 133.12109375 C-46.04855469 132.39664063 -46.78460938 131.6721875 -47.54296875 130.92578125 C-63.34523688 114.92292016 -71.57800617 97.10114518 -71.8125 74.55859375 C-71.60711341 54.8270402 -65.05011563 36.67857203 -50.953125 22.6640625 C-49.64601563 21.40529297 -49.64601563 21.40529297 -48.3125 20.12109375 C-47.34570312 19.12529297 -47.34570312 19.12529297 -46.359375 18.109375 C-34.13736577 6.28590955 -16.60701411 0.86962405 0 0 Z " fill="#000000" transform="translate(509.3125,120.87890625)"/>
<path d="M0 0 C0.33 0 0.66 0 1 0 C1.10957031 0.65226563 1.21914063 1.30453125 1.33203125 1.9765625 C2.47225575 8.2617024 3.4483978 13.55978108 8.22964573 18.13231659 C13.48726542 21.46252497 20.08325284 20.54905075 26.07566833 20.50793457 C27.53191869 20.51254479 28.98816439 20.51889852 30.44440037 20.52684355 C34.44221233 20.54354387 38.43964242 20.53528744 42.43745577 20.52289867 C46.75043427 20.51385325 51.06334683 20.52781544 55.37631226 20.53881836 C63.82416158 20.55661406 72.27186884 20.55275879 80.71972375 20.5411678 C87.58547511 20.53213728 94.45118663 20.53090782 101.31694221 20.53526306 C102.78224499 20.53618246 102.78224499 20.53618246 104.27714984 20.53712043 C106.26160153 20.53839933 108.24605321 20.53969618 110.23050488 20.5410108 C128.84343111 20.55241983 147.45627857 20.53929813 166.06919188 20.51780933 C182.04071491 20.49994086 198.01212165 20.50303977 213.98364258 20.52148438 C232.52803766 20.54289021 251.07236366 20.55131821 269.61676937 20.53903532 C271.59426024 20.53776112 273.57175113 20.53650364 275.54924202 20.53526306 C276.52221803 20.53464596 277.49519405 20.53402886 278.49765418 20.53339306 C285.35482645 20.52993909 292.21195492 20.53576958 299.06912041 20.54518127 C307.42630472 20.55639956 315.78333875 20.55336491 324.14050584 20.5320583 C328.40468495 20.52154515 332.6686135 20.51743046 336.93279076 20.53065491 C340.83686865 20.54257944 344.74046386 20.53601558 348.644498 20.5147447 C350.05627289 20.51027882 351.4680886 20.51254468 352.87983721 20.52224785 C363.15396736 20.6238252 363.15396736 20.6238252 372 16 C373.59650656 13.97277334 373.59650656 13.97277334 374.375 11.6875 C374.82746094 10.51960937 374.82746094 10.51960937 375.2890625 9.328125 C376.24554606 6.19590412 376.72242314 3.26152811 377 0 C382.62290448 5.87849104 382.38942812 15.27617053 382.375 22.9375 C382.37258301 24.29633301 382.37258301 24.29633301 382.37011719 25.68261719 C382.14213288 38.48997087 380.07711534 54.55007069 371.1875 64.4375 C342.94983983 90.39211531 301.40654241 98.8691417 265 105 C286.45118277 109.90213415 309.04643353 111.25381438 331 112 C332.05541992 112.03834961 333.11083984 112.07669922 334.19824219 112.11621094 C348.91347259 112.63929298 363.62874689 112.99255288 378.3515625 113.21484375 C455.64999366 114.38559957 455.64999366 114.38559957 487 120 C487.88204102 120.15774902 488.76408203 120.31549805 489.67285156 120.47802734 C509.52997949 124.28154629 528.65034591 134.30024753 545 146 C546.49080078 147.05574219 546.49080078 147.05574219 548.01171875 148.1328125 C556.03819169 153.98741629 563.58062041 160.40230276 571 167 C571.75925781 167.67289063 572.51851562 168.34578125 573.30078125 169.0390625 C578.59343365 174.00304912 582.13869477 179.2046702 582.4375 186.625 C581.9707668 194.92719352 576.48926634 201.12966062 571 207 C555.74305115 220.27192979 539.75886322 223.07010191 520.18164062 222.25585938 C510.30226315 221.46138519 500.6842479 218.61286758 491.3359375 215.4296875 C482.19356264 212.33437904 472.62483164 210.95711623 463.0625 209.875 C462.39677979 209.79950928 461.73105957 209.72401855 461.04516602 209.64624023 C447.66514898 208.24818686 434.34018793 207.85904532 420.90234375 207.93408203 C419.25734605 207.93929297 417.61234667 207.94399745 415.96734619 207.94824219 C412.45578471 207.95809133 408.94425166 207.97090601 405.43270874 207.98596573 C399.84422886 208.00934821 394.25575217 208.02242882 388.66723633 208.03366089 C372.78527144 208.06682324 356.90336029 208.10820827 341.02148438 208.17138672 C332.22558847 208.20629047 323.42973278 208.22985026 314.63377476 208.24159515 C310.00510922 208.2482615 305.37661513 208.26028271 300.74801636 208.28662491 C268.06166317 208.46765078 234.81378576 207.92484503 203.26391602 198.42431641 C193.60805411 195.54379646 187.6300214 194.37095253 178 198 C174.91713436 198.90176041 171.80825209 199.67843807 168.6875 200.4375 C167.81722168 200.65027588 166.94694336 200.86305176 166.05029297 201.08227539 C157.79253237 202.99907504 149.46266258 204.18109527 141.0625 205.25 C139.7839917 205.41298584 138.5054834 205.57597168 137.18823242 205.74389648 C123.11741341 207.45421704 109.1989792 208.14540494 95.03417969 208.08178711 C93.37974134 208.07822092 91.72530189 208.07513772 90.07086182 208.07249451 C86.53415355 208.06599361 82.99747155 208.05646671 79.46077728 208.04459953 C73.84049557 208.02610494 68.22021975 208.01665326 62.59991455 208.00868225 C46.62615221 207.98468741 30.65242782 207.94893119 14.67871094 207.90405273 C5.83600702 207.87928863 -3.00668187 207.86205717 -11.84941554 207.85249335 C-16.50805931 207.84709075 -21.16662303 207.83792645 -25.82523346 207.81910515 C-59.31276053 207.68684523 -92.29337616 208.18531758 -124.45703125 218.6328125 C-143.59141423 224.6077846 -163.95877968 224.28807365 -181.875 215.125 C-191.07051427 209.75652057 -200.53476058 201.39571826 -204 191 C-204.7893102 184.43966771 -203.91705652 179.3617135 -200 174 C-184.85238802 156.89539789 -165.18402955 143.47049585 -145 133 C-144.32501465 132.64421875 -143.6500293 132.2884375 -142.95458984 131.921875 C-99.77692847 109.41035757 -44.00875708 113.87710832 3.21522522 113.15734863 C58.81205462 114.33951507 58.81205462 114.33951507 113 105 C111.97737061 104.82778931 111.97737061 104.82778931 110.93408203 104.65209961 C75.36647353 98.57777168 27.76821796 90.11475336 3.39453125 60.28515625 C0.51097219 55.55999645 -0.72696239 50.34164024 -2 45 C-2.22558594 44.16082031 -2.45117188 43.32164062 -2.68359375 42.45703125 C-5.70518312 29.34958496 -6.10934774 12.21869547 0 0 Z " fill="#000000" transform="translate(323,692)"/>
<path d="M0 0 C1.444893 -0.00576629 2.88977867 -0.01371082 4.33464909 -0.02363622 C8.29188113 -0.04446355 12.24850845 -0.03421348 16.20574236 -0.01870513 C20.47850117 -0.00737855 24.751157 -0.0248608 29.02389526 -0.03860474 C37.38894713 -0.06082775 45.75377458 -0.05604014 54.11883521 -0.04154153 C60.91779403 -0.0302456 67.71669 -0.02871992 74.51565552 -0.03416061 C75.48363825 -0.03492678 76.45162098 -0.03569294 77.44893652 -0.03648233 C79.41542842 -0.03808097 81.3819203 -0.03970203 83.34841216 -0.04134528 C101.7844679 -0.05560004 120.2203993 -0.03921433 138.65643466 -0.01234345 C154.47243472 0.00999507 170.28825129 0.00611487 186.10424805 -0.01693726 C204.47471735 -0.04370007 222.8450777 -0.05422677 241.21556377 -0.03887594 C243.17478623 -0.03728321 245.13400871 -0.03571135 247.0932312 -0.03416061 C248.0571842 -0.03338924 249.02113719 -0.03261786 250.01430088 -0.03182311 C256.80441121 -0.02750756 263.59445238 -0.03478954 270.384552 -0.04655838 C278.66044436 -0.06058725 286.93609962 -0.05677529 295.21196485 -0.03015466 C299.43379975 -0.01702165 303.65523948 -0.01185511 307.87707138 -0.02840042 C311.74359754 -0.04332403 315.60936306 -0.03507292 319.47582042 -0.00851266 C320.8727458 -0.0029378 322.26973572 -0.00574596 323.66661942 -0.0178916 C331.63700972 -0.08186454 337.6513199 0.20291887 343.80444336 5.63491821 C347.01371825 9.04477278 348.61280808 12.46381376 349.36694336 17.07241821 C348.37658058 23.3447158 346.87664443 28.38732396 341.59568882 32.23341942 C335.62631322 35.83968297 329.25379717 35.32812109 322.48826599 35.26983643 C321.03028598 35.27560258 319.57231325 35.28354703 318.11435562 35.29347265 C314.12099009 35.31430154 310.12822373 35.3040492 306.13485634 35.28854156 C301.82326184 35.27721573 297.51176945 35.29469678 293.20019531 35.30844116 C284.75927868 35.33066441 276.31858445 35.32587663 267.87765913 35.31137796 C261.01766975 35.30008287 254.15774267 35.29855598 247.29774666 35.30399704 C246.32114912 35.3047632 245.34455158 35.30552937 244.33836018 35.30631875 C242.35439155 35.30791739 240.37042294 35.30953845 238.38645435 35.31118171 C219.78685503 35.32543634 201.18737896 35.30905057 182.58779985 35.28217988 C166.62878403 35.25983786 150.66995005 35.26372446 134.7109375 35.28677368 C116.17603898 35.31353067 97.64124845 35.32406677 79.10633332 35.30871236 C77.12999699 35.30711962 75.15366065 35.30554777 73.1773243 35.30399704 C71.71874524 35.30283997 71.71874524 35.30283997 70.23069994 35.30165953 C63.3785044 35.29734249 56.52637736 35.3046291 49.67419243 35.31639481 C41.32434468 35.33041705 32.97473195 35.32662552 24.62491112 35.29999109 C20.3647212 35.2868497 16.10492313 35.28170589 11.8447361 35.29823685 C7.9443399 35.31314285 4.04469857 35.30493831 0.1443708 35.27834909 C-1.26599569 35.27276682 -2.67642603 35.27559905 -4.08675141 35.28772803 C-12.05931771 35.35103033 -17.29412378 35.29231919 -23.19555664 29.63491821 C-26.5485553 24.87853415 -28.1388557 19.3995236 -27.19555664 13.63491821 C-22.02500117 1.22081959 -12.30807616 -0.10701642 0 0 Z " fill="#FCFCFC" transform="translate(351.195556640625,678.3650817871094)"/>
<path d="M0 0 C0.82511196 -0.00706559 1.65022392 -0.01413118 2.50033927 -0.02141088 C3.40149474 -0.0189958 4.30265022 -0.01658071 5.23111343 -0.01409245 C6.19260496 -0.01932912 7.15409649 -0.0245658 8.14472413 -0.02996117 C11.37508008 -0.04499465 14.60527809 -0.04566706 17.83566666 -0.04633427 C20.14837284 -0.05395354 22.46107648 -0.06238064 24.77377701 -0.07155704 C31.06313778 -0.09353295 37.35244992 -0.10230523 43.64184475 -0.10738349 C47.57037243 -0.11102369 51.49888731 -0.11726203 55.42741013 -0.12438488 C66.30834535 -0.14384389 77.18926753 -0.1603547 88.07022095 -0.16326141 C88.76642422 -0.16344898 89.4626275 -0.16363655 90.17992784 -0.16382981 C91.59125407 -0.16419605 93.00258031 -0.16455975 94.41390654 -0.16492092 C95.46475788 -0.16519514 95.46475788 -0.16519514 96.53683853 -0.16547489 C97.23826313 -0.16565544 97.93968772 -0.16583599 98.66236761 -0.16602201 C110.02494742 -0.16956276 121.38733761 -0.19657898 132.74985167 -0.23397278 C144.42079832 -0.27207363 156.09164182 -0.29097814 167.76265168 -0.29172093 C174.31341436 -0.29251443 180.86393247 -0.30128713 187.41463852 -0.32971859 C193.57724065 -0.35586655 199.73939491 -0.35812224 205.90202713 -0.34206295 C208.16271057 -0.34024583 210.42341957 -0.34696276 212.6840477 -0.36288166 C215.77318366 -0.38330675 218.86074744 -0.37281026 221.94986343 -0.35466862 C223.28821231 -0.37446857 223.28821231 -0.37446857 224.65359855 -0.39466852 C230.89341629 -0.31111198 234.9874852 1.32609394 239.84445572 5.26006222 C244.07913466 9.82048569 245.3184469 13.66296182 245.25851822 19.77568722 C244.36760302 25.12117841 241.01686092 29.53277347 236.83600044 32.85699368 C232.58937422 34.84870973 228.81578872 34.68148615 224.17895889 34.6544714 C223.19957316 34.6605625 222.22018743 34.6666536 221.21112335 34.67292929 C217.9261856 34.68959112 214.64163414 34.68477884 211.35666275 34.67998409 C209.00277681 34.68732257 206.64889447 34.69590814 204.29501724 34.70564938 C197.89832133 34.72789759 191.50175411 34.73079438 185.10502481 34.72890186 C180.43957176 34.72798072 175.77413696 34.73523544 171.10869028 34.74252942 C170.44278529 34.74356891 169.77688029 34.74460839 169.09079635 34.74567938 C168.08830121 34.74724467 168.08830121 34.74724467 167.06555365 34.74884158 C154.42763826 34.76774097 141.78978091 34.76669474 129.15185724 34.75987226 C117.59466359 34.75429743 106.03769166 34.77512005 94.48054983 34.80823272 C82.60955836 34.84198023 70.73867307 34.85713672 58.86763275 34.8525157 C52.20460792 34.85027201 45.54175868 34.85595857 38.87876129 34.88040829 C32.61271721 34.90264111 26.34713506 34.90082585 20.08108902 34.88048077 C17.7812896 34.87706461 15.48145929 34.8821857 13.18170166 34.89646435 C10.04190033 34.91461349 6.90367324 34.90193868 3.76391983 34.88152218 C2.39887918 34.90029895 2.39887918 34.90029895 1.00626194 34.91945505 C-5.01505835 34.83551793 -8.80898597 33.51093778 -13.15554428 29.26006222 C-16.63868571 24.93353242 -17.81726077 21.03342709 -17.54226303 15.46709347 C-16.68780048 10.59061526 -14.28606124 7.30579041 -10.65554428 3.94756222 C-7.04102054 1.5077587 -4.41109621 0.01210271 0 0 Z " fill="#FDFDFD" transform="translate(398.15554428100586,587.7399377822876)"/>
<path d="M0 0 C4.52049994 2.45774754 7.55699234 5.73898468 9.875 10.375 C9.96449417 11.82537107 9.9925844 13.27978629 9.98852539 14.73291016 C9.98841209 16.08408432 9.98841209 16.08408432 9.98829651 17.46255493 C9.98313522 18.43655243 9.97797394 19.41054993 9.97265625 20.4140625 C9.9712413 21.41005463 9.96982635 22.40604675 9.96836853 23.43222046 C9.96275936 26.62151053 9.9502053 29.81073106 9.9375 33 C9.93248618 35.15885315 9.92792307 37.31770741 9.92382812 39.4765625 C9.91278695 44.7760655 9.89603988 50.07552778 9.875 55.375 C11.81149414 55.33572388 11.81149414 55.33572388 13.78710938 55.2956543 C18.60268647 55.20476813 23.4181886 55.14761121 28.234375 55.1003418 C30.31393202 55.07528495 32.39340174 55.04122979 34.47265625 54.99780273 C37.47157394 54.93676155 40.46932178 54.90870158 43.46875 54.88671875 C44.38990601 54.86091232 45.31106201 54.8351059 46.26013184 54.80851746 C52.70487916 54.80575264 56.87597625 56.26737602 61.875 60.375 C66.16186051 64.99161901 67.29913414 68.79145493 67.21875 74.9609375 C66.45271477 80.34059403 63.46497655 84.01304951 59.43554688 87.46459961 C55.01486618 90.33900851 50.3323 89.87371139 45.2265625 89.765625 C44.21403412 89.75996521 43.20150574 89.75430542 42.15829468 89.74847412 C38.93837323 89.72616254 35.7195826 89.67597472 32.5 89.625 C30.31121404 89.60492831 28.12241056 89.58667871 25.93359375 89.5703125 C20.58034622 89.52631505 15.22775392 89.45945518 9.875 89.375 C9.88610306 89.92099854 9.89720612 90.46699707 9.90864563 91.02954102 C10.01972732 96.74006705 10.09486794 102.45028355 10.1496582 108.16162109 C10.17471889 110.28967771 10.20877691 112.41764897 10.25219727 114.54541016 C10.31322089 117.61382163 10.34129474 120.68108995 10.36328125 123.75 C10.38908768 124.69302979 10.4148941 125.63605957 10.44148254 126.60766602 C10.44416486 133.00229721 9.19136915 137.52667961 4.875 142.375 C0.2720844 145.7738323 -4.23933255 147.06491628 -9.95703125 146.75 C-14.41973085 145.97807358 -17.55945233 144.19508305 -20.51896667 140.75439453 C-24.39511979 135.08076139 -24.79823942 130.50882281 -24.61328125 123.75 C-24.60620651 122.76249756 -24.59913177 121.77499512 -24.59184265 120.75756836 C-24.56403956 117.6292477 -24.50132717 114.50277202 -24.4375 111.375 C-24.41239895 109.24351558 -24.38958896 107.11200288 -24.36914062 104.98046875 C-24.3142598 99.77802519 -24.23077713 94.57664445 -24.125 89.375 C-24.68352661 89.38832367 -25.24205322 89.40164734 -25.81750488 89.41537476 C-31.65772348 89.54864637 -37.49750672 89.63882851 -43.33886719 89.70458984 C-45.51547811 89.73466783 -47.69196878 89.77554171 -49.86816406 89.82763672 C-53.00616189 89.9008471 -56.1425507 89.93454688 -59.28125 89.9609375 C-60.72860535 90.00738907 -60.72860535 90.00738907 -62.2052002 90.05477905 C-68.35568053 90.05780759 -71.82104225 88.89972121 -76.56091309 84.94155884 C-80.18419129 81.31255432 -81.28216732 77.87677356 -81.5 72.875 C-81.28973972 67.85398457 -80.08818332 64.35210661 -76.47265625 60.7109375 C-72.34039274 57.0242246 -69.40575064 55.24525573 -63.74536133 55.26147461 C-62.86467484 55.26155014 -61.98398834 55.26162567 -61.07661438 55.26170349 C-60.12965195 55.26686478 -59.18268951 55.27202606 -58.20703125 55.27734375 C-57.23465012 55.2787587 -56.26226898 55.28017365 -55.26042175 55.28163147 C-52.15274996 55.28723183 -49.04515004 55.29978438 -45.9375 55.3125 C-43.83138125 55.31751495 -41.72526137 55.32207787 -39.61914062 55.32617188 C-34.45439936 55.33720138 -29.28971187 55.35446625 -24.125 55.375 C-24.13388245 54.82456024 -24.14276489 54.27412048 -24.1519165 53.70700073 C-24.24059291 47.96427828 -24.30081803 42.22175117 -24.34472656 36.47851562 C-24.36480888 34.33683366 -24.39208037 32.1952063 -24.42675781 30.05371094 C-24.47542398 26.97056585 -24.4980029 23.88814738 -24.515625 20.8046875 C-24.54659271 19.37465897 -24.54659271 19.37465897 -24.57818604 17.91574097 C-24.58048572 11.06153917 -23.3501981 7.69482494 -18.52734375 2.73046875 C-12.61011506 -1.98753493 -7.06322322 -3.21783893 0 0 Z " fill="#FDFDFD" transform="translate(519.125,350.625)"/>
</svg>
