<?xml version="1.0" encoding="UTF-8"?>
<svg version="1.1" xmlns="http://www.w3.org/2000/svg" width="1024" height="1024">
<path d="M0 0 C5.02294603 3.4156033 6.3820276 7.47713735 7.7578125 13.1953125 C7.98486328 16.74389648 7.98486328 16.74389648 7.953125 20.44140625 C7.94888016 21.42537132 7.94888016 21.42537132 7.94454956 22.42921448 C7.93347234 24.49727659 7.90839313 26.56488423 7.8828125 28.6328125 C7.87276652 30.04621765 7.86364352 31.45962967 7.85546875 32.87304688 C7.83357434 36.31394644 7.79913301 39.75458502 7.7578125 43.1953125 C8.58347214 43.18198883 8.58347214 43.18198883 9.42581177 43.168396 C15.16853422 43.07971959 20.91106133 43.01949447 26.65429688 42.97558594 C28.79597884 42.95550362 30.9376062 42.92823213 33.07910156 42.89355469 C36.16224665 42.84488852 39.24466512 42.8223096 42.328125 42.8046875 C43.28147736 42.78404236 44.23482971 42.76339722 45.21707153 42.74212646 C50.92737065 42.74021058 54.25322643 43.32869229 58.7578125 47.1953125 C63.58888027 52.67922726 64.10805993 56.00070649 64.0390625 63.2109375 C63.54681204 68.43426184 61.05197041 70.96926816 57.3828125 74.4453125 C51.52431857 78.35097512 46.00278064 78.47203881 39.203125 78.390625 C38.40318115 78.38861084 37.6032373 78.38659668 36.77905273 78.38452148 C33.81358033 78.37412026 30.84819017 78.34619799 27.8828125 78.3203125 C21.2415625 78.2790625 14.6003125 78.2378125 7.7578125 78.1953125 C7.7578125 97.3353125 7.7578125 116.4753125 7.7578125 136.1953125 C10.7278125 136.8553125 13.6978125 137.5153125 16.7578125 138.1953125 C19.33734522 139.30883749 21.69310604 140.40874799 24.1328125 141.7578125 C24.77565186 142.10859863 25.41849121 142.45938477 26.08081055 142.82080078 C32.22422371 146.28043596 37.55799726 150.43480577 42.7578125 155.1953125 C43.58667969 155.94296875 44.41554688 156.690625 45.26953125 157.4609375 C67.13686496 178.1954266 82.08081514 208.26232733 82.90625 238.4921875 C83.02665941 246.76642816 82.64593897 254.96428329 81.7578125 263.1953125 C82.87349609 262.53789063 82.87349609 262.53789063 84.01171875 261.8671875 C87.90635634 259.60489506 91.82384712 257.38838985 95.7578125 255.1953125 C96.5832959 254.73479492 97.4087793 254.27427734 98.25927734 253.79980469 C125.98179836 238.4823028 155.25265187 228.03697545 186.7578125 224.1953125 C187.5108667 224.1010498 188.2639209 224.00678711 189.03979492 223.90966797 C237.82860087 218.37370075 286.54826086 231.17384553 324.98828125 261.74609375 C355.74422245 286.73646594 380.57482866 320.79149129 384.7578125 361.1953125 C388.99849534 405.41666383 373.90372849 446.49917814 346 480.6015625 C343.30237958 483.84388568 340.5372596 487.02293761 337.7578125 490.1953125 C337.0771875 490.98808594 336.3965625 491.78085937 335.6953125 492.59765625 C324.74169928 505.11301511 312.87067275 516.96285013 299.7578125 527.1953125 C297.90090503 528.77543058 296.04689774 530.35896116 294.1953125 531.9453125 C283.21702035 541.08682475 271.45698017 549.19516012 259.5078125 557.0078125 C258.35829102 557.76155151 258.35829102 557.76155151 257.18554688 558.53051758 C256.42048828 559.02447021 255.65542969 559.51842285 254.8671875 560.02734375 C254.12520048 560.51359757 253.38321346 560.9998514 252.61874199 561.50084019 C249.7578125 563.1953125 249.7578125 563.1953125 246.25322151 564.72966671 C238.93436638 567.98339718 238.93436638 567.98339718 234.48183823 574.36117744 C234.02073602 578.3214031 234.00259275 582.15687538 234.14013672 586.12915039 C234.14077254 587.6362045 234.13517717 589.14327209 234.12385559 590.65028381 C234.11023204 594.72669716 234.18186837 598.79766964 234.26809454 602.87302327 C234.34264703 607.14574159 234.3343556 611.4182609 234.33401489 615.69151306 C234.34514887 623.78353792 234.42401866 631.87331172 234.53033078 639.96459144 C234.71806206 654.45272459 234.78179233 668.94181254 234.83381474 683.43098062 C234.85462776 688.512535 234.90214722 693.59294543 234.97260547 698.67404759 C235.01354902 701.83733081 235.03868251 705.00061686 235.06053734 708.16408348 C235.07433774 709.62705047 235.09514154 711.08997136 235.12359428 712.55272675 C235.38583789 726.2924386 235.38583789 726.2924386 230.7578125 732.1953125 C227.2270443 735.4950405 223.15141741 737.92429553 219.0078125 740.3828125 C218.35151855 740.77227051 217.69522461 741.16172852 217.01904297 741.56298828 C167.18442259 770.85599251 109.99505592 787.46151916 52.7578125 794.1953125 C50.87835937 794.41960937 50.87835937 794.41960937 48.9609375 794.6484375 C8.99576376 799.27276836 -32.32023865 799.2393519 -72.2421875 794.1953125 C-72.92164429 794.11045593 -73.60110107 794.02559937 -74.30114746 793.93817139 C-132.85529526 786.55418373 -190.22213888 769.81665141 -241.1171875 739.4453125 C-241.86033203 739.00985107 -242.60347656 738.57438965 -243.36914062 738.12573242 C-248.77455771 734.82970074 -253.16882113 731.41541161 -255.2421875 725.1953125 C-255.33388604 723.12789048 -255.36412587 721.05756734 -255.36244202 718.9881134 C-255.36450401 717.03825783 -255.36450401 717.03825783 -255.36660767 715.04901123 C-255.3630685 713.60534645 -255.35943369 712.1616819 -255.35571289 710.71801758 C-255.35543087 709.20035301 -255.35558905 707.6826883 -255.3561554 706.1650238 C-255.35644278 702.04135411 -255.35055546 697.9177134 -255.34358144 693.79405046 C-255.33733821 689.48588599 -255.33674333 685.1777209 -255.33555603 680.86955261 C-255.33244558 672.70980723 -255.32423603 664.55007522 -255.31420654 656.39033574 C-255.30303653 647.10144836 -255.29753271 637.81256035 -255.29251111 628.52366793 C-255.2820532 609.41420854 -255.26445928 590.30476159 -255.2421875 571.1953125 C-256.02761932 570.88656693 -256.81305115 570.57782135 -257.62228394 570.25971985 C-259.90900156 569.33067839 -261.89529782 568.32550332 -264 567.05078125 C-264.69810791 566.62812988 -265.39621582 566.20547852 -266.11547852 565.77001953 C-266.85854248 565.31224121 -267.60160645 564.85446289 -268.3671875 564.3828125 C-269.15343506 563.89925293 -269.93968262 563.41569336 -270.74975586 562.91748047 C-305.51474907 541.3292357 -341.65176227 514.25523839 -366.2421875 481.1953125 C-367.12607455 480.04019045 -368.01020662 478.88525585 -368.89453125 477.73046875 C-395.01945338 443.23691433 -410.81978917 402.31948796 -404.89013672 358.59960938 C-401.18046529 334.81804626 -392.10353788 313.12993815 -377.2421875 294.1953125 C-376.82098633 293.65841797 -376.39978516 293.12152344 -375.96582031 292.56835938 C-345.07466958 253.72433026 -303.00864181 230.32987507 -253.85986328 223.8828125 C-200.28062154 217.79549755 -147.21810835 234.75295638 -102.2421875 263.1953125 C-102.314375 262.52628906 -102.3865625 261.85726563 -102.4609375 261.16796875 C-105.66111034 228.05506926 -98.60497606 197.01611483 -77.37890625 170.68359375 C-76.67378906 169.86246094 -75.96867187 169.04132813 -75.2421875 168.1953125 C-74.52675781 167.34324219 -73.81132812 166.49117187 -73.07421875 165.61328125 C-61.31943775 152.06927695 -48.33004017 141.95141071 -31.2421875 136.1953125 C-30.2521875 136.1953125 -29.2621875 136.1953125 -28.2421875 136.1953125 C-28.2421875 117.0553125 -28.2421875 97.9153125 -28.2421875 78.1953125 C-41.3751895 78.31366223 -41.3751895 78.31366223 -54.5078125 78.46557617 C-56.16926491 78.47434811 -57.83072384 78.48199037 -59.4921875 78.48828125 C-60.33652344 78.50362915 -61.18085938 78.51897705 -62.05078125 78.53479004 C-68.41710367 78.53756605 -74.27450486 77.72375559 -79.30078125 73.44140625 C-79.75582031 72.84457031 -80.21085937 72.24773437 -80.6796875 71.6328125 C-81.15277344 71.03339844 -81.62585938 70.43398437 -82.11328125 69.81640625 C-85.36977966 65.14011961 -84.7600384 59.69028593 -84.2421875 54.1953125 C-81.82283474 49.17739566 -78.2430144 45.69572595 -73.2421875 43.1953125 C-71.79181643 43.10581833 -70.33740121 43.0777281 -68.88427734 43.08178711 C-67.53310318 43.08190041 -67.53310318 43.08190041 -66.15463257 43.08201599 C-65.18063507 43.08717728 -64.20663757 43.09233856 -63.203125 43.09765625 C-62.20713287 43.0990712 -61.21114075 43.10048615 -60.18496704 43.10194397 C-56.99567697 43.10755314 -53.80645644 43.1201072 -50.6171875 43.1328125 C-48.45833435 43.13782632 -46.29948009 43.14238943 -44.140625 43.14648438 C-38.841122 43.15752555 -33.54165972 43.17427262 -28.2421875 43.1953125 C-28.25789795 42.33365479 -28.2736084 41.47199707 -28.28979492 40.58422852 C-28.34132529 37.34694698 -28.37873144 34.10987649 -28.40698242 30.87231445 C-28.42194688 29.47868922 -28.44232601 28.08511006 -28.46850586 26.69165039 C-28.80408324 8.35333332 -28.80408324 8.35333332 -23.89575195 2.62353516 C-16.6187279 -3.87824931 -8.37024715 -4.6939033 0 0 Z " fill="#FDFDFD" transform="translate(522.2421875,121.8046875)"/>
<path d="M0 0 C2.97777371 0.28877931 5.95924377 0.53095837 8.94067383 0.77868652 C22.76454391 2.01783875 36.31379033 4.42134639 49.92504883 7.06774902 C51.20143219 7.31517349 51.20143219 7.31517349 52.50360107 7.56759644 C71.36155399 11.25372416 89.79062942 15.81856322 107.98754883 22.00524902 C109.15178375 22.39734558 109.15178375 22.39734558 110.33953857 22.79736328 C122.39483995 26.85955965 134.29807957 31.16197115 145.98754883 36.19274902 C146.75647461 36.51694824 147.52540039 36.84114746 148.31762695 37.1751709 C156.26358074 40.53012916 164.12950171 44.05897105 171.73754883 48.13024902 C172.80489258 48.69614746 173.87223633 49.2620459 174.97192383 49.84509277 C179.62631771 53.46852635 183.28493196 57.1192057 184.3314209 63.18640709 C184.89894172 69.20822842 184.77717444 75.25296141 184.71411133 81.29431152 C184.71307266 83.26008096 184.71411372 85.22585248 184.71713257 87.19161987 C184.71695374 91.29875965 184.69621951 95.40510924 184.65991211 99.51208496 C184.61447817 104.76561296 184.61346636 110.0179912 184.6269474 115.27166176 C184.6336419 119.32616321 184.62034007 123.3804044 184.60068893 127.43485641 C184.5930148 129.37165336 184.59067608 131.30847932 184.59386063 133.24528885 C184.59460568 135.9544076 184.56926509 138.66207234 184.53686523 141.37097168 C184.54182007 142.16388107 184.5467749 142.95679047 184.55187988 143.77372742 C184.44608399 149.33974185 183.13983732 152.58696021 179.98754883 157.19274902 C176.45678063 160.49247702 172.38115374 162.92173205 168.23754883 165.38024902 C167.58125488 165.76970703 166.92496094 166.15916504 166.2487793 166.5604248 C116.41415892 195.85342903 59.22479224 212.45895568 1.98754883 219.19274902 C0.1080957 219.4170459 0.1080957 219.4170459 -1.80932617 219.64587402 C-41.77449991 224.27020488 -83.09050232 224.23678842 -123.01245117 219.19274902 C-124.03163635 219.06546417 -124.03163635 219.06546417 -125.07141113 218.93560791 C-183.62555893 211.55162025 -240.99240255 194.81408793 -291.88745117 164.44274902 C-293.00216797 163.78955688 -293.00216797 163.78955688 -294.1394043 163.12316895 C-299.54482139 159.82713726 -303.9390848 156.41284813 -306.01245117 150.19274902 C-306.12946031 147.3905274 -306.19055971 144.61225725 -306.20532227 141.8092041 C-306.21349976 140.95354858 -306.22167725 140.09789307 -306.23010254 139.21630859 C-306.25493481 136.38163957 -306.27146853 133.54702061 -306.28588867 130.71228027 C-306.29121235 129.74311865 -306.29653603 128.77395702 -306.30202103 127.77542686 C-306.32874535 122.64395311 -306.34812109 117.5125036 -306.36254883 112.38098145 C-306.37588002 108.13922523 -306.40371866 103.89795099 -306.44458008 99.65637207 C-306.49395824 94.53056171 -306.5186765 89.40518806 -306.52577591 84.27915001 C-306.53247905 82.3291618 -306.54767665 80.37918298 -306.57166672 78.42933083 C-306.60340247 75.69346371 -306.60334239 72.95927061 -306.59594727 70.2232666 C-306.6123526 69.42452621 -306.62875793 68.62578583 -306.6456604 67.80284119 C-306.58032635 61.86891174 -304.81811587 57.76116552 -301.01245117 53.19274902 C-298.51109434 51.12075688 -295.90047842 49.67614484 -293.01245117 48.19274902 C-291.93479492 47.62169434 -290.85713867 47.05063965 -289.74682617 46.46228027 C-266.49287503 34.36145876 -241.92166211 24.46464292 -216.54614258 17.86413574 C-213.68702923 17.10651754 -210.84036028 16.30950965 -207.99291992 15.50915527 C-140.57507152 -3.31782752 -69.4553031 -6.95041065 0 0 Z " fill="#010101" transform="translate(573.012451171875,696.8072509765625)"/>
<path d="M0 0 C5.02294603 3.4156033 6.3820276 7.47713735 7.7578125 13.1953125 C7.98486328 16.74389648 7.98486328 16.74389648 7.953125 20.44140625 C7.94888016 21.42537132 7.94888016 21.42537132 7.94454956 22.42921448 C7.93347234 24.49727659 7.90839313 26.56488423 7.8828125 28.6328125 C7.87276652 30.04621765 7.86364352 31.45962967 7.85546875 32.87304688 C7.83357434 36.31394644 7.79913301 39.75458502 7.7578125 43.1953125 C8.58347214 43.18198883 8.58347214 43.18198883 9.42581177 43.168396 C15.16853422 43.07971959 20.91106133 43.01949447 26.65429688 42.97558594 C28.79597884 42.95550362 30.9376062 42.92823213 33.07910156 42.89355469 C36.16224665 42.84488852 39.24466512 42.8223096 42.328125 42.8046875 C43.28147736 42.78404236 44.23482971 42.76339722 45.21707153 42.74212646 C50.92737065 42.74021058 54.25322643 43.32869229 58.7578125 47.1953125 C63.58888027 52.67922726 64.10805993 56.00070649 64.0390625 63.2109375 C63.54681204 68.43426184 61.05197041 70.96926816 57.3828125 74.4453125 C51.52431857 78.35097512 46.00278064 78.47203881 39.203125 78.390625 C38.40318115 78.38861084 37.6032373 78.38659668 36.77905273 78.38452148 C33.81358033 78.37412026 30.84819017 78.34619799 27.8828125 78.3203125 C21.2415625 78.2790625 14.6003125 78.2378125 7.7578125 78.1953125 C7.7578125 97.3353125 7.7578125 116.4753125 7.7578125 136.1953125 C10.7278125 136.8553125 13.6978125 137.5153125 16.7578125 138.1953125 C19.33734522 139.30883749 21.69310604 140.40874799 24.1328125 141.7578125 C24.77565186 142.10859863 25.41849121 142.45938477 26.08081055 142.82080078 C32.22422371 146.28043596 37.55799726 150.43480577 42.7578125 155.1953125 C43.58667969 155.94296875 44.41554688 156.690625 45.26953125 157.4609375 C67.13686496 178.1954266 82.08081514 208.26232733 82.90625 238.4921875 C83.02665941 246.76642816 82.64593897 254.96428329 81.7578125 263.1953125 C82.87349609 262.53789063 82.87349609 262.53789063 84.01171875 261.8671875 C87.90635634 259.60489506 91.82384712 257.38838985 95.7578125 255.1953125 C96.5832959 254.73479492 97.4087793 254.27427734 98.25927734 253.79980469 C125.98179836 238.4823028 155.25265187 228.03697545 186.7578125 224.1953125 C187.5108667 224.1010498 188.2639209 224.00678711 189.03979492 223.90966797 C237.82860087 218.37370075 286.54826086 231.17384553 324.98828125 261.74609375 C355.74422245 286.73646594 380.57482866 320.79149129 384.7578125 361.1953125 C388.99849534 405.41666383 373.90372849 446.49917814 346 480.6015625 C343.30237958 483.84388568 340.5372596 487.02293761 337.7578125 490.1953125 C337.0771875 490.98808594 336.3965625 491.78085937 335.6953125 492.59765625 C324.74169928 505.11301511 312.87067275 516.96285013 299.7578125 527.1953125 C297.90090503 528.77543058 296.04689774 530.35896116 294.1953125 531.9453125 C283.21702035 541.08682475 271.45698017 549.19516012 259.5078125 557.0078125 C258.35829102 557.76155151 258.35829102 557.76155151 257.18554688 558.53051758 C256.42048828 559.02447021 255.65542969 559.51842285 254.8671875 560.02734375 C253.75426834 560.75685242 253.75426834 560.75685242 252.61886597 561.50109863 C249.7578125 563.1953125 249.7578125 563.1953125 246.25210571 564.7273407 C238.85992201 567.99198396 238.85992201 567.99198396 234.48754883 574.42121887 C234.04127562 578.38456186 234.02265543 582.22179623 234.171875 586.1953125 C234.17555489 587.64119199 234.17304374 589.08709922 234.16464233 590.53295898 C234.1591158 594.31657804 234.23695736 598.09393629 234.33294678 601.87615967 C234.41611207 605.74400738 234.41941732 609.61186222 234.4296875 613.48046875 C234.46144459 621.05430799 234.58137889 628.62331422 234.7578125 636.1953125 C234.14558838 635.42356689 233.53336426 634.65182129 232.90258789 633.85668945 C228.76496036 628.7224518 224.77323219 625.32135905 218.8203125 622.5078125 C218.12558838 622.17241455 217.43086426 621.8370166 216.71508789 621.49145508 C215.19721856 620.76366855 213.67650125 620.04179866 212.15332031 619.32519531 C210.55227335 618.57003374 208.95524372 617.8062973 207.36230469 617.03417969 C185.32420505 606.35249243 161.97162382 598.06771238 138.28466797 591.86035156 C135.68788922 591.1769095 133.10036839 590.46355327 130.51171875 589.75 C103.34540967 582.4426371 75.19300382 577.72288088 47.16357422 575.47167969 C43.8286786 575.20106307 40.49914019 574.89086936 37.16796875 574.578125 C-0.37812956 571.32168569 -38.81160901 571.82280991 -76.2421875 576.1953125 C-76.9924823 576.28252563 -77.7427771 576.36973877 -78.51580811 576.45959473 C-125.49838155 581.98432958 -171.57916564 592.7628277 -215.2421875 611.1953125 C-216.40572754 611.68233643 -216.40572754 611.68233643 -217.59277344 612.17919922 C-239.26753435 620.22243583 -239.26753435 620.22243583 -254.2421875 636.1953125 C-254.5721875 636.1953125 -254.9021875 636.1953125 -255.2421875 636.1953125 C-255.2421875 614.7453125 -255.2421875 593.2953125 -255.2421875 571.1953125 C-256.8921875 570.5353125 -258.5421875 569.8753125 -260.2421875 569.1953125 C-261.51271657 568.51283564 -262.7663885 567.79792344 -264 567.05078125 C-264.69810791 566.62812988 -265.39621582 566.20547852 -266.11547852 565.77001953 C-266.85854248 565.31224121 -267.60160645 564.85446289 -268.3671875 564.3828125 C-269.15343506 563.89925293 -269.93968262 563.41569336 -270.74975586 562.91748047 C-305.51474907 541.3292357 -341.65176227 514.25523839 -366.2421875 481.1953125 C-367.12607455 480.04019045 -368.01020662 478.88525585 -368.89453125 477.73046875 C-395.01945338 443.23691433 -410.81978917 402.31948796 -404.89013672 358.59960938 C-401.18046529 334.81804626 -392.10353788 313.12993815 -377.2421875 294.1953125 C-376.82098633 293.65841797 -376.39978516 293.12152344 -375.96582031 292.56835938 C-345.07466958 253.72433026 -303.00864181 230.32987507 -253.85986328 223.8828125 C-200.28062154 217.79549755 -147.21810835 234.75295638 -102.2421875 263.1953125 C-102.314375 262.52628906 -102.3865625 261.85726563 -102.4609375 261.16796875 C-105.66111034 228.05506926 -98.60497606 197.01611483 -77.37890625 170.68359375 C-76.67378906 169.86246094 -75.96867187 169.04132813 -75.2421875 168.1953125 C-74.52675781 167.34324219 -73.81132812 166.49117187 -73.07421875 165.61328125 C-61.31943775 152.06927695 -48.33004017 141.95141071 -31.2421875 136.1953125 C-30.2521875 136.1953125 -29.2621875 136.1953125 -28.2421875 136.1953125 C-28.2421875 117.0553125 -28.2421875 97.9153125 -28.2421875 78.1953125 C-41.3751895 78.31366223 -41.3751895 78.31366223 -54.5078125 78.46557617 C-56.16926491 78.47434811 -57.83072384 78.48199037 -59.4921875 78.48828125 C-60.33652344 78.50362915 -61.18085938 78.51897705 -62.05078125 78.53479004 C-68.41710367 78.53756605 -74.27450486 77.72375559 -79.30078125 73.44140625 C-79.75582031 72.84457031 -80.21085937 72.24773437 -80.6796875 71.6328125 C-81.15277344 71.03339844 -81.62585938 70.43398437 -82.11328125 69.81640625 C-85.36977966 65.14011961 -84.7600384 59.69028593 -84.2421875 54.1953125 C-81.82283474 49.17739566 -78.2430144 45.69572595 -73.2421875 43.1953125 C-71.79181643 43.10581833 -70.33740121 43.0777281 -68.88427734 43.08178711 C-67.53310318 43.08190041 -67.53310318 43.08190041 -66.15463257 43.08201599 C-65.18063507 43.08717728 -64.20663757 43.09233856 -63.203125 43.09765625 C-62.20713287 43.0990712 -61.21114075 43.10048615 -60.18496704 43.10194397 C-56.99567697 43.10755314 -53.80645644 43.1201072 -50.6171875 43.1328125 C-48.45833435 43.13782632 -46.29948009 43.14238943 -44.140625 43.14648438 C-38.841122 43.15752555 -33.54165972 43.17427262 -28.2421875 43.1953125 C-28.25789795 42.33365479 -28.2736084 41.47199707 -28.28979492 40.58422852 C-28.34132529 37.34694698 -28.37873144 34.10987649 -28.40698242 30.87231445 C-28.42194688 29.47868922 -28.44232601 28.08511006 -28.46850586 26.69165039 C-28.80408324 8.35333332 -28.80408324 8.35333332 -23.89575195 2.62353516 C-16.6187279 -3.87824931 -8.37024715 -4.6939033 0 0 Z M-289.2421875 254.1953125 C-290.82580078 254.62457031 -290.82580078 254.62457031 -292.44140625 255.0625 C-312.84878063 260.8492837 -331.38033865 271.15827812 -347.2421875 285.1953125 C-347.97646973 285.83919922 -347.97646973 285.83919922 -348.72558594 286.49609375 C-373.27926751 308.10707031 -388.50212863 332.93784792 -391.2421875 366.1953125 C-391.80704896 377.66149572 -391.297903 388.88293588 -389.2421875 400.1953125 C-389.07275635 401.16404297 -389.07275635 401.16404297 -388.89990234 402.15234375 C-384.2051374 428.04582645 -370.59541257 451.91560159 -354.2421875 472.1953125 C-353.56712158 473.04391846 -353.56712158 473.04391846 -352.87841797 473.90966797 C-346.32064357 482.09301792 -339.06323863 489.5696214 -331.6796875 497.0078125 C-330.81738525 497.87946045 -329.95508301 498.7511084 -329.06665039 499.64916992 C-323.0999947 505.58644713 -316.83625428 510.96920663 -310.2421875 516.1953125 C-309.51088623 516.78594482 -308.77958496 517.37657715 -308.02612305 517.98510742 C-293.61042306 529.61243777 -278.38764044 539.97074421 -262.5546875 549.5703125 C-261.93698486 549.94583252 -261.31928223 550.32135254 -260.68286133 550.70825195 C-257.67053881 552.61066099 -257.67053881 552.61066099 -254.2421875 553.1953125 C-254.28859375 554.05253906 -254.335 554.90976562 -254.3828125 555.79296875 C-254.7292773 565.25857779 -254.7292773 565.25857779 -250.2421875 573.1953125 C-246.66274657 576.23123746 -243.5171857 577.9828128 -238.8671875 578.7578125 C-231.21993876 577.57117045 -224.64276707 573.92255762 -217.8046875 570.4453125 C-208.8086879 565.87740666 -199.61530695 561.92226074 -190.2421875 558.1953125 C-189.43136719 557.87062988 -188.62054688 557.54594727 -187.78515625 557.21142578 C-155.98259273 544.63438836 -122.06538428 537.30278202 -88.3046875 532.4453125 C-87.62014496 532.34408081 -86.93560242 532.24284912 -86.23031616 532.1385498 C-61.13010151 528.47499122 -35.75071482 527.80871229 -10.42379379 527.87745667 C-8.32636079 527.88291882 -6.22893912 527.88527014 -4.13150024 527.8873291 C15.97865138 527.91808009 35.81487029 528.36621122 55.7578125 531.1953125 C56.91732422 531.3504834 58.07683594 531.5056543 59.27148438 531.66552734 C67.12140339 532.72042742 74.94075689 533.92168528 82.7578125 535.1953125 C84.23918701 535.42903564 84.23918701 535.42903564 85.75048828 535.66748047 C108.60416055 539.28199432 130.8798727 544.65284224 152.7578125 552.1953125 C153.78567871 552.5454541 154.81354492 552.8955957 155.87255859 553.25634766 C174.97936219 559.8287196 193.07337604 568.05368128 210.98950195 577.35375977 C214.46545564 579.00799314 218.02023665 578.78448702 221.7578125 578.1953125 C226.65367229 576.26794415 230.71845753 573.22676154 233.1484375 568.44140625 C234.49173819 563.49013769 234.03273109 558.27366979 233.7578125 553.1953125 C234.53640625 552.99550781 235.315 552.79570313 236.1171875 552.58984375 C241.174669 550.65258957 245.47157675 547.81596433 250.0078125 544.8828125 C250.98000732 544.25761719 251.95220215 543.63242187 252.95385742 542.98828125 C282.80931866 523.62626929 313.38576801 499.96092914 334.7578125 471.1953125 C335.44302979 470.27613037 335.44302979 470.27613037 336.14208984 469.33837891 C359.26291168 438.10235149 375.31146287 400.31797363 370.26171875 360.71875 C365.167648 327.32343376 347.42990428 299.97180483 320.59912109 279.5234375 C314.27154215 274.95939223 307.53846314 271.0388815 300.7578125 267.1953125 C299.62988281 266.54691406 298.50195312 265.89851563 297.33984375 265.23046875 C281.86447631 256.91787796 264.15113798 251.49591199 246.7578125 249.1953125 C245.82324219 249.06640625 244.88867188 248.9375 243.92578125 248.8046875 C184.33122599 242.32516504 125.7915407 264.1913958 77.7578125 298.1953125 C77.14341309 298.62972656 76.52901367 299.06414062 75.89599609 299.51171875 C67.81022545 305.28488754 60.25240892 311.68587499 52.7578125 318.1953125 C51.93925781 318.90042969 51.12070312 319.60554688 50.27734375 320.33203125 C38.51170755 330.67869625 27.34748205 341.79548338 17.7578125 354.1953125 C16.88224599 355.28289358 16.00452165 356.36873993 15.125 357.453125 C-0.50539864 375.02067024 -0.50539864 375.02067024 -9.2421875 395.1953125 C-9.9021875 395.1953125 -10.5621875 395.1953125 -11.2421875 395.1953125 C-11.49226563 394.51082031 -11.74234375 393.82632813 -12 393.12109375 C-19.4325269 375.61492191 -32.8528467 360.37884138 -45.2421875 346.1953125 C-45.9434375 345.38191406 -46.6446875 344.56851563 -47.3671875 343.73046875 C-57.72460469 331.94106017 -68.86597184 320.84807123 -81.2421875 311.1953125 C-82.34636095 310.28179255 -83.44776172 309.36491444 -84.546875 308.4453125 C-114.30392925 283.73472855 -150.76901754 264.82528914 -188.2421875 255.1953125 C-188.87237793 255.0293457 -189.50256836 254.86337891 -190.15185547 254.69238281 C-195.1540845 253.38574813 -200.17764267 252.23411051 -205.2421875 251.1953125 C-205.99226074 251.04143066 -206.74233398 250.88754883 -207.51513672 250.72900391 C-219.34227983 248.42339645 -231.09979338 247.90784028 -243.1171875 247.8828125 C-243.80675537 247.87922729 -244.49632324 247.87564209 -245.20678711 247.87194824 C-260.47257126 247.82920477 -274.607804 249.91439858 -289.2421875 254.1953125 Z " fill="#000000" transform="translate(522.2421875,121.8046875)"/>
<path d="M0 0 C0.81984375 0.66773438 1.6396875 1.33546875 2.484375 2.0234375 C8.44910566 7.0626065 13.21164288 12.85644747 18 19 C18.58007812 19.6909375 19.16015625 20.381875 19.7578125 21.09375 C29.48371145 33.01897284 31.51588391 49.57424777 31.375 64.4375 C31.38660156 65.65759766 31.39820313 66.87769531 31.41015625 68.13476562 C31.38357354 76.46844418 30.24962386 83.98351546 28 92 C27.78633789 92.76546143 27.57267578 93.53092285 27.35253906 94.31958008 C22.26287625 111.40601251 13.32914316 126.35630071 2 140 C1.1619939 141.04105011 0.3247606 142.08272275 -0.51171875 143.125 C-11.01330501 156.03704678 -22.87862057 167.77008215 -36 178 C-37.09239966 178.90186092 -38.18208784 179.80701284 -39.26953125 180.71484375 C-55.45512815 194.1319695 -73.31762088 205.19692954 -91.55664062 215.59033203 C-93.19710677 216.53678002 -94.82104917 217.51241262 -96.42773438 218.51513672 C-102.15708268 221.99127641 -102.15708268 221.99127641 -106.01953125 222.03125 C-109.97696962 220.66196595 -113.83141115 219.13140726 -117.6875 217.5 C-147.47674708 205.2804146 -178.36084359 196.92938913 -210.02288818 191.34893799 C-211.97758889 191.00395531 -213.93142849 190.65410511 -215.88525391 190.30419922 C-244.138935 185.29508759 -272.31039787 182.67474246 -301 182 C-300.67330322 181.27639282 -300.34660645 180.55278564 -300.01000977 179.80725098 C-298.98940056 176.97053959 -298.77933211 175.07236202 -298.83984375 172.08398438 C-298.85225098 171.13108521 -298.8646582 170.17818604 -298.87744141 169.19641113 C-298.90717041 167.66059387 -298.90717041 167.66059387 -298.9375 166.09375 C-298.94645204 163.88151895 -298.95287515 161.66927651 -298.95703125 159.45703125 C-298.97112472 156.00315905 -298.99889655 152.5522826 -299.07177734 149.09912109 C-299.40312504 131.91139365 -296.68374674 119.84478968 -288 105 C-287.4215332 103.92862793 -286.84306641 102.85725586 -286.24707031 101.75341797 C-284.93689586 99.3505347 -283.5631026 97.01546955 -282.125 94.6875 C-281.38382935 93.47042358 -281.38382935 93.47042358 -280.62768555 92.22875977 C-275.58935901 84.09788278 -269.9398705 76.48838043 -264 69 C-262.84564453 67.52660156 -262.84564453 67.52660156 -261.66796875 66.0234375 C-251.29504612 53.05261172 -239.74549664 40.66249476 -227 30 C-226.51241211 29.5879834 -226.02482422 29.1759668 -225.52246094 28.75146484 C-209.38249581 15.18826504 -191.72977843 3.65868125 -173 -6 C-171.98123779 -6.52883789 -171.98123779 -6.52883789 -170.94189453 -7.06835938 C-152.33724053 -16.60095306 -132.43621969 -22.8170172 -112 -27 C-110.2984375 -27.36931641 -110.2984375 -27.36931641 -108.5625 -27.74609375 C-70.12273515 -34.71330113 -29.8592748 -25.04589443 0 0 Z " fill="#000000" transform="translate(827,433)"/>
<path d="M0 0 C0.71639648 0.31517578 1.43279297 0.63035156 2.17089844 0.95507812 C26.7065398 11.83457581 48.81616279 26.7658233 68.62890625 44.84765625 C70.74503111 46.76855377 72.89309269 48.63989432 75.0625 50.5 C82.26582644 56.7883878 88.88481338 63.65460983 95 71 C95.64775391 71.77706299 95.64775391 71.77706299 96.30859375 72.56982422 C106.48481451 84.84540759 115.17977888 97.65449816 123.1875 111.4375 C123.66251953 112.24654785 124.13753906 113.0555957 124.62695312 113.88916016 C126.15133617 116.56103568 127.57654923 119.27305598 129 122 C129.62430908 123.09562256 130.24861816 124.19124512 130.8918457 125.32006836 C137.44808451 137.62752084 136.94513823 150.03362186 136.8125 163.6875 C136.80647473 167.09514933 136.81028849 170.50248295 136.82365417 173.91011047 C136.82911541 176.01362301 136.82200344 178.11721721 136.80049133 180.22062683 C136.79776718 181.16964371 136.79504303 182.11866058 136.79223633 183.09643555 C136.78444656 183.92531784 136.7766568 184.75420013 136.76863098 185.60820007 C137.03451519 188.35680412 137.87166014 190.49239397 139 193 C138.02804687 193.03440186 137.05609375 193.06880371 136.0546875 193.10424805 C104.41601191 194.27222993 72.65571494 196.70224783 41.65039062 203.43017578 C38.52694149 204.10170584 35.39662842 204.73573554 32.265625 205.37109375 C4.90735416 210.98917769 -21.86776786 218.70049708 -47.67016602 229.47412109 C-48.81376587 229.94906006 -48.81376587 229.94906006 -49.98046875 230.43359375 C-50.63942139 230.71259521 -51.29837402 230.99159668 -51.97729492 231.27905273 C-57.92935575 233.40052958 -57.92935575 233.40052958 -61.37744141 232.1105957 C-62.19390137 231.63710693 -63.01036133 231.16361816 -63.8515625 230.67578125 C-64.77549805 230.14799072 -65.69943359 229.6202002 -66.65136719 229.07641602 C-67.63266602 228.49432373 -68.61396484 227.91223145 -69.625 227.3125 C-70.64754883 226.71816162 -71.67009766 226.12382324 -72.72363281 225.51147461 C-75.82833871 223.69460921 -78.91673248 221.85297839 -82 220 C-82.86657227 219.48115234 -83.73314453 218.96230469 -84.62597656 218.42773438 C-102.22542602 207.81040769 -118.70235047 195.72648873 -134 182 C-134.52142578 181.5349707 -135.04285156 181.06994141 -135.58007812 180.59082031 C-139.10071346 177.4425175 -142.56343594 174.23992143 -146 171 C-147.38832031 169.69289063 -147.38832031 169.69289063 -148.8046875 168.359375 C-155.95299128 161.4338229 -162.05565376 153.96386861 -168 146 C-168.63679688 145.15824219 -169.27359375 144.31648437 -169.9296875 143.44921875 C-179.07408913 130.91253909 -185.30994808 117.73137618 -190 103 C-190.36222656 101.99195313 -190.72445312 100.98390625 -191.09765625 99.9453125 C-197.1600478 80.15724659 -194.48517845 55.1301254 -185.05761719 36.8503418 C-182.34843574 32.11052504 -178.54787426 28.11954171 -175 24 C-174.34773438 23.21238281 -173.69546875 22.42476563 -173.0234375 21.61328125 C-156.29052439 1.88497011 -131.91944529 -10.41522499 -107 -16 C-105.36804688 -16.36931641 -105.36804688 -16.36931641 -103.703125 -16.74609375 C-68.77980896 -23.04445299 -31.89413125 -14.1904774 0 0 Z " fill="#000000" transform="translate(359,422)"/>
<path d="M0 0 C3.49144801 0.0183812 6.98262935 0.02050746 10.47412109 0.02026367 C30.31672676 0.04969715 50.09276067 0.41282774 69.79052734 2.95581055 C70.47603668 3.04228851 71.16154602 3.12876648 71.86782837 3.21786499 C104.77945736 7.37535593 137.32415712 13.31059027 168.72802734 24.20581055 C169.60797363 24.50567871 170.48791992 24.80554688 171.39453125 25.11450195 C189.29176856 31.24227232 206.94875238 38.38984528 223.60302734 47.39331055 C229.42846032 50.42138215 234.24228621 51.03969155 240.72802734 50.20581055 C237.90364274 53.25496034 235.17247203 55.28620228 231.52880859 57.2722168 C230.49771973 57.83457031 229.46663086 58.39692383 228.40429688 58.97631836 C227.29425293 59.56767578 226.18420898 60.1590332 225.04052734 60.76831055 C223.88149902 61.38673828 222.7224707 62.00516602 221.52832031 62.64233398 C174.65464907 87.42272824 122.29007544 102.02204018 69.72802734 108.20581055 C68.47505859 108.3553418 67.22208984 108.50487305 65.93115234 108.65893555 C25.96597861 113.2832664 -15.3500238 113.24984995 -55.27197266 108.20581055 C-56.29115784 108.0785257 -56.29115784 108.0785257 -57.33093262 107.94866943 C-116.73712617 100.4572343 -176.55132944 83.80543402 -227.27197266 51.20581055 C-225.27197266 50.20581055 -225.27197266 50.20581055 -221.29541016 50.45581055 C-215.30702409 50.51318431 -211.04614936 48.02840759 -205.89697266 45.20581055 C-203.95149989 44.18680807 -202.00353369 43.17255324 -200.05322266 42.1628418 C-198.59916016 41.40801514 -198.59916016 41.40801514 -197.11572266 40.63793945 C-190.0241831 37.06659922 -182.64571587 34.13669902 -175.27197266 31.20581055 C-174.61100586 30.93961914 -173.95003906 30.67342773 -173.26904297 30.39916992 C-153.2148156 22.36934751 -132.32974026 16.8790761 -111.27197266 12.20581055 C-110.29099609 11.98683105 -109.31001953 11.76785156 -108.29931641 11.54223633 C-95.2474888 8.67248529 -82.11318323 6.46330953 -68.89697266 4.51831055 C-68.21717346 4.41557831 -67.53737427 4.31284607 -66.8369751 4.20700073 C-44.67211325 0.88699851 -22.39062963 -0.12126027 0 0 Z " fill="#000000" transform="translate(505.27197265625,807.794189453125)"/>
<path d="M0 0 C0.71641726 -0.00282738 1.43283451 -0.00565475 2.17096138 -0.00856781 C5.97620102 -0.02341202 9.78140431 -0.03272943 13.58666992 -0.03710938 C16.64701537 -0.04145155 19.70707213 -0.05519798 22.76733398 -0.078125 C52.1403896 -0.29317872 80.88335594 1.75499259 109.91015625 6.453125 C110.85086975 6.60241455 111.79158325 6.7517041 112.76080322 6.90551758 C137.75832451 10.88600459 162.22646232 16.238008 186.28515625 24.203125 C187.66695068 24.65292725 187.66695068 24.65292725 189.07666016 25.11181641 C208.76279883 31.55349978 227.87856123 39.45875944 246.53515625 48.453125 C247.33848389 48.82872559 248.14181152 49.20432617 248.96948242 49.59130859 C255.64406519 52.9081302 260.2119115 57.35420449 263.28515625 64.203125 C264.31113391 70.65724026 263.07856239 74.974376 259.28515625 80.203125 C254.7385816 84.52237091 250.41860848 85.82826133 244.11328125 85.7265625 C239.76109539 84.92104744 236.13067887 82.86436085 232.2565918 80.8203125 C206.33796827 67.15152267 178.61270151 57.46647729 150.28515625 50.203125 C148.9717627 49.8635376 148.9717627 49.8635376 147.63183594 49.51708984 C124.86153253 43.73047605 101.29994101 40.06222899 77.97265625 37.390625 C76.53950073 37.22312744 76.53950073 37.22312744 75.07739258 37.05224609 C56.32039716 35.07583468 37.3747702 35.0165068 18.53466797 35.01782227 C15.05163336 35.01563535 11.56891667 34.99737829 8.0859375 34.97851562 C-14.82050368 34.91932507 -37.48922032 36.50319644 -60.15234375 39.828125 C-61.02928894 39.95462433 -61.90623413 40.08112366 -62.80975342 40.2114563 C-89.52068838 44.09808204 -116.04272039 49.79701356 -141.71484375 58.203125 C-142.70919434 58.52861328 -143.70354492 58.85410156 -144.72802734 59.18945312 C-164.58090559 65.79767472 -183.53312323 74.31506552 -202.04833984 84.04003906 C-207.52990186 86.43100788 -211.88337598 85.75256533 -217.46484375 84.078125 C-222.10692411 81.40000172 -224.9821277 78.40127314 -226.71484375 73.203125 C-227.54978888 67.15573671 -226.65003249 63.10498224 -223.296875 58.02734375 C-218.56392171 52.56983958 -212.3259621 49.7390621 -205.96484375 46.578125 C-204.91224365 46.05395996 -203.85964355 45.52979492 -202.77514648 44.98974609 C-191.34781219 39.39575682 -179.61671798 34.68122347 -167.71484375 30.203125 C-166.91997559 29.90180664 -166.12510742 29.60048828 -165.30615234 29.29003906 C-129.00972526 15.63968841 -90.42351857 8.04751036 -52.02734375 3.453125 C-51.13632965 3.3460321 -50.24531555 3.23893921 -49.32730103 3.12860107 C-46.72411225 2.81887289 -44.12014134 2.51709269 -41.515625 2.21875 C-40.39003174 2.08628372 -40.39003174 2.08628372 -39.24169922 1.95114136 C-26.18978202 0.49443548 -13.12601284 0.03617192 0 0 Z " fill="#FCFCFC" transform="translate(493.71484375,773.796875)"/>
<path d="M0 0 C2.97777371 0.28877931 5.95924377 0.53095837 8.94067383 0.77868652 C22.76454391 2.01783875 36.31379033 4.42134639 49.92504883 7.06774902 C51.20143219 7.31517349 51.20143219 7.31517349 52.50360107 7.56759644 C71.36155399 11.25372416 89.79062942 15.81856322 107.98754883 22.00524902 C109.15178375 22.39734558 109.15178375 22.39734558 110.33953857 22.79736328 C122.39483995 26.85955965 134.29807957 31.16197115 145.98754883 36.19274902 C146.75647461 36.51694824 147.52540039 36.84114746 148.31762695 37.1751709 C178.03579927 49.72284365 178.03579927 49.72284365 182.35083008 57.14196777 C184.20743613 63.12183388 184.00485487 69.08278093 181.30004883 74.69274902 C176.79442521 79.56369348 173.18800617 82.28171848 166.46801758 82.58337402 C160.14454416 82.50565919 155.72101725 79.97100774 150.30004883 76.94274902 C135.99893714 69.38396206 121.15222735 63.73348614 105.98754883 58.19274902 C105.03315918 57.83841797 104.07876953 57.48408691 103.09545898 57.11901855 C66.9082214 43.78687839 28.15586343 38.25020258 -10.01245117 34.19274902 C-11.08946289 34.07270508 -12.16647461 33.95266113 -13.27612305 33.82897949 C-70.1776845 27.68265822 -132.02452374 31.62786726 -187.39086914 46.5032959 C-189.92417282 47.16953259 -192.46362376 47.77774234 -195.01635742 48.36462402 C-220.56386064 54.28650108 -245.48379744 63.4362672 -268.95776367 75.11462402 C-269.89700684 75.57941162 -270.83625 76.04419922 -271.80395508 76.52307129 C-273.54285136 77.39440033 -275.27274663 78.28406703 -276.99047852 79.19641113 C-282.6748842 82.06911853 -287.64329692 83.11585615 -294.01245117 82.19274902 C-299.41609822 79.4909255 -304.01735078 75.01179183 -306.01245117 69.19274902 C-306.69327275 63.35713552 -305.9950667 59.81805066 -302.59448242 54.99353027 C-299.82317388 51.83902845 -296.72357773 50.09891858 -293.01245117 48.19274902 C-291.93479492 47.62169434 -290.85713867 47.05063965 -289.74682617 46.46228027 C-266.49287503 34.36145876 -241.92166211 24.46464292 -216.54614258 17.86413574 C-213.68702923 17.10651754 -210.84036028 16.30950965 -207.99291992 15.50915527 C-140.57507152 -3.31782752 -69.4553031 -6.95041065 0 0 Z " fill="#FCFCFC" transform="translate(573.012451171875,696.8072509765625)"/>
</svg>
