<?xml version="1.0" encoding="UTF-8"?>
<svg version="1.1" xmlns="http://www.w3.org/2000/svg" width="1024" height="1024">
<path d="M0 0 C11.58990936 6.09213184 17.44343467 15.87158894 21.42333984 28.05786133 C25.30728026 40.93911991 28.21234408 54.94371956 27.1875 68.4375 C28.22261719 68.39367187 29.25773437 68.34984375 30.32421875 68.3046875 C36.63935779 68.31299143 42.79212243 69.49998336 49 70.5625 C49.65578033 70.67387299 50.31156067 70.78524597 50.98721313 70.8999939 C135.31261346 85.28409903 218.48621581 122.35099388 272.1875 191.4375 C273.06427847 192.49374195 273.94471578 193.54695377 274.828125 194.59765625 C288.87697342 211.45340529 300.68232155 230.20293631 311.1875 249.4375 C311.66106934 250.30101074 312.13463867 251.16452148 312.62255859 252.05419922 C325.64233296 275.96308352 336.15844045 300.77417806 345.1875 326.4375 C345.75331787 328.02038818 345.75331787 328.02038818 346.33056641 329.63525391 C375.66336231 412.06460625 386.1103562 501.68329995 390.9375 588.5625 C390.99657532 589.6141333 391.05565063 590.6657666 391.11651611 591.74926758 C392.85856362 623.35844932 393.35793043 654.9542101 393.31787109 686.60546875 C393.31209759 691.20004029 393.31552417 695.79455433 393.32144356 700.38912392 C393.32508681 704.01152976 393.32389474 707.6339223 393.32131577 711.25632858 C393.32066086 712.950423 393.32142294 714.64451872 393.32379532 716.3386116 C393.33311534 724.83153961 393.23549157 733.31051687 392.81982422 741.79443359 C392.79157625 742.49291727 392.76332829 743.19140095 392.73422432 743.9110508 C392.41984369 749.43774233 391.15203165 753.51738888 387.1875 757.4375 C381.62401375 761.64403839 376.20058335 761.58321147 369.43765545 761.56892776 C368.54029919 761.5709804 367.64294294 761.57303303 366.71839407 761.57514787 C363.68982784 761.58083467 360.66130685 761.57935855 357.63273621 761.57794189 C355.44812811 761.58052456 353.26352048 761.58353744 351.07891351 761.5869453 C345.05862873 761.59503 339.03835586 761.59680568 333.01806629 761.59754276 C326.53191295 761.59939074 320.04576584 761.60693673 313.55961609 761.61367798 C298.62961886 761.62824988 283.6996229 761.63378895 268.76961984 761.63836992 C261.39361134 761.64070523 254.01760362 761.64430779 246.64159573 761.6480653 C221.39819897 761.66090056 196.15480265 761.67162026 170.9114027 761.6750679 C169.32662235 761.67528953 167.741842 761.67551132 166.15706166 761.67573325 C164.56843356 761.67595389 162.97980546 761.67617438 161.39117736 761.6763947 C158.2040629 761.67683726 155.01694844 761.67728437 151.82983398 761.67773438 C151.03961422 761.67784377 150.24939445 761.67795316 149.43522862 761.67806586 C123.80491725 761.68169753 98.17463413 761.69762187 72.54433358 761.72092474 C45.45318895 761.74551082 18.36206048 761.75924015 -8.72909564 761.76043582 C-11.70194702 761.76060728 -14.67479839 761.76082271 -17.64764977 761.76107025 C-18.74566745 761.7611539 -18.74566745 761.7611539 -19.86586732 761.76123925 C-31.65456205 761.76239069 -43.4432278 761.77342053 -55.23191274 761.78795731 C-67.07663067 761.80231085 -78.92130821 761.80531286 -90.76603249 761.79751733 C-97.18503363 761.79360096 -103.60393711 761.79458854 -110.02292633 761.80857468 C-115.89581586 761.82125425 -121.76853374 761.82016855 -127.64142283 761.80798396 C-129.76927539 761.80601664 -131.89713986 761.80915282 -134.02497564 761.81782833 C-136.91190448 761.82885624 -139.79822064 761.82147833 -142.68513203 761.8094368 C-143.51590263 761.81703199 -144.34667322 761.82462718 -145.20261869 761.83245254 C-151.1951338 761.77830053 -156.15224311 760.81689311 -160.7734375 756.68359375 C-161.24007812 756.08675781 -161.70671875 755.48992188 -162.1875 754.875 C-162.66960937 754.27558594 -163.15171875 753.67617188 -163.6484375 753.05859375 C-171.18515834 742.5628248 -165.67037743 717.67411461 -163.84765625 705.4453125 C-158.46720013 672.84199249 -146.60812427 642.98211338 -126.8125 616.4375 C-126.36406738 615.83357422 -125.91563477 615.22964844 -125.45361328 614.60742188 C-117.01242257 603.3362893 -107.58254306 593.05670893 -97.5390625 583.19921875 C-95.86372518 581.48976823 -94.33579025 579.72005476 -92.8125 577.875 C-90.76020467 575.42105333 -88.61400756 573.32695379 -86.17358398 571.26074219 C-81.60036621 567.30392795 -77.31308831 563.09980695 -73.03515625 558.828125 C-72.22437119 558.02066833 -71.41358612 557.21321167 -70.57823181 556.38128662 C-68.87351959 554.68160819 -67.17013401 552.98059825 -65.46801758 551.27832031 C-62.89099647 548.70348292 -60.30608146 546.13675484 -57.72070312 543.5703125 C-49.62455975 535.5015284 -41.79824505 527.49975127 -34.8125 518.4375 C-33.91618043 517.37288381 -33.01254479 516.31432675 -32.09765625 515.265625 C0.89945641 476.99129397 19.30426661 423.70150931 20.1875 373.4375 C19.00994141 374.72333984 19.00994141 374.72333984 17.80859375 376.03515625 C10.70553913 383.77427153 3.64798786 391.37282306 -4.32421875 398.23046875 C-6.98755857 400.59277173 -9.57689063 403.02236857 -12.16625977 405.46508789 C-17.95427402 410.92413112 -23.79029969 416.20005042 -30.01171875 421.16796875 C-32.68829612 423.33685502 -35.29695365 425.56528588 -37.8984375 427.82275391 C-44.37092188 433.43848203 -50.99933074 438.785071 -57.84228516 443.94433594 C-60.13679383 445.68327213 -62.4180972 447.43885328 -64.69921875 449.1953125 C-77.40315521 458.96053247 -90.34249721 468.27701231 -103.5234375 477.3828125 C-123.55416518 491.23222093 -142.82570053 504.98095332 -157.8125 524.4375 C-158.73917676 525.59096693 -159.66906003 526.74186266 -160.6015625 527.890625 C-165.91918235 534.45035468 -171.08879924 541.09668732 -176.125 547.875 C-187.9962932 563.75363182 -201.49936035 576.68723563 -221.8125 579.9140625 C-230.67801708 580.84841847 -241.29537824 581.46163662 -249.328125 577.05859375 C-255.83460534 571.7068895 -260.76372659 564.83974215 -261.8125 556.4375 C-262.96363281 556.581875 -264.11476563 556.72625 -265.30078125 556.875 C-292.41855127 560.11118238 -318.16101402 559.69017653 -340.76171875 542.1484375 C-359.83975606 525.90485145 -366.65462023 500.27211403 -369.8125 476.4375 C-369.94527344 475.46039062 -370.07804687 474.48328125 -370.21484375 473.4765625 C-370.53793633 470.45808112 -370.69592158 467.47186973 -370.8125 464.4375 C-370.85036621 463.59977051 -370.88823242 462.76204102 -370.92724609 461.89892578 C-371.50951355 447.48964878 -370.42571629 435.09397291 -365.8125 421.4375 C-365.43424072 420.25462402 -365.43424072 420.25462402 -365.04833984 419.04785156 C-352.42700379 379.79714167 -331.77038836 341.65295063 -311.7578125 305.76171875 C-308.38609677 299.71067229 -305.15787201 293.58414445 -301.91567993 287.4631958 C-295.31102233 275.00380683 -288.53252264 262.66042354 -281.52246094 250.42333984 C-279.66916412 247.18721475 -277.82252587 243.94734475 -275.9765625 240.70703125 C-268.25138575 227.1525405 -260.50357985 213.61042758 -252.671875 200.1171875 C-250.29172485 196.0139462 -247.93866373 191.89722517 -245.6114502 187.76387024 C-231.68605378 163.06575955 -231.68605378 163.06575955 -222.515625 154.12109375 C-208.95210752 140.65557856 -196.08196752 120.82740938 -190.8125 102.4375 C-190.91042459 98.22674262 -192.41117318 95.05298276 -194.1875 91.3125 C-199.0484442 81.00055478 -200.93559329 70.05793896 -200.9453125 58.703125 C-200.94626923 57.98445251 -200.94722595 57.26578003 -200.94821167 56.52532959 C-200.94888816 55.01265373 -200.94707116 53.49997487 -200.94287109 51.98730469 C-200.93754697 49.70761358 -200.94281791 47.42812232 -200.94921875 45.1484375 C-200.96358602 20.36050669 -200.96358602 20.36050669 -195.8125 14.4375 C-188.05651294 7.16303763 -180.58540024 4.8566273 -170.046875 5.16015625 C-152.10669262 6.69850522 -138.46312584 20.67900425 -127.16015625 33.58203125 C-104.8125 60.76362313 -104.8125 60.76362313 -104.8125 66.4375 C-96.5625 66.4375 -88.3125 66.4375 -79.8125 66.4375 C-79.1525 64.7875 -78.4925 63.1375 -77.8125 61.4375 C-65.96405139 38.67824979 -31.52240027 -12.79567816 0 0 Z " fill="#000000" transform="translate(489.8125,150.5625)"/>
<path d="M0 0 C66.67074059 3.05829085 126.54720802 43.20450488 171 90 C174.18770282 93.52066676 177.10307193 97.23831728 180 101 C180.86241496 102.07466039 181.7271307 103.14747716 182.59375 104.21875 C189.53097159 112.83615682 195.92934705 121.75317489 202 131 C202.74588379 132.13356934 202.74588379 132.13356934 203.50683594 133.29003906 C241.27729556 191.22063045 263.44767794 258.60861848 277 326 C277.22284668 327.0926416 277.44569336 328.1852832 277.67529297 329.31103516 C277.89459473 330.39046387 278.11389648 331.46989258 278.33984375 332.58203125 C278.53054443 333.52022705 278.72124512 334.45842285 278.91772461 335.42504883 C280.80387394 345.12533841 282.49666435 354.83502614 283.92578125 364.61328125 C284.09625473 365.77411224 284.26672821 366.93494324 284.44236755 368.13095093 C286.2829685 380.778432 287.96734998 393.44438754 289.5625 406.125 C289.71374329 407.32535889 289.86498657 408.52571777 290.02081299 409.76245117 C292.0069502 425.65049952 293.74697207 441.52687625 294.875 457.5 C294.95815964 458.67202972 294.95815964 458.67202972 295.04299927 459.86773682 C296.59086393 482.23320337 297.15441349 504.58083356 297.1328125 526.99609375 C297.13348934 529.52832549 297.13446249 532.06055717 297.13571167 534.5927887 C297.13735845 540.53443997 297.13392558 546.47607319 297.1285609 552.41772181 C297.12376437 558.40534163 297.12862007 564.3929407 297.13380814 570.38055992 C297.16868616 617.66101161 297.16868616 617.66101161 296.5546875 637.59765625 C296.51594513 638.85952255 296.47720276 640.12138885 296.43728638 641.42149353 C295.75927509 660.24072491 295.75927509 660.24072491 294 662 C292.40389018 662.09333705 290.80366572 662.11745372 289.20483398 662.11352539 C288.18385117 662.11344986 287.16286835 662.11337433 286.11094666 662.11329651 C285.0005452 662.10813522 283.89014374 662.10297394 282.74609375 662.09765625 C281.61551041 662.0962413 280.48492706 662.09482635 279.32008362 662.09336853 C275.69252935 662.08775019 272.06503576 662.07519458 268.4375 662.0625 C265.98502693 662.05748736 263.5325529 662.05292405 261.08007812 662.04882812 C255.05336455 662.0377748 249.02668661 662.02101884 243 662 C243.03758423 661.33034714 243.07516846 660.66069427 243.1138916 659.9707489 C247.23077701 585.60425505 249.1489577 510.29779896 243 436 C242.88047974 434.54826385 242.88047974 434.54826385 242.75854492 433.06719971 C241.6990565 420.3562435 240.44500678 407.67268207 239 395 C238.87125488 393.85499023 238.74250977 392.70998047 238.60986328 391.53027344 C231.57800377 330.27882229 218.09285876 268.13122988 192 212 C191.54544434 211.00484375 191.09088867 210.0096875 190.62255859 208.984375 C176.95963238 179.13685728 160.08410071 150.25552821 139 125 C138.55301758 124.4529541 138.10603516 123.9059082 137.64550781 123.34228516 C126.18451417 109.32051355 113.48949829 95.91785726 99 85 C98.44666992 84.57557617 97.89333984 84.15115234 97.32324219 83.71386719 C88.26461939 76.7785895 78.96114308 70.55955329 69 65 C68.19127441 64.54512207 67.38254883 64.09024414 66.54931641 63.62158203 C42.60195146 50.28183454 17.02184441 41.33561002 -9 33 C-8.43859019 27.40461552 -7.38652532 22.39327777 -5.625 17.0625 C-5.29109253 16.02416016 -5.29109253 16.02416016 -4.95043945 14.96484375 C-4.30800879 12.97393783 -3.65593206 10.98649259 -3 9 C-2.67128906 7.99839844 -2.34257813 6.99679688 -2.00390625 5.96484375 C-1.34441094 3.97373589 -0.67391436 1.9862739 0 0 Z " fill="#FDFDFD" transform="translate(558,244)"/>
<path d="M0 0 C1.7634375 -0.01160156 1.7634375 -0.01160156 3.5625 -0.0234375 C10.94372451 0.83211352 14.99007977 4.91916566 19.6875 10.3125 C23.65890532 16.55327979 23.77016104 23.20034192 23 30.375 C18.18457542 51.80923872 6.54650641 75.35191212 -11.765625 88.3359375 C-12.99539063 89.03589844 -12.99539063 89.03589844 -14.25 89.75 C-15.08015625 90.23210937 -15.9103125 90.71421875 -16.765625 91.2109375 C-22.81063016 94.36025837 -29.35441228 94.13346382 -36 93.375 C-41.95278368 90.95877179 -46.02933416 87.07867842 -49 81.375 C-54.10554315 67.92170746 -49.78756636 54.71835521 -44.16796875 42.1875 C-36.26175171 25.35484497 -21.01695393 -0.13826943 0 0 Z " fill="#FCFCFC" transform="translate(344,312.625)"/>
<path d="M0 0 C5.82752994 4.47416944 10.26070555 9.77274543 12 17 C13.12292688 26.12244412 12.27129017 33.36973467 7 41 C2.96356538 45.90917725 -2.35169204 49.17584602 -8 52 C-25.13141927 53.19567114 -25.13141927 53.19567114 -32 48 C-32.62261719 47.55269531 -33.24523437 47.10539063 -33.88671875 46.64453125 C-39.11774867 42.55401939 -42.7594788 37.65475858 -44 31 C-44.58728955 22.64315857 -45.06238245 15.05558529 -40 8 C-39.443125 7.13375 -38.88625 6.2675 -38.3125 5.375 C-28.03168493 -5.18367494 -12.94898579 -7.85793155 0 0 Z " fill="#FCFCFC" transform="translate(221,563)"/>
</svg>
