<?xml version="1.0" encoding="UTF-8"?>
<svg version="1.1" xmlns="http://www.w3.org/2000/svg" width="1024" height="1024">
<path d="M0 0 C21.86340192 19.8902299 35.30074175 46.34347155 37.0234375 76.02197266 C37.73586348 95.20080381 33.8424727 112.85864841 26.109375 130.33544922 C27.50736328 131.516875 27.50736328 131.516875 28.93359375 132.72216797 C63.35197787 162.02756092 89.21014873 200.08255824 93.109375 246.33544922 C94.26962254 265.85912809 93.99546193 285.31287733 89.109375 304.33544922 C88.93277344 305.07134277 88.75617188 305.80723633 88.57421875 306.56542969 C83.14311626 328.93855468 72.08614408 350.85558571 56.88671875 368.17138672 C55.2487367 370.16576487 54.14553312 371.98396084 53.109375 374.33544922 C53.83511719 374.60615234 54.56085938 374.87685547 55.30859375 375.15576172 C82.40244298 386.5676759 109.73723045 414.40296184 127.109375 437.33544922 C128.13020709 438.64115673 129.15246314 439.94575165 130.17578125 441.24951172 C189.46861715 517.20895845 207.109375 607.86147562 207.109375 702.33544922 C22.969375 702.33544922 -161.170625 702.33544922 -350.890625 702.33544922 C-350.890625 612.0256356 -336.01974055 520.21927761 -278.31103516 447.14111328 C-276.8956986 445.34189891 -275.50603547 443.52531631 -274.12109375 441.70263672 C-267.82813252 433.47156477 -261.08735379 425.78580722 -253.890625 418.33544922 C-253.29169434 417.71460449 -252.69276367 417.09375977 -252.07568359 416.45410156 C-244.40822311 408.54919714 -236.65496976 401.03416279 -227.890625 394.33544922 C-227.29137207 393.87041992 -226.69211914 393.40539062 -226.07470703 392.92626953 C-202.09290703 374.33544922 -202.09290703 374.33544922 -196.890625 374.33544922 C-199.07807908 370.4793603 -201.59724241 367.14776092 -204.390625 363.71044922 C-218.99171569 345.09419424 -228.52667868 323.27255689 -233.890625 300.33544922 C-234.2103125 299.06056641 -234.53 297.78568359 -234.859375 296.47216797 C-239.54794028 275.46083518 -239.2754402 249.16350801 -233.890625 228.33544922 C-233.69194824 227.52188965 -233.49327148 226.70833008 -233.28857422 225.87011719 C-225.89576444 196.01645611 -211.25028286 170.34576892 -189.890625 148.33544922 C-189.106875 147.51173828 -188.323125 146.68802734 -187.515625 145.83935547 C-182.02662977 140.18373003 -176.06895094 135.2203686 -169.890625 130.33544922 C-170.27734375 129.46146484 -170.6640625 128.58748047 -171.0625 127.68701172 C-183.15737232 99.50584251 -184.04228127 69.0053647 -172.890625 40.33544922 C-161.04173924 12.94488912 -139.35619318 -8.16990452 -111.81835938 -19.51855469 C-74.11112205 -33.79186385 -30.39035791 -26.75638691 0 0 Z " fill="#000000" transform="translate(583.890625,213.66455078125)"/>
</svg>
