<?xml version="1.0" encoding="UTF-8"?>
<svg version="1.1" xmlns="http://www.w3.org/2000/svg" width="1024" height="1024">
<path d="M0 0 C12.47779174 10.00108202 21.47871134 24.02037469 24.10449219 39.97900391 C25.98905397 58.51483074 22.80303952 76.13196007 10.87792969 91.01025391 C5.2611178 97.63674975 -0.96600577 102.61404825 -8.61035156 106.78369141 C-9.24328125 107.14205078 -9.87621094 107.50041016 -10.52832031 107.86962891 C-13.12153788 109.26548429 -14.60985156 109.78369141 -17.61035156 109.78369141 C-17.34305819 110.99218608 -17.34305819 110.99218608 -17.07036495 112.2250948 C-12.75264047 131.77707088 -8.58368856 151.35365912 -4.57029176 170.97058368 C-3.83300972 174.57178448 -3.09320629 178.17246743 -2.35368347 181.77320862 C-1.10079456 187.87489379 0.15080062 193.97684296 1.40148926 200.07897949 C3.34365967 209.55436286 5.28956636 219.02897699 7.23632812 228.50341797 C7.3975622 229.28813217 7.55879627 230.07284637 7.72491622 230.88133979 C8.37365695 234.03869616 9.02241179 237.19604964 9.67120445 240.35339534 C10.79309701 245.81308086 11.91474422 251.27281675 13.0362854 256.73257446 C20.06672515 290.9565665 20.06672515 290.9565665 27.13381958 325.17300415 C27.80187868 328.3993364 28.46805811 331.62604759 29.13253784 334.8531189 C29.88608169 338.51253744 30.6430419 342.17122964 31.40311241 345.82929802 C31.79699558 347.72923957 32.18724111 349.62993415 32.5773468 351.53065491 C32.91901131 353.16846169 32.91901131 353.16846169 33.26757812 354.83935547 C33.46212585 355.7797467 33.65667358 356.72013794 33.8571167 357.68902588 C34.19301259 359.75741535 34.19301259 359.75741535 35.38964844 360.78369141 C35.7364566 359.86695648 35.7364566 359.86695648 36.090271 358.93170166 C46.92923622 330.28430798 57.79893673 301.64999344 68.8157959 273.07043457 C74.88466641 257.32480526 80.90636897 241.56203701 86.88964844 225.78369141 C93.59609122 208.10018129 100.34799105 190.43465554 107.13964844 172.78369141 C107.55625732 171.70071777 107.97286621 170.61774414 108.40209961 169.50195312 C109.60052941 166.38732249 110.79964876 163.2729583 111.99902344 160.15869141 C112.37389893 159.18456299 112.74877441 158.21043457 113.13500977 157.20678711 C114.91536637 152.58586154 116.70598194 147.96944157 118.52050781 143.36181641 C119.01529633 142.10232178 119.01529633 142.10232178 119.52008057 140.81738281 C120.13440818 139.25598493 120.75154568 137.69568851 121.37200928 136.13671875 C122.87044325 132.56885524 122.87044325 132.56885524 123.38964844 128.78369141 C121.95438552 127.70200056 120.46326647 126.69410302 118.95214844 125.72119141 C104.90959614 116.05579575 95.78677475 102.59560631 92.38964844 85.78369141 C89.76998973 68.04641894 92.80335052 50.68264784 103.62402344 36.08837891 C104.49800781 34.94755859 104.49800781 34.94755859 105.38964844 33.78369141 C105.82792969 33.16751953 106.26621094 32.55134766 106.71777344 31.91650391 C115.70141807 20.17282387 131.15972941 13.18125093 145.38964844 10.78369141 C164.06901995 8.95329059 180.35617797 13.18536919 195.51464844 24.40869141 C207.06191408 34.06807076 215.06775331 47.89117789 217.38964844 62.78369141 C219.03165312 81.89779488 216.24883275 97.96116058 204.32324219 113.47119141 C195.46973114 123.86100043 184.17555724 131.92488315 170.70849609 134.84667969 C169.49475815 135.11147629 169.49475815 135.11147629 168.25650024 135.38162231 C167.64043915 135.51430511 167.02437805 135.64698792 166.38964844 135.78369141 C167.00504237 165.16899939 167.62446828 194.55422009 168.24949446 223.93932482 C168.32334195 227.41137216 168.3971552 230.88342023 168.47094727 234.35546875 C168.49298341 235.39226803 168.49298341 235.39226803 168.51546473 236.45001276 C168.75300911 247.63030232 168.98778139 258.81064846 169.22152268 269.9910181 C169.46156458 281.46979517 169.70465929 292.94850421 169.95039517 304.42716086 C170.0882643 310.87171242 170.22475623 317.31628648 170.35793877 323.76093674 C170.48340038 329.82986041 170.61256304 335.89869419 170.74453354 341.96747971 C170.79225619 344.19180435 170.83864022 346.41615819 170.8835659 348.64054108 C170.94525696 351.68496129 171.01183026 354.72923836 171.07957458 357.77352905 C171.09611648 358.64710064 171.11265839 359.52067223 171.12970155 360.42071569 C171.26624882 366.24660882 171.73402649 371.99368575 172.38964844 377.78369141 C172.94724854 376.90185181 172.94724854 376.90185181 173.51611328 376.00219727 C179.80098863 366.07131949 186.08401006 356.14527246 192.64038086 346.39086914 C197.72592751 338.81641061 202.66606142 331.147355 207.63037109 323.49316406 C210.66816919 318.8146346 213.71650237 314.14298302 216.76464844 309.47119141 C217.39072998 308.51148438 218.01681152 307.55177734 218.66186523 306.56298828 C219.93533737 304.61097211 221.20885639 302.65898652 222.48242188 300.70703125 C225.61880852 295.89967159 228.7541824 291.09165153 231.88964844 286.28369141 C233.13964347 284.3670215 234.38964347 282.45035484 235.63964844 280.53369141 C236.25839844 279.58494141 236.87714844 278.63619141 237.51464844 277.65869141 C244.38964844 267.11702474 251.26464844 256.57535807 258.13964844 246.03369141 C258.75880127 245.08429688 259.3779541 244.13490234 260.01586914 243.15673828 C261.26170077 241.24651723 262.50763123 239.33636062 263.75366211 237.42626953 C266.94326549 232.53651785 270.13096751 227.64554313 273.31542969 222.75244141 C273.96125 221.76083008 274.60707031 220.76921875 275.27246094 219.74755859 C276.54316358 217.79584679 277.81272472 215.84339124 279.08105469 213.89013672 C281.87312275 209.59912186 284.68399991 205.32747203 287.58886719 201.11181641 C288.06670654 200.41443359 288.5445459 199.71705078 289.03686523 198.99853516 C289.91077691 197.72922616 290.79320376 196.46571902 291.68579102 195.20947266 C292.96191117 193.4054003 292.96191117 193.4054003 294.38964844 190.78369141 C293.34880486 187.66116067 292.20553373 186.63216416 289.91308594 184.41259766 C278.18398292 171.87147981 273.56644452 156.59699863 273.38964844 139.78369141 C274.44469176 121.98471985 281.69200056 106.41910444 294.59667969 94.13916016 C308.38421328 82.51135211 324.42692953 77.75416982 342.30908203 78.60449219 C360.57692009 80.17790138 374.30498479 88.94784238 386.48730469 102.03759766 C393.26615614 110.12752367 397.97483745 120.30692648 399.38964844 130.78369141 C399.52242187 131.67185547 399.65519531 132.56001953 399.79199219 133.47509766 C401.86727938 150.98679072 397.05094836 167.79722971 386.38964844 181.78369141 C375.66836283 194.26436747 361.89595452 202.63854903 345.38964844 204.78369141 C342.71154768 204.89565214 340.07232158 204.82994439 337.38964844 204.78369141 C337.26507956 206.05758634 337.14051067 207.33148127 337.01216698 208.64397907 C336.43273076 213.83384666 335.47065535 218.90468151 334.42935181 224.01908875 C334.23052001 225.01172645 334.03168822 226.00436415 333.82683122 227.02708179 C333.16343382 230.33431106 332.49454457 233.64040493 331.82568359 236.9465332 C331.34729956 239.32585707 330.86927645 241.70525352 330.3915863 244.0847168 C329.36353619 249.20218649 328.33322178 254.31919481 327.30101395 259.43582726 C325.80399416 266.85716718 324.31259375 274.27962833 322.82278185 281.70241819 C320.39897428 293.77859034 317.97271679 305.85426858 315.54394531 317.92944336 C315.39875762 318.65128364 315.25356993 319.37312391 315.10398261 320.11683813 C313.48753674 328.15306879 311.8702851 336.18913683 310.25189209 344.22497559 C310.10678012 344.94550746 309.96166815 345.66603933 309.81215885 346.4084055 C309.59473109 347.48800444 309.59473109 347.48800444 309.37291086 348.58941346 C309.08063758 350.0406472 308.78836521 351.49188113 308.49609375 352.94311523 C308.27948797 354.01863104 308.27948797 354.01863104 308.05850632 355.11587443 C305.63867612 367.13182553 303.22418188 379.14884187 300.81385839 391.16670352 C299.33159146 398.55616175 297.84494 405.94470986 296.35236774 413.33209357 C295.20407822 419.01747642 294.06297963 424.70428495 292.92434883 430.39160919 C292.46036009 432.7033276 291.99408959 435.01458958 291.5252018 437.32531929 C289.07812072 449.39150658 286.86075241 461.41324003 285.369681 473.63936394 C282.57130085 496.21715853 269.42847903 510.91625034 253.79980469 526.27337646 C242.99583003 536.89510569 234.16420735 547.15629409 227.16308594 560.71337891 C224.28907822 565.68908389 220.89602854 570.29719544 217.52685547 574.94702148 C216.77057861 575.99345825 216.77057861 575.99345825 215.99902344 577.06103516 C215.54495117 577.68228271 215.09087891 578.30353027 214.62304688 578.94360352 C210.14339003 585.62673368 211.07032447 591.52375162 212.48339844 599.14697266 C212.94461027 601.46489158 213.41354225 603.78128593 213.88964844 606.09619141 C214.36078557 608.42513685 214.82964634 610.75454431 215.29589844 613.08447266 C215.50537109 614.10710205 215.71484375 615.12973145 215.93066406 616.18334961 C216.38964844 618.78369141 216.38964844 618.78369141 216.38964844 621.78369141 C216.98390625 622.05697266 217.57816406 622.33025391 218.19042969 622.61181641 C230.11817023 628.96762842 236.70831963 644.14385415 240.51464844 656.40869141 C241.90584056 661.77471816 242.44883792 666.7406558 242.52734375 672.25390625 C242.68302046 679.57529034 242.95993746 684.78940455 247.76074219 690.63134766 C255.68690175 701.10452252 256.37838401 714.21459754 255.38964844 726.78369141 C253.1175816 738.92419311 245.90335111 750.01076746 236.38964844 757.78369141 C228.64405956 762.5338801 219.92960428 765.17250169 211.32714844 767.90869141 C210.24025726 768.2575238 210.24025726 768.2575238 209.13140869 768.61340332 C143.79536528 789.5162725 75.88843991 802.05267439 7.38964844 805.78369141 C6.47634766 805.84008789 5.56304688 805.89648438 4.62207031 805.95458984 C-83.98779706 811.40006897 -174.21301652 800.67656363 -290.11035156 767.47119141 C-290.88811951 767.22847504 -291.66588745 766.98575867 -292.46722412 766.73568726 C-306.97089924 762.18189228 -318.43491977 756.26081287 -326.43847656 742.68212891 C-332.95208867 729.93947998 -335.36856398 716.34678313 -331.04785156 702.34619141 C-328.62081241 696.16509889 -325.35702705 688.53036689 -320.61035156 683.78369141 C-320.51463063 681.89267124 -320.42567167 680.00105995 -320.37133789 678.10839844 C-319.71440013 656.76774244 -313.17614752 639.75542475 -298.23535156 624.15869141 C-295.61035156 621.78369141 -295.61035156 621.78369141 -293.61035156 621.78369141 C-293.50078125 621.03087891 -293.39121094 620.27806641 -293.27832031 619.50244141 C-292.53625316 614.53119479 -291.78211659 609.57111194 -290.80957031 604.63916016 C-290.60521362 603.59888672 -290.60521362 603.59888672 -290.39672852 602.53759766 C-290.00298174 600.55975034 -289.5998535 598.58377763 -289.19628906 596.60791016 C-288.0584234 589.18144028 -288.06051891 584.58669955 -292.54785156 578.15869141 C-293.38036772 576.93766771 -294.21238508 575.71630381 -295.04394531 574.49462891 C-295.47175293 573.87942383 -295.89956055 573.26421875 -296.34033203 572.63037109 C-298.33651819 569.72780437 -300.21836172 566.75472955 -302.11035156 563.78369141 C-302.86274567 562.61949312 -303.61535038 561.45543092 -304.36816406 560.29150391 C-305.87493507 557.95097756 -307.34417667 555.59197194 -308.79003906 553.21337891 C-314.99605889 543.09163957 -322.48721247 534.79593053 -330.96191406 526.52587891 C-348.50200673 509.37267308 -360.41239529 493.63703546 -363.55112141 468.64341676 C-365.23889024 455.25011603 -367.76574176 442.08331094 -370.44897461 428.859375 C-370.93276369 426.44897679 -371.41594047 424.03845562 -371.89855957 421.62782288 C-372.92915199 416.48671363 -373.96376357 411.34643169 -375.00214195 406.20689011 C-376.5041409 398.7722298 -377.99771137 391.33589457 -379.48923419 383.89912637 C-381.91174114 371.82123083 -384.33969188 359.74443704 -386.77172852 347.66845703 C-386.91657213 346.94924669 -387.06141575 346.23003634 -387.21064857 345.48903175 C-387.50385127 344.03316427 -387.79705414 342.57729683 -388.09025719 341.12142942 C-388.23566397 340.39942351 -388.38107074 339.67741759 -388.53088379 338.93353271 C-388.67644317 338.21077316 -388.82200256 337.48801361 -388.97197283 336.74335226 C-390.59581357 328.67987867 -392.21819417 320.61611151 -393.84008789 312.55224609 C-393.9856625 311.82847371 -394.13123712 311.10470132 -394.28122308 310.35899644 C-396.70670004 298.29931726 -399.12908888 286.23901917 -401.54974777 274.17837203 C-403.03980888 266.75529528 -404.53294646 259.33284934 -406.03008864 251.91119744 C-407.1735442 246.24206658 -408.31323977 240.57218521 -409.45156097 234.90202141 C-409.91945274 232.57487532 -410.38868405 230.24799811 -410.85933113 227.9214077 C-411.49984771 224.75424017 -412.13566443 221.58616462 -412.77030945 218.41781616 C-412.95891956 217.49119183 -413.14752966 216.5645675 -413.34185523 215.60986364 C-413.51069151 214.7620349 -413.6795278 213.91420617 -413.85348034 213.04068565 C-414.07431657 211.9444746 -414.07431657 211.9444746 -414.29961413 210.82611787 C-414.61035156 208.78369141 -414.61035156 208.78369141 -414.61035156 204.78369141 C-415.66222656 204.84556641 -416.71410156 204.90744141 -417.79785156 204.97119141 C-433.75617699 204.85900634 -447.90842529 197.58631886 -458.98925781 186.53369141 C-471.38840522 173.52474986 -477.41366663 158.70168891 -477.61035156 140.78369141 C-476.56603778 122.39216543 -469.64710287 106.76893963 -456.26269531 94.06884766 C-442.8295831 82.49540046 -426.30773704 77.76678681 -408.69091797 78.60449219 C-390.42307991 80.17790138 -376.69501521 88.94784238 -364.51269531 102.03759766 C-353.76807882 114.86029382 -349.74080399 130.96131531 -350.85644531 147.41259766 C-352.71751021 162.41640402 -358.52692145 175.4816477 -368.61035156 186.78369141 C-369.60035156 187.44369141 -370.59035156 188.10369141 -371.61035156 188.78369141 C-370.10988882 193.07645916 -367.85561726 196.62580494 -365.29785156 200.34619141 C-364.38787592 201.69048502 -363.47908125 203.0355786 -362.57128906 204.38134766 C-362.08885742 205.09564941 -361.60642578 205.80995117 -361.109375 206.54589844 C-358.50629506 210.43186436 -355.96596517 214.35832441 -353.42285156 218.28369141 C-352.31223998 219.99597348 -351.20156137 221.70821207 -350.09082031 223.42041016 C-349.52282715 224.29616699 -348.95483398 225.17192383 -348.36962891 226.07421875 C-345.33183081 230.75274821 -342.28349763 235.4243998 -339.23535156 240.09619141 C-338.60927002 241.05589844 -337.98318848 242.01560547 -337.33813477 243.00439453 C-336.06466263 244.9564107 -334.79114361 246.90839629 -333.51757812 248.86035156 C-330.38119148 253.66771122 -327.2458176 258.47573128 -324.11035156 263.28369141 C-322.86035653 265.20036131 -321.61035653 267.11702798 -320.36035156 269.03369141 C-301.61035156 297.78369141 -301.61035156 297.78369141 -282.86035156 326.53369141 C-282.24095703 327.4834082 -281.6215625 328.433125 -280.98339844 329.41162109 C-279.73982933 331.31847028 -278.49633909 333.22537089 -277.25292969 335.13232422 C-274.0301987 340.07463412 -270.80589101 345.01590511 -267.57910156 349.95556641 C-266.91458984 350.97328125 -266.25007812 351.99099609 -265.56542969 353.03955078 C-264.3094361 354.96306544 -263.05296611 356.88626915 -261.79589844 358.80908203 C-257.68649186 365.1040501 -253.6338704 371.43350248 -249.61035156 377.78369141 C-248.85411581 371.10513328 -248.42749759 364.49196356 -248.30027771 357.77352905 C-248.27900552 356.81760066 -248.25773334 355.86167226 -248.23581654 354.87677634 C-248.16610667 351.70177313 -248.10196944 348.52668297 -248.0378418 345.3515625 C-247.98877086 343.06439501 -247.93935386 340.77723492 -247.88961792 338.49008179 C-247.75600495 332.30085947 -247.62721861 326.11154511 -247.49931216 319.92220259 C-247.36466391 313.4465797 -247.2255581 306.97105259 -247.08692932 300.49551392 C-246.85498539 289.6331293 -246.62577715 278.77069014 -246.39868164 267.90820312 C-246.16485096 256.72391876 -245.92935958 245.53967138 -245.69165039 234.35546875 C-245.67697814 233.66511301 -245.66230588 232.97475727 -245.64718901 232.26348166 C-245.57356633 228.7998829 -245.49991116 225.33628483 -245.42623985 221.8726871 C-244.81590821 193.17646077 -244.21131873 164.48011529 -243.61035156 135.78369141 C-244.43490845 135.58380615 -245.25946533 135.3839209 -246.10900879 135.17797852 C-247.19033081 134.91251221 -248.27165283 134.6470459 -249.38574219 134.37353516 C-250.45779907 134.1117749 -251.52985596 133.85001465 -252.63439941 133.58032227 C-266.41049648 129.89260704 -278.47270911 119.16634897 -286.14941406 107.38916016 C-294.67882103 92.17762419 -297.69705239 73.91835407 -293.54785156 56.78369141 C-287.65599243 39.63122298 -277.82160564 26.19308005 -261.81738281 17.21728516 C-245.75391257 9.45211556 -227.98877662 8.28894034 -210.96972656 13.52978516 C-193.9718881 19.87432719 -181.29342239 31.85211358 -173.63769531 48.27197266 C-166.76553003 65.07350223 -167.23826659 82.97841492 -174.14160156 99.65478516 C-179.98203763 112.09677794 -188.53808755 122.07687806 -200.61035156 128.78369141 C-198.62900169 134.8659512 -196.50048907 140.87354533 -194.23144531 146.85400391 C-193.90775467 147.71112976 -193.58406403 148.56825562 -193.25056458 149.45135498 C-192.18490619 152.27119477 -191.11650039 155.08998368 -190.04785156 157.90869141 C-189.28642593 159.92056065 -188.52503337 161.93244242 -187.76367188 163.94433594 C-181.3825526 180.79401956 -174.94353876 197.62140019 -168.49095154 214.44381714 C-167.92357018 215.92303146 -167.92357018 215.92303146 -167.34472656 217.43212891 C-166.96353165 218.4259256 -166.58233673 219.41972229 -166.18959045 220.44363403 C-161.48279284 232.7184127 -156.79730815 245.00132658 -152.11035156 257.28369141 C-145.41425842 274.83006331 -138.70672808 292.37198945 -131.98535156 309.90869141 C-125.49090048 326.85342642 -119.02495925 343.80855461 -112.61035156 360.78369141 C-111.21993692 356.80374928 -110.12535551 352.89134641 -109.27612305 348.76319885 C-109.03016923 347.5766571 -108.78421541 346.39011536 -108.53080845 345.1676178 C-108.26701861 343.87633469 -108.00322878 342.58505157 -107.73144531 341.25463867 C-107.44508022 339.86621718 -107.1583913 338.47786244 -106.8714056 337.08956909 C-106.09006083 333.30521013 -105.31323583 329.51993578 -104.53717303 325.73449063 C-103.71043259 321.70590367 -102.87946923 317.67818786 -102.04896545 313.65037537 C-100.63281655 306.77951334 -99.21922237 299.90812997 -97.80740356 293.03637695 C-95.79822393 283.25729615 -93.78472179 273.47910948 -91.76988852 263.70119214 C-88.87491171 249.65187455 -85.98177212 235.60217989 -83.09063661 221.55207133 C-78.52931036 199.38534182 -73.96290969 177.219665 -69.38218117 155.05693531 C-68.25544483 149.60534984 -67.13052068 144.15339531 -66.00724125 138.70109653 C-65.33375355 135.43374113 -64.65879189 132.16669165 -63.98336601 128.8997364 C-63.68016042 127.43168989 -63.37756223 125.96351777 -63.07563972 124.49520683 C-62.67489905 122.54675334 -62.27173084 120.59879958 -61.8684082 118.65087891 C-61.6473793 117.57950684 -61.4263504 116.50813477 -61.19862366 115.40429688 C-60.61035156 112.78369141 -60.61035156 112.78369141 -59.61035156 109.78369141 C-60.69123047 109.60966797 -60.69123047 109.60966797 -61.79394531 109.43212891 C-73.91384429 106.64169447 -84.80907904 96.46165905 -91.54785156 86.34619141 C-100.97519091 70.20474696 -104.43308662 52.88383665 -100.04785156 34.59619141 C-95.85796703 18.89887752 -86.71668702 5.99375028 -73.04785156 -2.71630859 C-50.02646045 -15.83251488 -21.75264801 -16.42991091 0 0 Z " fill="#000000" transform="translate(550.6103515625,131.21630859375)"/>
<path d="M0 0 C0.72663849 0.25449417 1.45327698 0.50898834 2.20193481 0.77119446 C4.51598018 1.58335814 6.82454563 2.4098527 9.1328125 3.23828125 C12.14893931 4.31070349 15.16729343 5.37662328 18.1875 6.4375 C18.93623886 6.70069031 19.68497772 6.96388062 20.45640564 7.23504639 C28.30733111 9.96522484 36.26224878 12.28633593 44.2578125 14.55078125 C45.69882324 14.96541626 45.69882324 14.96541626 47.16894531 15.38842773 C63.39137655 20.02859919 79.80419823 23.83098188 96.2578125 27.55078125 C97.42618652 27.81922852 98.59456055 28.08767578 99.79833984 28.36425781 C127.15844793 34.63242168 154.71484883 38.5991765 182.64355469 41.24121094 C185.2578125 41.55078125 185.2578125 41.55078125 187.58525085 42.03736877 C209.42932444 46.2337247 233.10217198 44.89712869 255.24682617 44.86645508 C258.86316423 44.86184065 262.47916451 44.86870415 266.09545898 44.88696289 C306.3893438 45.08836478 346.5218404 42.46134047 386.2578125 35.55078125 C387.01922546 35.4183905 387.78063843 35.28599976 388.56512451 35.14959717 C407.8131155 31.78657291 426.98496009 28.27326829 445.91699219 23.40039062 C449.00138093 22.61599477 452.09144864 21.85875806 455.18467712 21.11009216 C480.30719192 15.01517134 504.888747 7.43512487 529.0715332 -1.7253418 C533.98806967 -3.35320675 537.75671973 -2.87451685 542.3828125 -0.82421875 C546.90331244 1.63352879 549.93980484 4.91476593 552.2578125 9.55078125 C553.06446379 15.92464884 552.14822057 21.34499165 548.2578125 26.55078125 C544.40535129 30.0800059 540.4305333 31.86679306 535.5546875 33.5390625 C534.8080484 33.80317429 534.0614093 34.06728607 533.29214478 34.33940125 C530.86787202 35.19218184 528.43841633 36.028732 526.0078125 36.86328125 C525.17824036 37.15146729 524.34866821 37.43965332 523.49395752 37.73657227 C509.55211982 42.57742742 495.54619014 46.8438536 481.2578125 50.55078125 C479.62325217 50.98791997 477.98911811 51.42665657 476.35546875 51.8671875 C472.47587852 52.90922453 468.58915604 53.92058892 464.69824219 54.91943359 C462.13410093 55.58278586 459.57508242 56.26412892 457.015625 56.9453125 C417.71962425 67.2539817 376.85794526 73.99669105 336.38427734 77.3626709 C333.99778798 77.57378342 331.61581674 77.81994136 329.23242188 78.06347656 C309.02535727 79.99765457 288.80686141 79.85712411 268.52783203 79.81152344 C263.41624382 79.80014494 258.30486415 79.80690006 253.19328308 79.81839275 C231.46938664 79.86001257 209.89212159 79.73457462 188.2578125 77.55078125 C186.8834201 77.41352631 186.8834201 77.41352631 185.48126221 77.27349854 C179.64608132 76.67525339 173.82636167 75.97955453 168.0078125 75.23828125 C167.1459433 75.13029205 166.2840741 75.02230286 165.39608765 74.91104126 C106.19061903 67.48223875 48.23405766 54.42100191 -8.1171875 34.67578125 C-9.12088379 34.33095703 -10.12458008 33.98613281 -11.15869141 33.63085938 C-17.93689888 31.18156127 -22.89604364 28.75076394 -26.6171875 22.30078125 C-28.36889704 16.46174946 -28.89021933 11.8468449 -26.1171875 6.30078125 C-18.31356864 -2.73498795 -11.27361354 -4.11511998 0 0 Z " fill="#FCFCFC" transform="translate(249.7421875,838.44921875)"/>
<path d="M0 0 C2.32889069 0.00526107 4.65776791 0.00715833 6.98666382 0.00866318 C32.71223056 0.03751626 58.28796251 0.81335928 83.90634155 3.31765366 C85.07519897 3.42980209 86.2440564 3.54195053 87.44833374 3.65749741 C93.19090764 4.23658049 98.8971641 4.9653641 104.60458374 5.82253647 C107.07815121 6.19346185 109.55215487 6.55446446 112.02841187 6.90652084 C154.70158287 12.98606105 196.76810346 21.27952818 237.88778687 34.36306381 C241.09091333 35.37602276 244.30025319 36.36692122 247.5118103 37.35280991 C249.13179932 37.85131454 249.13179932 37.85131454 250.78451538 38.35988998 C252.75321503 38.96387909 254.72296927 39.5644513 256.69418335 40.16018295 C275.22727342 45.82600839 275.22727342 45.82600839 279.9805603 52.52077866 C282.06103205 56.55882509 282.27418343 59.82998279 281.90634155 64.31765366 C279.86807544 69.97833053 277.03187711 74.53163334 271.71884155 77.56765366 C262.2739352 80.08629535 254.20838142 76.72192169 245.3868103 73.58922958 C241.3665889 72.1656616 237.32882696 70.79425485 233.28915405 69.42702866 C232.4835907 69.15420563 231.67802734 68.8813826 230.84805298 68.60029221 C220.76809615 65.21984391 210.51918135 62.61793752 200.18807983 60.12087631 C196.76183949 59.28228602 193.34764367 58.40407572 189.9336853 57.51687241 C174.35533555 53.48902646 158.75262071 50.10332892 142.90634155 47.31765366 C142.22619995 47.19734787 141.54605835 47.07704208 140.8453064 46.95309067 C120.93626997 43.43460583 101.05027725 40.16314257 80.90634155 38.31765366 C79.50705101 38.18133716 78.10780156 38.04459823 76.70858765 37.90749741 C-13.5994453 29.21844072 -105.5948503 36.99181644 -232.1991272 70.98171616 C-232.89504471 71.21092255 -233.59096222 71.44012894 -234.30796814 71.67628098 C-237.74069189 72.80740686 -241.16845074 73.95032135 -244.58901978 75.11770248 C-258.78715523 79.83759597 -258.78715523 79.83759597 -266.28115845 77.19265366 C-271.05855362 74.00772354 -274.59184287 69.9153299 -276.09365845 64.31765366 C-276.57221296 59.05355405 -276.01329199 55.74419483 -273.09365845 51.31765366 C-266.62773539 44.21994575 -257.97097122 42.13336669 -249.09365845 39.31765366 C-247.46406061 38.78824976 -245.83466728 38.25821597 -244.20547485 37.72756577 C-232.93365635 34.08655301 -221.59598652 30.86757524 -210.08169556 28.0835228 C-207.00749564 27.29556911 -203.9608441 26.43413263 -200.90953064 25.56274033 C-190.7805079 22.67992541 -180.59554496 20.36690283 -170.28115845 18.25515366 C-168.59003377 17.90534977 -166.89895353 17.55533102 -165.20791626 17.20510483 C-161.18597396 16.37437711 -157.16231783 15.55236376 -153.13778687 14.73427963 C-151.37780463 14.37556718 -149.61870048 14.01255137 -147.85977173 13.64870834 C-116.32779874 7.13586458 -84.04855756 3.11929518 -51.9256897 1.25515366 C-51.17696468 1.21168619 -50.42823967 1.16821873 -49.65682602 1.12343407 C-33.1045218 0.184441 -16.57586205 -0.04006154 0 0 Z " fill="#FCFCFC" transform="translate(509.0936584472656,598.6823463439941)"/>
<path d="M0 0 C2.2331967 0.74313366 4.4676091 1.48262242 6.703125 2.21875 C7.83556641 2.59257813 8.96800781 2.96640625 10.13476562 3.3515625 C37.01366291 12.02519389 64.76528199 18.22971467 92.5 23.4375 C93.28761719 23.58670898 94.07523437 23.73591797 94.88671875 23.88964844 C106.70255541 26.11165312 118.57909091 27.88337194 130.5 29.4375 C132.34464844 29.67968262 132.34464844 29.67968262 134.2265625 29.92675781 C168.44244535 34.36498095 202.4593817 35.61160023 236.9375 35.625 C237.6109697 35.62558914 238.28443939 35.62617828 238.97831726 35.62678528 C261.20553511 35.643449 283.52169522 35.64470992 305.6328125 33.1015625 C309.64680866 32.64559106 313.66183613 32.20192809 317.67823792 31.76780701 C320.74549817 31.43489044 323.81206712 31.09588353 326.87850952 30.75552368 C328.38666382 30.58862428 329.89497952 30.42317524 331.4034729 30.2593689 C341.42694393 29.16591212 351.32283431 27.71321628 361.23403931 25.86087036 C363.6116645 25.41663669 365.99063701 24.98019682 368.36987305 24.54467773 C394.36081342 19.76958997 420.20344156 14.81928653 445.49511719 7.04638672 C447.58835145 6.4106675 449.68723594 5.79808489 451.7890625 5.19140625 C453.23438965 4.77348816 454.6797022 4.35551958 456.125 3.9375 C456.8269751 3.73479492 457.5289502 3.53208984 458.25219727 3.32324219 C462.39252182 2.11022081 466.45652212 0.7632907 470.5168457 -0.69384766 C484.45001399 -5.63518991 484.45001399 -5.63518991 491.74609375 -2.640625 C496.2143517 -0.11544436 499.38510987 2.6789972 501.5 7.4375 C502.30559723 13.64152463 502.21322153 19.18777301 498.5 24.4375 C494.91174638 27.6978567 491.67199448 29.33393291 487.08203125 30.83984375 C485.83615234 31.25282715 484.59027344 31.66581055 483.30664062 32.09130859 C481.97544166 32.51976926 480.64405772 32.94765556 479.3125 33.375 C477.94842885 33.82070156 476.58449715 34.26683011 475.22070312 34.71337891 C466.14812114 37.66620349 457.03569406 40.40216461 447.8034668 42.81298828 C444.82179775 43.62137296 441.86039546 44.49483996 438.89453125 45.359375 C431.70824132 47.41792276 424.48016691 49.17491368 417.1875 50.8125 C416.20629181 51.03360947 416.20629181 51.03360947 415.20526123 51.25918579 C400.61820321 54.53280063 385.94367497 57.25803359 371.21240234 59.79394531 C367.98829408 60.35285294 364.76940401 60.93401096 361.55078125 61.5234375 C347.15722359 64.07584168 332.65607616 65.59697569 318.125 67.125 C317.09937958 67.23377472 316.07375916 67.34254944 315.01705933 67.45462036 C312.0041774 67.7716754 308.99058035 68.08066631 305.9765625 68.38671875 C305.10404343 68.47821198 304.23152435 68.5697052 303.33256531 68.66397095 C288.10733114 70.174443 272.84924474 70.5982314 257.55859375 70.60546875 C255.89600093 70.60870341 254.23340835 70.61206888 252.57081604 70.61555481 C249.10783229 70.62148074 245.64487322 70.62340188 242.18188477 70.62280273 C238.71242997 70.6227221 235.24310899 70.62957627 231.77368164 70.64331055 C200.83543927 70.76349633 170.23616791 69.77661159 139.5065918 65.88793945 C136.37489425 65.49208651 133.24146189 65.11314677 130.10742188 64.73632812 C118.49487979 63.31971692 106.99739893 61.58936332 95.5 59.4375 C93.31813001 59.05487924 91.13586213 58.67451757 88.953125 58.296875 C73.34877542 55.53011999 57.9983313 52.04076131 42.62402344 48.20703125 C39.25980415 47.37833328 35.88735697 46.59665389 32.50830078 45.83129883 C22.05080224 43.45528804 11.77404099 40.5016278 1.5 37.4375 C0.42395508 37.12232422 -0.65208984 36.80714844 -1.76074219 36.48242188 C-5.13848116 35.48730823 -8.5072238 34.46577593 -11.875 33.4375 C-12.926875 33.12973633 -13.97875 32.82197266 -15.0625 32.50488281 C-22.23066325 30.27062004 -28.14840497 27.68996767 -31.90625 20.89453125 C-33.19514157 15.56089442 -33.77522216 10.12426118 -31.3671875 5.05078125 C-23.01886767 -6.77236281 -12.02691036 -4.17637975 0 0 Z " fill="#FDFDFD" transform="translate(277.5,771.5625)"/>
<path d="M0 0 C1.18186734 -0.00480972 1.18186734 -0.00480972 2.38761079 -0.0097166 C5.04392449 -0.01805826 7.70001515 -0.0120778 10.35633278 -0.00622082 C12.27354253 -0.0092396 14.19075108 -0.01312771 16.10795748 -0.01781338 C21.38908884 -0.02813735 26.67015264 -0.02590041 31.95128965 -0.02163279 C37.64191968 -0.01917351 43.33253311 -0.02816978 49.02315712 -0.03567028 C60.1767088 -0.04844168 71.33023644 -0.05020793 82.4837942 -0.04787002 C91.54686628 -0.04608939 100.60993104 -0.04783101 109.67300224 -0.05209446 C111.60540526 -0.05298724 111.60540526 -0.05298724 113.57684673 -0.05389806 C116.19369121 -0.05510977 118.81053568 -0.05632391 121.42738016 -0.05754044 C139.00677358 -0.06533171 156.58616309 -0.06924394 174.16555786 -0.06522369 C174.85327251 -0.06506732 175.54098715 -0.06491094 176.24954164 -0.06474983 C179.73528598 -0.06394402 183.22103031 -0.06309825 186.70677464 -0.06223653 C187.74522524 -0.06197989 187.74522524 -0.06197989 188.80465464 -0.06171808 C190.20465499 -0.06137142 191.60465533 -0.06102289 193.00465568 -0.06067249 C214.78983562 -0.05531499 236.57497509 -0.06324551 258.36014748 -0.08170605 C282.82687727 -0.10241454 307.29357777 -0.11311985 331.76031744 -0.10913056 C344.71831539 -0.10721535 357.67627647 -0.1097371 370.63426781 -0.1238451 C381.66569436 -0.13573366 392.69706134 -0.13719224 403.72848867 -0.12505493 C409.35953946 -0.11914842 414.99048116 -0.11811562 420.62152481 -0.13005733 C425.77332673 -0.14085598 430.92492768 -0.1378849 436.07671995 -0.12379565 C437.94345107 -0.12113204 439.81019764 -0.123567 441.67691366 -0.13153151 C444.20928714 -0.14158868 446.74095541 -0.1332577 449.27330017 -0.12025452 C450.36697291 -0.13121854 450.36697291 -0.13121854 451.48274004 -0.14240405 C457.52363759 -0.07786384 462.38852465 1.7905838 466.63749123 6.12947559 C470.13652428 10.44801902 469.99099129 14.85272444 469.70780373 20.22713184 C468.87227484 25.90726241 466.46627529 28.20403521 462.26395607 31.87104321 C455.34383476 36.05766838 446.55611655 34.94038609 438.73905373 34.88939381 C436.82393592 34.89515671 434.90882364 34.90309896 432.99372292 34.91303003 C427.73676168 34.9339033 422.48025427 34.92358581 417.2232914 34.90809894 C411.55175641 34.89679142 405.88029975 34.91424519 400.20878029 34.92799854 C389.10051089 34.9502418 377.99241033 34.94542485 366.88413429 34.93093534 C357.85691885 34.91964741 348.82975076 34.91811028 339.80253029 34.92355442 C337.87596942 34.92470367 337.87596942 34.92470367 335.91048813 34.92587613 C333.30137824 34.92747475 330.69226836 34.92909581 328.08315849 34.93073909 C304.31020933 34.94459319 280.53736246 34.9302214 256.76442957 34.9040261 C235.06581745 34.88029831 213.36735206 34.88242146 191.66874123 34.90633106 C167.2861754 34.93310835 142.90370942 34.94362646 118.5211277 34.92826974 C115.9215692 34.92667698 113.32201069 34.92510513 110.72245216 34.92355442 C108.80385982 34.92239735 108.80385982 34.92239735 106.84650803 34.92121691 C97.82922459 34.91689821 88.81199317 34.92419016 79.79471779 34.93595219 C68.80695001 34.94996933 57.81936084 34.94619359 46.83161354 34.91954847 C41.22452907 34.9063999 35.6177425 34.90127591 30.01066017 34.91779423 C24.87851243 34.93268484 19.74693895 34.9245198 14.61484337 34.89790647 C12.75762309 34.89231779 10.90035438 34.89517059 9.04316521 34.90728541 C-8.14088743 35.01078821 -8.14088743 35.01078821 -14.73750877 29.25447559 C-18.54468099 25.44730338 -19.10582726 22.09478106 -19.42500877 16.87947559 C-19.254931 10.92675355 -17.83285572 7.90731112 -13.65938377 3.74275684 C-9.21636319 0.30212505 -5.52633617 -0.03311057 0 0 Z " fill="#FDFDFD" transform="translate(286.7375087738037,699.7455244064331)"/>
</svg>
