<?xml version="1.0" encoding="UTF-8"?>
<svg version="1.1" xmlns="http://www.w3.org/2000/svg" width="1024" height="1024">
<path d="M0 0 C1.43329147 -0.00810448 1.43329147 -0.00810448 2.89553833 -0.01637268 C6.03281268 -0.02881125 9.16916065 -0.01240226 12.30639648 0.00561523 C14.49779814 0.00546015 16.68920006 0.00396955 18.88059998 0.00120544 C23.46430649 -0.00017633 28.04769925 0.01234372 32.63134766 0.03515625 C38.49791786 0.06355667 44.36396771 0.06079586 50.23057652 0.04806614 C54.75254234 0.04110206 59.2743885 0.04890637 63.79633904 0.06132317 C65.95922321 0.06582936 68.12212026 0.06618176 70.28500557 0.06225777 C73.31006211 0.05933802 76.33440836 0.07588896 79.359375 0.09765625 C80.69135674 0.09090378 80.69135674 0.09090378 82.05024719 0.08401489 C88.23154817 0.15768385 93.22748138 1.02259282 98.07592773 5.18530273 C98.77588867 6.05348633 98.77588867 6.05348633 99.48999023 6.93920898 C100.2131543 7.80352539 100.2131543 7.80352539 100.95092773 8.68530273 C107.12773878 18.32361527 103.11499023 43.35942406 103.11499023 46.50170898 C129.18499023 46.50170898 155.25499023 46.50170898 182.11499023 46.50170898 C182.11499023 35.28170898 182.11499023 24.06170898 182.11499023 12.50170898 C185.96405726 5.76584169 187.95453291 2.88852809 195.11499023 0.50170898 C196.7589781 0.40373099 198.40662679 0.36247685 200.05351257 0.35453796 C201.07260208 0.34738266 202.09169159 0.34022736 203.1416626 0.33285522 C204.81781647 0.32882187 204.81781647 0.32882187 206.52783203 0.32470703 C207.70535538 0.31813583 208.88287872 0.31156464 210.09608459 0.30479431 C214.00211946 0.28504586 217.90814088 0.27339215 221.81420898 0.26342773 C223.1609124 0.259379 224.50761562 0.25526205 225.85431862 0.25107765 C232.18359807 0.23202862 238.51286591 0.21779848 244.84216851 0.20946568 C252.1371909 0.19970191 259.43190917 0.17340404 266.72682446 0.13296479 C272.37197644 0.10275017 278.01704152 0.08799166 283.66227275 0.08468467 C287.03063352 0.08233973 290.39866929 0.07345309 293.76694298 0.0482235 C297.52993319 0.02387461 301.29213089 0.02479006 305.05517578 0.03173828 C306.16249054 0.01892822 307.2698053 0.00611816 308.41067505 -0.00708008 C314.81970449 0.0359935 319.79848277 0.73297238 325.11499023 4.50170898 C336.07723959 16.02612497 330.11499023 29.02150881 330.11499023 46.50170898 C356.18499023 46.50170898 382.25499023 46.50170898 409.11499023 46.50170898 C409.11499023 35.94170898 409.11499023 25.38170898 409.11499023 14.50170898 C412.51022601 6.57949216 412.51022601 6.57949216 415.55249023 4.12670898 C416.12870117 3.64459961 416.70491211 3.16249023 417.29858398 2.66577148 C420.4573607 0.64143716 423.61047898 0.37656317 427.30059814 0.35453796 C428.12753677 0.34738266 428.9544754 0.34022736 429.80647278 0.33285522 C430.70524643 0.33016632 431.60402008 0.32747742 432.5300293 0.32470703 C433.48336655 0.31813583 434.4367038 0.31156464 435.41893005 0.30479431 C438.57282594 0.28508929 441.72667428 0.27340505 444.88061523 0.26342773 C445.95918541 0.25935221 447.03775558 0.25527668 448.1490097 0.25107765 C453.85755725 0.23022908 459.56608084 0.21592196 465.2746582 0.20654297 C471.16367479 0.19547968 477.05231342 0.16107689 482.94119644 0.12137127 C487.47604057 0.0951992 492.01079469 0.0868506 496.5457077 0.08326149 C498.71616926 0.07839729 500.88662685 0.06678812 503.05701447 0.0482235 C506.09910369 0.02381952 509.14021545 0.0247996 512.18237305 0.03173828 C513.07304977 0.01892822 513.9637265 0.00611816 514.88139343 -0.00708008 C520.71624976 0.04125601 525.4091819 0.87536054 530.11499023 4.50170898 C535.86692016 10.36694266 535.83219748 16.93333065 535.76196289 24.75756836 C535.77072449 25.96508255 535.77948608 27.17259674 535.78851318 28.41670227 C535.80667319 31.70832692 535.80252495 34.99893625 535.78661776 38.29054451 C535.77389134 41.7474684 535.78571746 45.20432812 535.79354858 48.66125488 C535.80262571 54.46480347 535.79070862 60.26803312 535.7668457 66.0715332 C535.73963767 72.76555171 535.74845324 79.4588086 535.77597773 86.15280867 C535.79872354 91.91701983 535.80184237 97.68100273 535.78878438 103.44524431 C535.78101968 106.88058981 535.77986512 110.31557821 535.79646683 113.75090027 C535.80919404 117.5830705 535.78976793 121.41378736 535.76196289 125.24584961 C535.77208405 126.37336136 535.7822052 127.50087311 535.79263306 128.66255188 C535.700052 135.56522997 534.62024737 140.16743832 530.11499023 145.50170898 C527.67749023 147.86499023 527.67749023 147.86499023 525.11499023 149.81420898 C520.86872284 153.13017855 516.70909251 156.50193146 512.61499023 160.00170898 C507.7667453 164.12428388 502.86334204 168.17165519 497.92749023 172.18920898 C494.79699047 174.76317546 491.70337998 177.37753063 488.61499023 180.00170898 C473.08361289 193.18929388 473.08361289 193.18929388 468.11499023 196.50170898 C467.64528557 198.61313249 467.64528557 198.61313249 467.69836044 201.10492516 C467.68190342 202.08092403 467.66544639 203.0569229 467.64849067 204.0624975 C467.64563316 205.14260178 467.64277565 206.22270606 467.63983154 207.33554077 C467.6179947 209.04806359 467.6179947 209.04806359 467.59571671 210.79518282 C467.55858435 213.97467946 467.53510581 217.15394101 467.51758957 220.33359599 C467.50012472 223.05919222 467.4715314 225.78462465 467.44276175 228.51012151 C467.34786246 237.50112144 467.28835784 246.49220705 467.23771799 255.48355144 C467.22441125 257.82953362 467.2104715 260.17551124 467.19635487 262.52148867 C467.10907145 277.11499825 467.03370325 291.70853423 466.98778915 306.30223656 C466.97696152 309.68562243 466.96599386 313.06900779 466.95483398 316.45239258 C466.95068983 317.71368093 466.95068983 317.71368093 466.94646195 319.00044985 C466.89999274 332.56185173 466.78481113 346.12175493 466.64098617 359.68243758 C466.49422618 373.63602823 466.41310752 387.58885608 466.39347482 401.54321253 C466.38081997 409.36545894 466.34004716 417.18527578 466.22588348 425.00675583 C464.17322646 468.37022512 464.17322646 468.37022512 482.889534 505.85573196 C493.11499023 518.01338385 493.11499023 518.01338385 493.11499023 523.50170898 C493.7556543 523.57647461 494.39631836 523.65124023 495.05639648 523.72827148 C501.51609772 524.71022309 505.84622369 526.43254871 510.11499023 531.50170898 C512.5664962 535.20825142 512.38461656 538.91899357 512.34204102 543.20776367 C512.34233307 543.97887985 512.34262512 544.74999603 512.34292603 545.54447937 C512.34153516 548.08762959 512.32598551 550.63048508 512.31030273 553.17358398 C512.30657174 554.93906494 512.30372517 556.70454797 512.30172729 558.47003174 C512.29409766 563.1126682 512.27445491 567.75517917 512.25231934 572.39776611 C512.23184649 577.13682355 512.2227225 581.8759013 512.21264648 586.61499023 C512.1912084 595.91061823 512.15708051 605.20615317 512.11499023 614.50170898 C512.74646469 614.49504715 513.37793915 614.48838531 514.02854919 614.48152161 C520.63144819 614.41488634 527.23425083 614.36979173 533.83740234 614.33691406 C536.29805383 614.32187558 538.75867872 614.30143956 541.21923828 614.27539062 C544.76658715 614.23879042 548.31358 614.22193264 551.86108398 614.20874023 C552.95206894 614.19325638 554.04305389 614.17777252 555.167099 614.16181946 C562.93464996 614.16012773 569.73160367 614.85384124 575.98999023 619.75170898 C580.30369038 625.33414446 581.48984793 630.06912941 581.51904297 637.05419922 C581.52933784 638.13373367 581.52933784 638.13373367 581.5398407 639.2350769 C581.55801278 641.59369115 581.5542852 643.9516341 581.54858398 646.31030273 C581.55315042 647.96265374 581.55845737 649.61500286 581.56446838 651.26734924 C581.57338065 654.72290789 581.57099798 658.1782352 581.56103516 661.63378906 C581.54954798 666.04648993 581.56976223 670.45839023 581.59895229 674.87098598 C581.61736106 678.28124504 581.61701257 681.69131388 581.61131477 685.10161018 C581.61116213 686.72779526 581.61715919 688.3539937 581.62960625 689.98013115 C581.73348716 705.77514913 581.73348716 705.77514913 577.11499023 712.50170898 C570.91931779 718.53851804 565.04275207 718.79343117 556.80809307 718.75897789 C555.22778175 718.764237 555.22778175 718.764237 553.61554495 718.76960236 C550.06165323 718.77895569 546.50792397 718.77398286 542.95402527 718.76913452 C540.38978434 718.77286879 537.82554455 718.77746942 535.26130658 718.78286517 C529.67390323 718.79317976 524.08653455 718.79600643 518.49912262 718.79395294 C510.19040023 718.79090675 501.88171629 718.79921845 493.57300137 718.80970219 C477.87111427 718.82906048 462.16924021 718.83467109 446.46734258 718.83581631 C434.3431941 718.83673481 422.21905076 718.84084843 410.09490395 718.84721756 C406.60707341 718.8490126 403.11924287 718.85079223 399.63141233 718.85256732 C398.3308461 718.85323046 398.3308461 718.85323046 397.0040058 718.853907 C372.61021846 718.86621821 348.21643291 718.87410784 323.82264233 718.87322044 C322.90263507 718.87318929 321.98262782 718.87315813 321.03474156 718.87312603 C316.37158574 718.87295981 311.70842992 718.87276173 307.0452741 718.87255661 C306.11912691 718.87251672 305.19297971 718.87247683 304.23876745 718.87243573 C302.36587159 718.87235486 300.49297573 718.87227126 298.62007987 718.87218495 C269.47700595 718.87095928 240.33397857 718.88597445 211.19091797 718.91333008 C178.46155511 718.94403926 145.73222282 718.96126328 113.00284463 718.95940363 C109.51407103 718.95925437 106.02529743 718.95915696 102.53652382 718.959095 C101.24795225 718.95906004 101.24795225 718.95906004 99.93334893 718.95902437 C86.09833941 718.95896278 72.26337022 718.9717442 58.4283727 718.98895953 C44.528172 719.00589848 30.62803043 719.0079035 16.72782513 718.99474089 C8.46659727 718.98734014 0.20554882 718.99104312 -8.0556601 719.01062557 C-14.2193683 719.02400342 -20.38288426 719.01654534 -26.54658338 719.00087912 C-29.0438691 718.9977916 -31.54117411 719.00150693 -34.03843711 719.01259927 C-37.4261429 719.02665376 -40.81291573 719.01618533 -44.20058918 718.99948692 C-45.1760467 719.00942328 -46.15150422 719.01935964 -47.15652105 719.0295971 C-53.22465519 718.96611783 -57.81879778 717.95697301 -62.88500977 714.50170898 C-68.03045487 709.22085743 -69.13398178 704.4087342 -69.15966797 697.16040039 C-69.1647789 696.43939651 -69.16988983 695.71839264 -69.17515564 694.97554016 C-69.18901082 692.60136522 -69.18809781 690.22748195 -69.18579102 687.85327148 C-69.18968053 686.19566745 -69.19401573 684.53806441 -69.19877625 682.88046265 C-69.20622994 679.40880094 -69.20595361 675.93724094 -69.20068359 672.46557617 C-69.19489372 668.02819672 -69.21181225 663.59123532 -69.23502827 659.15392494 C-69.24979899 655.73086128 -69.25063271 652.30789748 -69.24751854 648.88480759 C-69.24803019 647.24942574 -69.25323858 645.61403807 -69.26333046 643.97868729 C-69.27574109 641.6861219 -69.26887598 639.39436028 -69.25732422 637.10180664 C-69.25795364 635.800065 -69.25858307 634.49832336 -69.25923157 633.15713501 C-68.71470984 627.83820684 -67.06125019 624.02390248 -63.76000977 619.75170898 C-56.55522625 614.11318275 -48.45507605 614.08350558 -39.63110352 614.20874023 C-38.48964371 614.21298508 -37.3481839 614.21722992 -36.1721344 614.22160339 C-32.55534467 614.23828747 -28.93912879 614.27592132 -25.32250977 614.31420898 C-22.85832515 614.32926906 -20.39413173 614.34295514 -17.92993164 614.35522461 C-11.91476457 614.38815733 -5.89992818 614.4382537 0.11499023 614.50170898 C0.10610779 613.52531464 0.09722534 612.54892029 0.08807373 611.54293823 C0.00691823 602.33256653 -0.05300856 593.12226757 -0.09225845 583.91161919 C-0.11311581 579.17652334 -0.14139956 574.44171659 -0.18676758 569.70678711 C-0.23029149 565.1356129 -0.2541608 560.56471644 -0.26451874 555.99335098 C-0.27189837 554.25104527 -0.28630923 552.50875442 -0.30792999 550.76656723 C-0.33705166 548.32231789 -0.34096221 545.87920992 -0.33911133 543.43481445 C-0.35349243 542.71767776 -0.36787354 542.00054108 -0.38269043 541.26167297 C-0.33228728 535.09296478 2.05057822 531.626839 6.23999023 527.31420898 C9.0940897 525.51488541 10.6342139 525.19090552 13.86108398 524.57983398 C19.69293915 522.87095251 21.57002308 519.75176549 24.43334961 514.58569336 C24.96766602 513.54735352 25.50198242 512.50901367 26.05249023 511.43920898 C27.14190389 509.42584547 28.23445174 507.41417525 29.32983398 505.40405273 C29.87234488 504.36042792 30.41485577 503.31680311 30.97380638 502.24155331 C32.41124856 499.60333401 34.00899832 497.25305359 35.84084511 494.87350559 C45.80144888 481.43887831 45.68542894 468.77720425 45.53833008 452.53076172 C45.54722037 449.74461698 45.57246917 446.95867015 45.59674072 444.17262268 C45.64529964 437.43386291 45.63525559 430.69646097 45.60320167 423.95765101 C45.57823562 418.47988026 45.57504293 413.00248685 45.58696365 407.52467537 C45.58864922 406.7415101 45.59033478 405.95834483 45.59207142 405.15144728 C45.59558875 403.55997837 45.5991551 401.96850957 45.60276993 400.37704087 C45.63402794 385.50592004 45.59823526 370.63554905 45.5389659 355.76455123 C45.48974221 343.01925566 45.49844021 330.27506132 45.54907227 317.52978516 C45.60798384 302.69360559 45.63109888 287.85807885 45.59733737 273.02179867 C45.5938336 271.43933278 45.59037552 269.8568668 45.58696365 268.27440071 C45.58526662 267.49596958 45.58356959 266.71753845 45.58182114 265.9155185 C45.572343 260.44310099 45.58830978 254.97109987 45.61423874 249.49874687 C45.64513701 242.83189019 45.63664656 236.16645733 45.57815056 229.49976312 C45.54930939 226.10135425 45.53778736 222.70531607 45.57429123 219.30692673 C46.48626822 205.39583086 46.48626822 205.39583086 41.6955452 192.96098518 C38.91790947 190.65402503 36.34747554 189.07693306 33.11499023 187.50170898 C31.18292809 185.98740292 31.18292809 185.98740292 29.58374023 184.53295898 C24.63035781 180.30954871 19.66375932 176.11117219 14.61499023 172.00170898 C10.01615066 168.25846747 5.48442899 164.44311462 0.96850586 160.60083008 C-3.44586014 156.8523108 -7.92924687 153.19489692 -12.44750977 149.57202148 C-22.33181086 141.17670165 -22.33181086 141.17670165 -23.26811981 134.95664501 C-23.27184853 134.04985154 -23.27557724 133.14305807 -23.27941895 132.20878601 C-23.29076874 131.16170471 -23.30211853 130.11462341 -23.31381226 129.03581238 C-23.30941635 127.32836601 -23.30941635 127.32836601 -23.30493164 125.58642578 C-23.31340118 124.37934967 -23.32187073 123.17227356 -23.33059692 121.92861938 C-23.34996929 118.62458246 -23.3557452 115.32111072 -23.35384941 112.01705527 C-23.35372952 109.25385105 -23.36230149 106.49069936 -23.37062693 103.7275098 C-23.38985056 97.20437178 -23.39274918 90.68136171 -23.38598633 84.15820312 C-23.37935113 77.44213328 -23.40219058 70.72661343 -23.43930006 64.01065511 C-23.47005525 58.23379956 -23.48135068 52.45712038 -23.47746325 46.68018466 C-23.47540113 43.23469237 -23.48079014 39.78962783 -23.50535583 36.34421349 C-23.5318761 32.49765094 -23.51785066 28.65180118 -23.50024414 24.80517578 C-23.51350739 23.6729509 -23.52677063 22.54072601 -23.54043579 21.37419128 C-23.46866802 14.61576949 -22.76450248 9.46769481 -17.88500977 4.50170898 C-12.37969435 0.26764068 -6.7320177 -0.07346232 0 0 Z " fill="#000000" transform="translate(255.885009765625,193.498291015625)"/>
<path d="M0 0 C0.89596748 -0.00320648 1.79193496 -0.00641296 2.71505296 -0.0097166 C5.73893551 -0.01806544 8.76262251 -0.01207527 11.78650856 -0.00622082 C13.96770535 -0.00923928 16.14890109 -0.01312721 18.33009493 -0.01781338 C24.3409245 -0.02814157 30.35169474 -0.02589934 36.36252928 -0.02163279 C42.8384418 -0.01917427 49.31433972 -0.02816882 55.79024696 -0.03567028 C68.48385906 -0.04886851 81.17745231 -0.05021353 93.87106989 -0.04787002 C104.18509525 -0.04603887 114.49911439 -0.04779322 124.81313896 -0.05209446 C126.29383775 -0.05269685 127.77453653 -0.05329805 129.25523532 -0.05389806 C131.48638698 -0.0548053 133.71753865 -0.05571396 135.94869031 -0.05663041 C156.69903968 -0.0650628 177.4493867 -0.06939368 198.19973755 -0.06522369 C199.3736641 -0.06498913 199.3736641 -0.06498913 200.57130635 -0.06474983 C204.53810984 -0.06394402 208.50491332 -0.06309825 212.47171681 -0.06223653 C213.25956535 -0.06206544 214.04741389 -0.06189435 214.85913662 -0.06171808 C216.4523587 -0.06137142 218.04558077 -0.06102289 219.63880284 -0.06067249 C244.43151121 -0.05531481 269.22418402 -0.06324586 294.01688576 -0.08170605 C321.85882734 -0.10241226 349.70074688 -0.11315138 377.5426966 -0.10913056 C380.5101939 -0.1087352 383.47769121 -0.10837366 386.44518852 -0.10803318 C387.54123262 -0.10789708 387.54123262 -0.10789708 388.65941902 -0.10775824 C399.70036094 -0.10659121 410.74128065 -0.11324854 421.78221703 -0.1238451 C434.33610978 -0.13588129 446.88995002 -0.13719539 459.44384359 -0.12505493 C465.85259201 -0.11914647 472.26124456 -0.11812095 478.66998672 -0.13005733 C484.53234256 -0.14084944 490.3945217 -0.13789277 496.25686903 -0.12379565 C498.3820103 -0.12113022 500.50716512 -0.12357257 502.63229315 -0.13153151 C505.51317004 -0.14157518 508.3934253 -0.13326896 511.27427673 -0.12025452 C512.10607 -0.12756386 512.93786327 -0.13487321 513.79486239 -0.14240405 C519.53176198 -0.08840718 523.79906913 0.95482591 528.13797951 5.00447559 C529.77216195 8.27284048 529.63669694 10.64187379 529.26297951 14.25447559 C527.96881023 17.99318685 527.04723226 19.74873962 523.70723677 21.9025808 C519.39784969 23.59404503 515.86273649 23.67193982 511.27986336 23.63479233 C510.38158819 23.63945225 509.48331303 23.64411217 508.5578174 23.64891329 C505.53804432 23.66089499 502.51871852 23.65145551 499.49894142 23.64215565 C497.31601706 23.64632716 495.13309487 23.65180366 492.95017672 23.65847546 C486.94384094 23.67297254 480.93764189 23.66867202 474.93129849 23.66130865 C468.45677785 23.65658986 461.98228734 23.66907533 455.50777626 23.67932606 C443.5547521 23.69614268 431.60176949 23.69795424 419.64873628 23.69302107 C408.60684045 23.6884661 397.56496088 23.68906032 386.52306557 23.69486141 C385.0426405 23.69561827 383.56221543 23.69637425 382.08179036 23.69712936 C379.85100648 23.69827453 377.6202226 23.69942441 375.38943873 23.7005886 C354.64694413 23.71129527 333.90445495 23.71601706 313.16195869 23.70811844 C312.37987302 23.70782127 311.59778735 23.70752409 310.79200212 23.70721791 C304.44066527 23.70476891 298.0893285 23.70215736 291.73799173 23.69953378 C266.95837208 23.68942939 242.17882018 23.6977897 217.39920998 23.72102833 C189.56677119 23.74708763 161.73437319 23.75995255 133.90192175 23.75284058 C130.93557899 23.7521245 127.96923622 23.75145011 125.00289345 23.75080013 C124.27249038 23.75063032 123.54208732 23.75046051 122.78955083 23.75028556 C111.75388894 23.74798057 100.71826487 23.755969 89.68261147 23.76909161 C77.13607171 23.7839841 64.58962708 23.78449568 52.04308903 23.76702069 C45.63835185 23.75847927 39.23378434 23.75643769 32.82905579 23.77167225 C26.97043064 23.78543567 21.11212188 23.78086419 15.25351542 23.76143301 C13.12978067 23.75764697 11.00602108 23.76066916 8.8823083 23.77104466 C6.0031851 23.78411475 3.12517015 23.77272038 0.24609566 23.75504684 C-0.58512591 23.76469736 -1.41634749 23.77434787 -2.27275759 23.78429082 C-7.54308362 23.71752188 -10.55721076 22.75338219 -14.73702049 19.25447559 C-17.0550714 15.35593544 -17.2158059 11.72313939 -16.73702049 7.25447559 C-12.39414623 0.27485624 -7.7642636 -0.04080868 0 0 Z " fill="#FCFCFC" transform="translate(255.7370204925537,313.7455244064331)"/>
<path d="M0 0 C1.22745343 -0.00480972 1.22745343 -0.00480972 2.4797039 -0.0097166 C5.23939609 -0.01806047 7.99887372 -0.01207702 10.75856972 -0.00622082 C12.75002582 -0.0092395 14.74148076 -0.01312756 16.73293364 -0.01781338 C22.21929255 -0.02813865 27.70558644 -0.02590008 33.1919508 -0.02163279 C39.1034415 -0.01917375 45.01491622 -0.02816948 50.92640114 -0.03567028 C62.5130946 -0.04844233 74.09976634 -0.0502137 85.68646549 -0.04787002 C95.10136811 -0.04603868 104.51626392 -0.0477936 113.9311657 -0.05209446 C115.2829083 -0.05269686 116.63465091 -0.05329805 117.98639352 -0.05389806 C120.02324567 -0.0548053 122.06009782 -0.05571396 124.09694997 -0.05663041 C143.0396906 -0.06506251 161.98242866 -0.06939388 180.9251709 -0.06522369 C181.63957703 -0.06506732 182.35398316 -0.06491094 183.09003796 -0.06474983 C186.71108019 -0.06394402 190.33212241 -0.06309825 193.95316462 -0.06223653 C194.67233794 -0.06206544 195.39151125 -0.06189435 196.1324777 -0.06171808 C197.58682166 -0.06137142 199.04116561 -0.06102289 200.49550957 -0.06067249 C223.12655683 -0.05531494 245.75756513 -0.06324562 268.38860512 -0.08170605 C293.80461235 -0.10241384 319.22059544 -0.11315108 344.63661158 -0.10913056 C347.34572768 -0.1087352 350.05484378 -0.10837366 352.76395988 -0.10803318 C353.43103103 -0.10794245 354.09810217 -0.10785172 354.78538759 -0.10775824 C364.86347804 -0.10659138 374.94154415 -0.1132473 385.01962852 -0.1238451 C396.47924863 -0.1357328 407.93881139 -0.13719321 419.39843224 -0.12505493 C425.24821036 -0.11914782 431.09788347 -0.11811726 436.94765472 -0.13005733 C442.2992997 -0.14085396 447.65075119 -0.13788732 453.00238688 -0.12379565 C454.94179585 -0.12113148 456.88121969 -0.12356872 458.82061414 -0.13153151 C461.45100345 -0.14158452 464.08071324 -0.13326116 466.71107483 -0.12025452 C467.84806489 -0.13121854 467.84806489 -0.13121854 469.00802445 -0.14240405 C474.59497435 -0.08489892 478.61957019 1.20757501 482.85637856 4.87947559 C484.64063592 8.64624113 484.75041581 12.17646154 483.98137856 16.25447559 C482.04796306 19.82499769 479.89781956 21.94899526 475.98137856 23.25447559 C473.33041677 23.35359653 470.70570736 23.39562196 468.0545702 23.39148998 C466.82378241 23.39546772 466.82378241 23.39546772 465.56813022 23.39952582 C462.7949135 23.40723789 460.02174092 23.40777872 457.24851418 23.40837574 C455.24967212 23.41238909 453.25083087 23.4168271 451.25199062 23.4216553 C445.74058964 23.43364056 440.22919742 23.43927375 434.71778595 23.44383645 C428.78105729 23.44978501 422.84433915 23.46139658 416.90761757 23.47212696 C403.24054267 23.49550594 389.57346359 23.51005941 375.90637521 23.52235638 C371.17886731 23.52661041 366.45135981 23.53117611 361.7238524 23.53593969 C336.59504336 23.56119693 311.46623368 23.58324817 286.33741474 23.59566784 C280.51504133 23.59858923 274.69266794 23.60155674 268.87029457 23.60457325 C268.14692908 23.60494416 267.42356359 23.60531507 266.67827793 23.60569722 C243.21685146 23.61785694 219.75549993 23.64880826 196.29410867 23.69049477 C172.1809335 23.73326136 148.06779791 23.75990608 123.95458378 23.76514255 C120.5504224 23.76588302 117.14626108 23.76679371 113.74209976 23.76780033 C113.07211582 23.76799095 112.40213187 23.76818156 111.71184539 23.76837795 C100.92057934 23.77189435 90.12940704 23.79220499 79.33817545 23.81859697 C68.49592074 23.84471439 57.65377978 23.8520655 46.81149849 23.84149568 C40.93532223 23.8362939 35.05944471 23.83929444 29.18331146 23.86396122 C23.8074697 23.88634023 18.43214321 23.88580241 13.05629311 23.86675735 C11.10809886 23.86394138 9.1598705 23.86964372 7.2117314 23.88457029 C4.56909148 23.90358543 1.92830624 23.89195006 -0.71428967 23.87250805 C-1.47577758 23.88535727 -2.23726549 23.89820649 -3.0218288 23.91144508 C-8.78437334 23.81789366 -11.12826023 22.21044458 -15.01862144 18.25447559 C-16.74987266 14.79197316 -16.49677368 11.04039331 -16.01862144 7.25447559 C-11.99731058 0.50441807 -7.40343627 -0.0426775 0 0 Z " fill="#FBFBFB" transform="translate(278.01862144470215,802.7455244064331)"/>
<path d="M0 0 C0.74232547 -0.00350607 1.48465094 -0.00701215 2.24947113 -0.01062447 C4.75071367 -0.01996942 7.25172495 -0.01500723 9.75297737 -0.01015663 C11.55881793 -0.01389133 13.36465688 -0.01849213 15.17049325 -0.02388728 C20.14377994 -0.03615492 25.11699955 -0.03585239 30.09029794 -0.03349853 C35.44963961 -0.03309131 40.8089595 -0.04412035 46.16829109 -0.05361366 C56.67212661 -0.07024502 67.17593968 -0.07572416 77.67978726 -0.07683842 C86.21511379 -0.07778784 94.75043289 -0.08189281 103.28575706 -0.08823967 C127.4695717 -0.10585754 151.65336856 -0.11507763 175.83718966 -0.11357872 C177.14165577 -0.11349881 178.44612188 -0.1134189 179.79011726 -0.11333656 C181.74919737 -0.11321392 181.74919737 -0.11321392 183.74785484 -0.1130888 C204.92145185 -0.11227564 226.09497776 -0.13141946 247.2685542 -0.1596133 C268.9943333 -0.18831484 290.72007769 -0.20215511 312.44587624 -0.20042574 C324.64935693 -0.19976092 336.85276308 -0.20529364 349.05622673 -0.22678185 C359.44537537 -0.24495771 369.83441569 -0.24937058 380.22357331 -0.235763 C385.52656805 -0.22921529 390.82935476 -0.22918102 396.13232994 -0.2464695 C400.98442109 -0.26212568 405.83613796 -0.25941325 410.68821956 -0.24190123 C412.44593565 -0.23881484 414.20367917 -0.24252496 415.96136294 -0.25362138 C418.34691088 -0.26768721 420.73113593 -0.25720097 423.11663818 -0.24050903 C423.80243602 -0.25044539 424.48823385 -0.26038175 425.19481343 -0.27061921 C430.11012723 -0.19767874 432.90217882 1.18210646 436.68416023 4.25726891 C439.365371 8.27908505 439.49760358 11.52963282 438.68416023 16.25726891 C436.97338049 19.32904071 434.87444716 21.66212544 431.68416023 23.25726891 C429.30760507 23.35810446 426.96015301 23.3983567 424.58318138 23.39428329 C423.83978685 23.39693512 423.09639232 23.39958695 422.33047068 23.40231913 C419.81360943 23.41004176 417.29679673 23.41057243 414.77992439 23.41116905 C412.96756131 23.41518172 411.15519914 23.41961961 409.34283805 23.42444861 C404.3422486 23.43644169 399.34166881 23.44206887 394.34106779 23.44662976 C388.95579167 23.45257547 383.57052717 23.46418783 378.18525887 23.47492027 C365.17001136 23.49946722 352.15475999 23.5140744 339.13949645 23.52698034 C335.4655601 23.53069048 331.79162414 23.53466385 328.11768818 23.53873301 C305.3198433 23.56396671 282.52199784 23.58602732 259.72414207 23.59846115 C254.440958 23.60139101 249.15777395 23.60435265 243.87458992 23.60736656 C241.90484147 23.60848564 241.90484147 23.60848564 239.89530012 23.60962732 C218.61163245 23.62228729 197.3280559 23.65551767 176.04442647 23.69716839 C154.21023401 23.73954752 132.3760843 23.7631515 110.54185081 23.76838171 C98.27571565 23.7718003 86.00971087 23.78360825 73.7436161 23.81648445 C63.29951453 23.84443082 52.85557004 23.8555081 42.41143396 23.84428899 C37.08004969 23.83908855 31.74899468 23.84207891 26.41765785 23.86675453 C21.53952277 23.88914468 16.66195541 23.88858715 11.78381106 23.86955066 C10.01660789 23.86673624 8.24936704 23.87242868 6.48222473 23.8873636 C4.08362205 23.90640003 1.68705842 23.89473039 -0.71149635 23.87530136 C-1.74586368 23.89457519 -1.74586368 23.89457519 -2.80112731 23.91423839 C-8.30518585 23.81596448 -10.57307685 21.99879414 -14.31583977 18.25726891 C-16.04709098 14.79476648 -15.793992 11.04318662 -15.31583977 7.25726891 C-11.4656763 0.79449451 -7.12797094 -0.04243497 0 0 Z " fill="#FBFBFB" transform="translate(300.31583976745605,711.7427310943604)"/>
<path d="M0 0 C0.66634866 -0.00320648 1.33269731 -0.00641296 2.01923835 -0.0097166 C4.26204068 -0.0180474 6.50457811 -0.01208166 8.74738503 -0.00622082 C10.36760943 -0.0092401 11.98783241 -0.01312846 13.60805285 -0.01781338 C18.06827471 -0.02813095 22.52841653 -0.02590203 26.98864508 -0.02163279 C31.79583264 -0.01917235 36.60300059 -0.02817124 41.41018105 -0.03567028 C50.83116414 -0.0484385 60.25211875 -0.05020832 69.67310904 -0.04787002 C77.32885874 -0.04608901 84.98459977 -0.04783182 92.64034843 -0.05209446 C93.7287911 -0.05268965 94.81723377 -0.05328484 95.93865956 -0.05389806 C98.14964003 -0.05510978 100.36062051 -0.05632391 102.57160099 -0.05754044 C123.3199895 -0.06842422 144.06836177 -0.06624956 164.8167512 -0.06015559 C183.80788545 -0.05498608 202.79896841 -0.06624131 221.79009251 -0.08525381 C241.27844684 -0.10461491 260.76677689 -0.11289123 280.2551409 -0.10913056 C291.20105274 -0.10721584 302.14692092 -0.10973239 313.09282494 -0.1238451 C322.41147795 -0.13573789 331.73006044 -0.13718748 341.04871438 -0.12505493 C345.80485718 -0.11915135 350.56087084 -0.11810752 355.31700516 -0.13005733 C359.66943721 -0.14086591 364.02163154 -0.137873 368.37405224 -0.12379565 C369.95007194 -0.1211348 371.52610997 -0.12355855 373.10211174 -0.13153151 C375.24242981 -0.14160925 377.381917 -0.13324075 379.52220154 -0.12025452 C381.3062927 -0.12033704 381.3062927 -0.12033704 383.1264261 -0.12042123 C387.85416135 0.42317771 391.24516829 1.84628813 394.26194191 5.56697559 C395.62527702 8.82383168 395.8874131 10.75117728 395.38694191 14.25447559 C393.04508485 18.67798337 390.86854088 21.07829714 386.38694191 23.25447559 C383.25818729 23.63052309 383.25818729 23.63052309 379.66366005 23.63199902 C378.99754633 23.63635934 378.3314326 23.64071966 377.64513361 23.64521211 C375.40904211 23.65617624 373.17356621 23.64574142 370.93747902 23.63542652 C369.31980225 23.63888264 367.70212783 23.64364689 366.08445835 23.64960825 C361.63592732 23.66215428 357.18758887 23.65593152 352.73905706 23.6466496 C347.94280841 23.63987418 343.14659336 23.65033284 338.35035133 23.65858936 C328.95322003 23.67194501 319.55616052 23.6690408 310.15902638 23.66035144 C302.52331213 23.6535825 294.88761802 23.65265475 287.25190163 23.65592289 C286.16608108 23.65638259 285.08026054 23.65684229 283.96153635 23.65731592 C281.75586867 23.65827507 279.55020099 23.65924771 277.34453332 23.66023369 C256.65100304 23.66879295 235.9575126 23.65894505 215.26398885 23.64283259 C197.49928919 23.62942893 179.73464833 23.63175687 161.96994972 23.64558887 C141.351607 23.66163522 120.73329922 23.66796893 100.11495113 23.65875208 C97.91729483 23.65779641 95.71963851 23.6568533 93.52198219 23.65592289 C92.44062947 23.65546006 91.35927674 23.65499724 90.24515575 23.65452038 C82.61661787 23.65192766 74.9881021 23.65630758 67.35956764 23.66336155 C58.06579172 23.67176625 48.77209184 23.66951813 39.47832465 23.65351932 C34.73445369 23.64562272 29.99070961 23.64256862 25.24683952 23.65246677 C20.90682982 23.66138546 16.56706499 23.65652765 12.2270776 23.64053412 C10.65447264 23.6371743 9.08184711 23.63890724 7.50925529 23.64616148 C5.37594832 23.65524976 3.24348625 23.64596317 1.11022377 23.63199902 C-0.07597022 23.63151196 -1.26216421 23.6310249 -2.48430347 23.63052309 C-7.38790185 23.04115572 -9.83136234 21.20518664 -12.92555809 17.44197559 C-14.81449885 13.87397638 -15.27373595 12.21854278 -14.61305809 8.25447559 C-10.85203092 1.26971084 -7.71821047 0.00562622 0 0 Z " fill="#FBFBFB" transform="translate(321.61305809020996,370.7455244064331)"/>
<path d="M0 0 C1.00285734 -0.00525911 1.00285734 -0.00525911 2.02597442 -0.01062447 C4.28235494 -0.01998145 6.53847978 -0.01500421 8.79487133 -0.01015663 C10.42248264 -0.01389074 12.05009215 -0.0184913 13.67769879 -0.02388728 C18.16297915 -0.03616243 22.64818518 -0.03585152 27.13347852 -0.03349853 C31.96590832 -0.03309149 36.79831392 -0.04411864 41.63073254 -0.05361366 C51.10331852 -0.07024956 60.57587963 -0.07572438 70.048479 -0.07683842 C77.74620571 -0.07778771 85.44392419 -0.08189201 93.14164829 -0.08823967 C114.95185777 -0.10585944 136.76204753 -0.11507744 158.57226417 -0.11357872 C159.74885487 -0.11349881 160.92544558 -0.1134189 162.13769054 -0.11333656 C163.90472425 -0.11321392 163.90472425 -0.11321392 165.7074556 -0.1130888 C184.80213126 -0.11227578 203.89672806 -0.13141565 222.99138091 -0.1596133 C242.58366549 -0.18831817 262.17591159 -0.2021549 281.76821774 -0.20042574 C292.77340599 -0.19976099 303.77851157 -0.20529038 314.78368092 -0.22678185 C324.15360861 -0.24496218 333.52341619 -0.24936696 342.89335386 -0.235763 C347.67585641 -0.2292173 352.45812832 -0.2291737 357.24060917 -0.2464695 C361.61719536 -0.26213484 365.99336678 -0.25940392 370.36994245 -0.24190123 C371.95474225 -0.23881684 373.5395725 -0.2425176 375.1243364 -0.25362138 C377.27672397 -0.26770556 379.42764916 -0.25718756 381.57998657 -0.24050903 C383.37400413 -0.24116114 383.37400413 -0.24116114 385.20426446 -0.24182642 C389.1702748 0.36266982 391.34843941 1.79751118 394.478755 4.25726891 C396.83117846 7.46511909 396.9471759 10.35376142 396.478755 14.25726891 C394.43881591 17.91509071 392.97456238 19.92673065 389.478755 22.25726891 C386.57274926 22.51026857 386.57274926 22.51026857 382.93909931 22.51453781 C382.26853978 22.51804389 381.59798025 22.52154996 380.90710074 22.52516228 C378.64396775 22.53451942 376.38108966 22.52954198 374.11794567 22.52469444 C372.48549688 22.52842854 370.85304988 22.53302909 369.22060573 22.53842509 C364.72199324 22.55070029 360.22345487 22.55038933 355.72482944 22.54803634 C350.87810374 22.54762931 346.03140216 22.55865637 341.18468761 22.56815147 C331.68436316 22.58478709 322.18406352 22.59026217 312.68372573 22.59137623 C304.96406061 22.59232547 297.2444037 22.59642955 289.52474117 22.60277748 C267.65412852 22.62039671 245.78353552 22.62961526 223.91291572 22.62811653 C222.14315509 22.62799666 222.14315509 22.62799666 220.33764172 22.62787437 C219.15636632 22.62779261 217.97509093 22.62771085 216.75801931 22.62762661 C197.60770272 22.62681347 178.45746473 22.64595649 159.30717088 22.67415111 C139.65952054 22.7028505 120.01190856 22.71669303 100.36423671 22.71496356 C89.32722238 22.71429864 78.29029045 22.71983511 67.25329494 22.74131966 C57.85698834 22.75949274 48.4608015 22.76391075 39.06448497 22.75030081 C34.2679297 22.74375159 29.47160443 22.74372412 24.67507076 22.76100731 C20.28681782 22.77665711 15.8989788 22.77395789 11.51073645 22.75643905 C9.92057091 22.7533512 8.3303751 22.75706818 6.74024524 22.7681592 C4.58302233 22.78221283 2.42726499 22.77174957 0.27009296 22.75504684 C-1.52905082 22.75569895 -1.52905082 22.75569895 -3.36454093 22.75636423 C-7.15350165 22.15730504 -8.79211724 20.89596059 -11.521245 18.25726891 C-13.80978495 14.98792613 -13.99286718 12.18745371 -13.521245 8.25726891 C-9.92835662 1.81484835 -7.29899749 0.00860141 0 0 Z " fill="#FEFEFE" transform="translate(320.5212450027466,666.7427310943604)"/>
</svg>
