<?xml version="1.0" encoding="UTF-8"?>
<svg version="1.1" xmlns="http://www.w3.org/2000/svg" width="1024" height="1024">
<path d="M0 0 C18.93769457 -0.51593078 38.04569688 5.65023978 52.0625 18.55859375 C53.96893403 20.38472461 55.82847951 22.24562175 57.6875 24.12109375 C58.35523438 24.7553125 59.02296875 25.38953125 59.7109375 26.04296875 C72.88426035 39.51433058 77.34542604 59.37671916 77.15625 77.56274414 C76.44433521 100.04553224 66.60821255 117.67641579 50.6875 133.12109375 C51.47640625 133.34925781 52.2653125 133.57742187 53.078125 133.8125 C57.75593786 135.50846029 62.04246605 137.73793226 66.4375 140.05859375 C67.36199951 140.54585937 68.28649902 141.033125 69.23901367 141.53515625 C98.23396395 156.98985956 125.84510392 176.39065636 148.6875 200.12109375 C149.5125 200.94609375 150.3375 201.77109375 151.1875 202.62109375 C152.0125 203.44609375 152.8375 204.27109375 153.6875 205.12109375 C154.31914063 205.71792969 154.95078125 206.31476563 155.6015625 206.9296875 C161.81534006 212.91291854 167.08649151 219.40410414 172.28027344 226.26513672 C173.65744959 228.08146099 175.05095639 229.88435079 176.4453125 231.6875 C197.93512375 259.83574894 213.18021801 294.09760854 218.6875 329.12109375 C218.85886475 330.19085449 218.85886475 330.19085449 219.03369141 331.28222656 C225.13716453 371.26675718 218.31105441 416.01815743 194.625 449.51171875 C193.985625 450.3728125 193.34625 451.23390625 192.6875 452.12109375 C192.11 452.9203125 191.5325 453.71953125 190.9375 454.54296875 C180.73246403 468.0030593 167.25436897 481.96260656 151.6875 489.12109375 C152.47060547 489.96027344 152.47060547 489.96027344 153.26953125 490.81640625 C173.96144559 513.35646004 187.40304733 536.8778609 191.15234375 567.69140625 C191.80502213 571.87426475 193.03429732 575.23966136 194.6875 579.12109375 C198.88538421 594.61876216 196.15078809 616.04228067 188.84375 630.32421875 C173.16317169 654.69268504 131.75018292 665.1508667 105.6875 671.12109375 C96.72411769 672.98697826 87.71532846 674.60080829 78.6875 676.12109375 C100.13868277 681.0232279 122.73393353 682.37490813 144.6875 683.12109375 C146.27062988 683.17861816 146.27062988 683.17861816 147.88574219 683.23730469 C162.60097259 683.76038673 177.31624689 684.11364663 192.0390625 684.3359375 C269.33749366 685.50669332 269.33749366 685.50669332 300.6875 691.12109375 C301.56954102 691.27884277 302.45158203 691.4365918 303.36035156 691.59912109 C323.21747949 695.40264004 342.33784591 705.42134128 358.6875 717.12109375 C359.68136719 717.82492187 360.67523437 718.52875 361.69921875 719.25390625 C369.72569169 725.10851004 377.26812041 731.52339651 384.6875 738.12109375 C385.44675781 738.79398438 386.20601562 739.466875 386.98828125 740.16015625 C392.28093365 745.12414287 395.82619477 750.32576395 396.125 757.74609375 C395.6582668 766.04828727 390.17676634 772.25075437 384.6875 778.12109375 C369.43055115 791.39302354 353.44636322 794.19119566 333.86914062 793.37695312 C323.98976315 792.58247894 314.3717479 789.73396133 305.0234375 786.55078125 C295.88106264 783.45547279 286.31233164 782.07820998 276.75 780.99609375 C276.08427979 780.92060303 275.41855957 780.8451123 274.73266602 780.76733398 C261.35264898 779.36928061 248.02768793 778.98013907 234.58984375 779.05517578 C232.94484605 779.06038672 231.29984667 779.0650912 229.65484619 779.06933594 C226.14328471 779.07918508 222.63175166 779.09199976 219.12020874 779.10705948 C213.53172886 779.13044196 207.94325217 779.14352257 202.35473633 779.15475464 C186.47277144 779.18791699 170.59086029 779.22930202 154.70898438 779.29248047 C145.91308847 779.32738422 137.11723278 779.35094401 128.32127476 779.3626889 C123.69260922 779.36935525 119.06411513 779.38137646 114.43551636 779.40771866 C81.74916317 779.58874453 48.50128576 779.04593878 16.95141602 769.54541016 C7.29555411 766.66489021 1.3175214 765.49204628 -8.3125 769.12109375 C-11.39536564 770.02285416 -14.50424791 770.79953182 -17.625 771.55859375 C-18.49527832 771.77136963 -19.36555664 771.98414551 -20.26220703 772.20336914 C-28.51996763 774.12016879 -36.84983742 775.30218902 -45.25 776.37109375 C-46.5285083 776.53407959 -47.8070166 776.69706543 -49.12426758 776.86499023 C-63.19508659 778.57531079 -77.1135208 779.26649869 -91.27832031 779.20288086 C-92.93275866 779.19931467 -94.58719811 779.19623147 -96.24163818 779.19358826 C-99.77834645 779.18708736 -103.31502845 779.17756046 -106.85172272 779.16569328 C-112.47200443 779.14719869 -118.09228025 779.13774701 -123.71258545 779.129776 C-139.68634779 779.10578116 -155.66007218 779.07002494 -171.63378906 779.02514648 C-180.47649298 779.00038238 -189.31918187 778.98315092 -198.16191554 778.9735871 C-202.82055931 778.9681845 -207.47912303 778.9590202 -212.13773346 778.9401989 C-245.62526053 778.80793898 -278.60587616 779.30641133 -310.76953125 789.75390625 C-329.90391423 795.72887835 -350.27127968 795.4091674 -368.1875 786.24609375 C-377.38301427 780.87761432 -386.84726058 772.51681201 -390.3125 762.12109375 C-391.1018102 755.56076146 -390.22955652 750.48280725 -386.3125 745.12109375 C-371.16488802 728.01649164 -351.49652955 714.5915896 -331.3125 704.12109375 C-330.63751465 703.7653125 -329.9625293 703.40953125 -329.26708984 703.04296875 C-286.08942847 680.53145132 -230.32125708 684.99820207 -183.09727478 684.27844238 C-127.50044538 685.46060882 -127.50044538 685.46060882 -73.3125 676.12109375 C-74.33512939 675.94888306 -74.33512939 675.94888306 -75.37841797 675.77319336 C-110.94602647 669.69886543 -158.54428204 661.23584711 -182.91796875 631.40625 C-185.80152781 626.6810902 -187.03946239 621.46273399 -188.3125 616.12109375 C-188.53808594 615.28191406 -188.76367188 614.44273437 -188.99609375 613.578125 C-192.00337252 600.53275711 -191.6127981 585.74523619 -187.3125 573.12109375 C-186.95039313 571.54409211 -186.6173919 569.96014897 -186.3125 568.37109375 C-186.15394531 567.55511719 -185.99539063 566.73914063 -185.83203125 565.8984375 C-185.44508057 563.82985153 -185.06924581 561.75918017 -184.69921875 559.6875 C-180.03504337 534.6468713 -169.47735555 514.98029033 -152.265625 496.32421875 C-149.96214142 493.72588927 -148.10731247 491.0864361 -146.3125 488.12109375 C-147.40498047 487.72083984 -147.40498047 487.72083984 -148.51953125 487.3125 C-157.29335046 483.56982187 -164.47045681 476.59808891 -171.3125 470.12109375 C-172.199375 469.31027344 -173.08625 468.49945312 -174 467.6640625 C-201.04493196 442.04052611 -214.50667447 403.19582303 -215.515625 366.51953125 C-215.79768662 344.83671795 -213.53043456 323.93033582 -207.3125 303.12109375 C-207.0757959 302.32848145 -206.8390918 301.53586914 -206.59521484 300.71923828 C-198.5324183 274.48720913 -185.34791118 249.61289264 -168.3125 228.12109375 C-167.66925781 227.28578125 -167.02601563 226.45046875 -166.36328125 225.58984375 C-161.83002918 219.77845367 -156.95193936 214.36304039 -151.92578125 208.98046875 C-150.11613688 207.00040944 -148.3934542 205.02890135 -146.69921875 202.95703125 C-144.8086634 200.71064305 -143.05327129 198.86000805 -140.8125 196.99609375 C-137.77833291 194.41959432 -134.86005525 191.75614571 -131.97729492 189.01123047 C-113.51158653 171.54998008 -71.57282254 133.12109375 -45.3125 133.12109375 C-46.04855469 132.39664063 -46.78460938 131.6721875 -47.54296875 130.92578125 C-63.34523688 114.92292016 -71.57800617 97.10114518 -71.8125 74.55859375 C-71.60711341 54.8270402 -65.05011563 36.67857203 -50.953125 22.6640625 C-49.64601563 21.40529297 -49.64601563 21.40529297 -48.3125 20.12109375 C-47.34570312 19.12529297 -47.34570312 19.12529297 -46.359375 18.109375 C-34.13736577 6.28590955 -16.60701411 0.86962405 0 0 Z " fill="#000000" transform="translate(509.3125,120.87890625)"/>
<path d="M0 0 C1.09143311 0.48799072 2.18286621 0.97598145 3.30737305 1.47875977 C38.61661432 17.40664526 71.31885221 37.09855868 99.3125 64.0625 C99.92270996 64.64547852 100.53291992 65.22845703 101.16162109 65.82910156 C109.54443125 73.87163426 117.21567352 82.13734042 124.13525391 91.47509766 C125.22589356 92.9457196 126.33673161 94.40130365 127.44921875 95.85546875 C142.11817364 115.36604333 153.07031468 137.75806915 159.5625 161.25 C159.80887207 162.14025879 160.05524414 163.03051758 160.30908203 163.94775391 C163.55666765 176.16379297 164.72199828 187.96627251 164.6875 200.5625 C164.68668427 201.68517776 164.68668427 201.68517776 164.68585205 202.83053589 C164.645431 214.95442563 163.78248581 226.37888496 160.3125 238.0625 C159.99901611 239.14772949 159.99901611 239.14772949 159.67919922 240.25488281 C154.97029589 256.07820892 147.60102611 270.91589336 136.3125 283.0625 C135.508125 283.93519531 134.70375 284.80789063 133.875 285.70703125 C123.39409388 296.63010059 105.98559638 309.81621373 90.06258965 310.32256222 C88.3930939 310.33739476 86.72347958 310.34135639 85.05392456 310.33665466 C84.13029842 310.34189134 83.20667227 310.34712802 82.25505745 310.35252339 C79.16462321 310.3675075 76.07435478 310.3682282 72.98388672 310.36889648 C70.76604432 310.37651915 68.54820457 310.38494683 66.33036804 310.39411926 C60.30737732 310.41606341 54.28443737 310.42486334 48.26141119 310.42994571 C44.49599577 310.43359006 40.73059362 310.43983062 36.96518326 310.4469471 C26.52682027 310.46640151 16.08846523 310.48291507 5.65008354 310.48582363 C4.64895612 310.48610499 4.64895612 310.48610499 3.6276039 310.48639202 C2.27474825 310.48675826 0.9218926 310.48712196 -0.43096305 310.48748314 C-1.10246595 310.48766595 -1.77396884 310.48784876 -2.46582031 310.48803711 C-3.13814913 310.48821766 -3.81047795 310.48839821 -4.50318037 310.48858423 C-15.38764492 310.49212288 -26.27191126 310.51912768 -37.15630712 310.556535 C-48.34819781 310.59468919 -59.5400162 310.61354131 -70.73197925 310.61428314 C-77.00897667 310.61507511 -83.28571839 310.62377711 -89.5626564 310.65228081 C-95.47086274 310.67850971 -101.37860231 310.6806393 -107.28684044 310.66462517 C-109.44909243 310.66281441 -111.61137156 310.66946742 -113.77356529 310.68544388 C-125.13852789 310.7642646 -134.57470639 310.81459581 -144.6875 305.0625 C-145.82445312 304.48886719 -146.96140625 303.91523437 -148.1328125 303.32421875 C-173.03062025 288.69766405 -190.37967888 266.02691768 -197.6875 238.0625 C-197.88214844 237.34803711 -198.07679688 236.63357422 -198.27734375 235.89746094 C-203.84977295 214.63664036 -204.53186172 188.37179224 -198.6875 167.0625 C-198.46175293 166.2060791 -198.23600586 165.3496582 -198.00341797 164.46728516 C-189.86454453 134.13148414 -175.23259631 106.82010227 -154.6875 83.0625 C-154.04039062 82.30453125 -153.39328125 81.5465625 -152.7265625 80.765625 C-141.67494971 68.14730848 -129.80676915 56.2834662 -116.31982422 46.2890625 C-114.72193267 45.08837343 -113.1591703 43.84138196 -111.59765625 42.59375 C-87.48757336 23.37865241 -58.93596468 8.86977367 -30.75 -3.3125 C-29.42911377 -3.91191406 -29.42911377 -3.91191406 -28.08154297 -4.5234375 C-17.64513878 -8.8781097 -9.77870819 -4.41237188 0 0 Z " fill="#FEFEFE" transform="translate(530.6875,277.9375)"/>
<path d="M0 0 C25.41196695 12.17112208 52.40853392 17.35270566 80.1875 20.75 C82.14296753 20.99387451 82.14296753 20.99387451 84.13793945 21.24267578 C109.49879955 24.28298468 134.91343499 24.99965883 160.42186737 25.22828293 C164.28800699 25.26534155 168.15400469 25.31341091 172.02001953 25.36157227 C172.78798481 25.37112536 173.55595009 25.38067846 174.34718704 25.39052105 C175.88445859 25.40969972 177.42172946 25.42893273 178.95899963 25.44822121 C181.21586373 25.47628375 183.47273685 25.50347232 185.72961426 25.53044128 C241.44952577 26.20211574 290.48509991 27.03518256 336 62.6875 C335 64.6875 335 64.6875 333.28100586 65.29589844 C324.02794163 66.88445832 315.75945095 65.19466529 306.9375 62.4375 C304.74354756 61.78835425 302.54821369 61.14386018 300.3515625 60.50390625 C298.7413623 60.03428467 298.7413623 60.03428467 297.09863281 59.55517578 C289.82273701 57.51778737 282.4294177 56.04175501 275 54.6875 C273.90042969 54.48511719 272.80085937 54.28273438 271.66796875 54.07421875 C268.12101785 53.5012834 264.57107086 53.07105946 261 52.6875 C260.22140625 52.59726562 259.4428125 52.50703125 258.640625 52.4140625 C226.40226776 48.84274748 193.38242066 50.12893461 161.0222168 51.25640869 C144.31648243 51.81899798 127.60390508 51.8377452 110.89050293 51.86917114 C108.60788639 51.87488636 106.32532149 51.88455229 104.04272461 51.89550781 C25.58023462 52.25055616 25.58023462 52.25055616 -5.91796875 37.60546875 C-14.78515038 34.96441972 -22.33621379 37.41198293 -30.75 40.5 C-32.89153766 41.24446706 -35.03476253 41.9840993 -37.1796875 42.71875 C-38.19514648 43.06679688 -39.21060547 43.41484375 -40.25683594 43.7734375 C-65.27396528 52.10951193 -94.08705046 51.85856827 -120.2578125 51.8203125 C-121.94196588 51.82099005 -123.62611916 51.82196377 -125.31027222 51.82321167 C-128.81102444 51.82466994 -132.31175083 51.82259697 -135.8125 51.81787109 C-140.21937242 51.81220062 -144.62618406 51.81553701 -149.03305435 51.82131863 C-165.0978003 51.83913236 -181.13323647 51.81180753 -197.18386841 51.06175232 C-244.66943225 48.874383 -294.07461763 48.28918895 -339.58984375 63.671875 C-344.95513566 65.26978553 -350.16709503 65.82827092 -355.75 65.8125 C-356.67296875 65.81507813 -357.5959375 65.81765625 -358.546875 65.8203125 C-361 65.6875 -361 65.6875 -364 64.6875 C-362.67572103 61.63303592 -361.42515343 59.9507473 -358.71875 58.0234375 C-358.05069336 57.54592041 -357.38263672 57.06840332 -356.69433594 56.57641602 C-355.97020508 56.07682373 -355.24607422 55.57723145 -354.5 55.0625 C-353.74750977 54.53906006 -352.99501953 54.01562012 -352.21972656 53.47631836 C-306.76076641 22.41018785 -252.30671163 25.84870972 -199.4375 25.1875 C-150.95635908 25.11246003 -150.95635908 25.11246003 -102.81933594 20.15136719 C-99.59527509 19.62091035 -96.36472721 19.14427834 -93.1328125 18.6640625 C-67.01663035 14.63546541 -39.97051402 8.11809196 -17.10546875 -5.6953125 C-11.63779846 -7.29808041 -4.87401048 -2.38756018 0 0 Z " fill="#FBFBFB" transform="translate(526,814.3125)"/>
<path d="M0 0 C0.88928859 -0.01147664 1.77857718 -0.02295328 2.69481391 -0.0347777 C5.65750039 -0.06559206 8.61842338 -0.05382804 11.58122253 -0.04188538 C13.71232711 -0.05493498 15.84341762 -0.0704872 17.9744873 -0.08834839 C23.7515865 -0.12846779 29.5280963 -0.13026023 35.30530763 -0.12265849 C40.13371301 -0.11944546 44.96199977 -0.13410954 49.7903797 -0.14847475 C61.18526942 -0.18174356 72.57986245 -0.18308257 83.97477722 -0.16493225 C95.71647581 -0.1468166 107.45709559 -0.18373829 119.19861013 -0.24764246 C129.29149859 -0.3005469 139.38404426 -0.31848569 149.47706622 -0.30872923 C155.49988976 -0.30329836 161.52194392 -0.31111957 167.54464149 -0.35287285 C173.21116458 -0.39068781 178.87601082 -0.38470595 184.54250908 -0.34564018 C186.61648762 -0.33856062 188.69058514 -0.34668434 190.76442719 -0.37150955 C208.35107508 -0.56677559 208.35107508 -0.56677559 215.43380737 5.1499939 C216.94104609 6.65511362 218.41440707 8.19570276 219.83586121 9.78208923 C221.01440243 10.87013269 222.20079976 11.94988524 223.40226746 13.01255798 C236.01945431 25.25566131 247.8729734 40.00476238 250.83586121 57.78208923 C151.17586121 57.78208923 51.51586121 57.78208923 -51.16413879 57.78208923 C-50.03771707 51.02355887 -50.03771707 51.02355887 -48.52742004 48.01255798 C-48.03761658 47.02787537 -48.03761658 47.02787537 -47.53791809 46.02330017 C-47.18769592 45.34557556 -46.83747375 44.66785095 -46.47663879 43.96958923 C-46.11288147 43.25963806 -45.74912415 42.54968689 -45.37434387 41.81822205 C-39.9775442 31.43107622 -33.2211349 23.20687974 -25.16413879 14.78208923 C-24.43581848 14.01251892 -23.70749817 13.24294861 -22.95710754 12.45005798 C-21.06085095 10.49395898 -19.19725751 8.5967125 -17.16413879 6.78208923 C-16.62384625 6.29635404 -16.08355371 5.81061884 -15.52688867 5.31016439 C-10.33406728 0.99503991 -6.67059072 -0.09252392 0 0 Z " fill="#FDFDFD" transform="translate(412.1641387939453,621.2179107666016)"/>
<path d="M0 0 C104.94 0 209.88 0 318 0 C318 14.21374046 318 14.21374046 315 20 C310.77499926 23.87141912 306.10933954 26.45785926 301 29 C300.37899414 29.31275879 299.75798828 29.62551758 299.11816406 29.94775391 C280.06703354 39.32331027 259.80779628 44.34569866 239 48 C237.97358398 48.18691406 236.94716797 48.37382813 235.88964844 48.56640625 C210.56173987 53.15252961 185.26589792 54.37139698 159.5625 54.25 C158.36187927 54.24656586 157.16125854 54.24313171 155.92425537 54.23959351 C138.55918958 54.18147633 121.26057557 54.10053379 104 52 C102.71689941 51.84402344 101.43379883 51.68804688 100.11181641 51.52734375 C68.79277828 47.60519817 37.52196095 41.03154225 10 25 C9.21625 24.60554687 8.4325 24.21109375 7.625 23.8046875 C4.67037143 22.14270893 3.17471001 20.43772799 1.92578125 17.30859375 C0.24583895 11.23495619 0 6.45210611 0 0 Z " fill="#FBFBFB" transform="translate(353,713)"/>
<path d="M0 0 C4.52049994 2.45774754 7.55699234 5.73898468 9.875 10.375 C9.96449417 11.82537107 9.9925844 13.27978629 9.98852539 14.73291016 C9.98841209 16.08408432 9.98841209 16.08408432 9.98829651 17.46255493 C9.98313522 18.43655243 9.97797394 19.41054993 9.97265625 20.4140625 C9.9712413 21.41005463 9.96982635 22.40604675 9.96836853 23.43222046 C9.96275936 26.62151053 9.9502053 29.81073106 9.9375 33 C9.93248618 35.15885315 9.92792307 37.31770741 9.92382812 39.4765625 C9.91278695 44.7760655 9.89603988 50.07552778 9.875 55.375 C11.81149414 55.33572388 11.81149414 55.33572388 13.78710938 55.2956543 C18.60268647 55.20476813 23.4181886 55.14761121 28.234375 55.1003418 C30.31393202 55.07528495 32.39340174 55.04122979 34.47265625 54.99780273 C37.47157394 54.93676155 40.46932178 54.90870158 43.46875 54.88671875 C44.38990601 54.86091232 45.31106201 54.8351059 46.26013184 54.80851746 C52.70487916 54.80575264 56.87597625 56.26737602 61.875 60.375 C66.16186051 64.99161901 67.29913414 68.79145493 67.21875 74.9609375 C66.45271477 80.34059403 63.46497655 84.01304951 59.43554688 87.46459961 C55.01486618 90.33900851 50.3323 89.87371139 45.2265625 89.765625 C44.21403412 89.75996521 43.20150574 89.75430542 42.15829468 89.74847412 C38.93837323 89.72616254 35.7195826 89.67597472 32.5 89.625 C30.31121404 89.60492831 28.12241056 89.58667871 25.93359375 89.5703125 C20.58034622 89.52631505 15.22775392 89.45945518 9.875 89.375 C9.88610306 89.92099854 9.89720612 90.46699707 9.90864563 91.02954102 C10.01972732 96.74006705 10.09486794 102.45028355 10.1496582 108.16162109 C10.17471889 110.28967771 10.20877691 112.41764897 10.25219727 114.54541016 C10.31322089 117.61382163 10.34129474 120.68108995 10.36328125 123.75 C10.38908768 124.69302979 10.4148941 125.63605957 10.44148254 126.60766602 C10.44416486 133.00229721 9.19136915 137.52667961 4.875 142.375 C0.32877535 145.73297925 -4.22924246 147.11344599 -9.88671875 146.8203125 C-15.43169918 145.71712268 -18.9942505 142.97303083 -22.21459961 138.421875 C-24.84882812 133.6882159 -24.63104715 129.14877052 -24.515625 123.84765625 C-24.50996521 122.85873886 -24.50430542 121.86982147 -24.49847412 120.85093689 C-24.47620015 117.71261857 -24.42601998 114.57546943 -24.375 111.4375 C-24.35492342 109.30144886 -24.33667468 107.1653797 -24.3203125 105.02929688 C-24.27636511 99.8108034 -24.2095437 94.59298526 -24.125 89.375 C-24.68352661 89.38832367 -25.24205322 89.40164734 -25.81750488 89.41537476 C-31.65772348 89.54864637 -37.49750672 89.63882851 -43.33886719 89.70458984 C-45.51547811 89.73466783 -47.69196878 89.77554171 -49.86816406 89.82763672 C-53.00616189 89.9008471 -56.1425507 89.93454688 -59.28125 89.9609375 C-60.72860535 90.00738907 -60.72860535 90.00738907 -62.2052002 90.05477905 C-68.35568053 90.05780759 -71.82104225 88.89972121 -76.56091309 84.94155884 C-80.18419129 81.31255432 -81.28216732 77.87677356 -81.5 72.875 C-81.28973972 67.85398457 -80.08818332 64.35210661 -76.47265625 60.7109375 C-72.34039274 57.0242246 -69.40575064 55.24525573 -63.74536133 55.26147461 C-62.86467484 55.26155014 -61.98398834 55.26162567 -61.07661438 55.26170349 C-60.12965195 55.26686478 -59.18268951 55.27202606 -58.20703125 55.27734375 C-57.23465012 55.2787587 -56.26226898 55.28017365 -55.26042175 55.28163147 C-52.15274996 55.28723183 -49.04515004 55.29978438 -45.9375 55.3125 C-43.83138125 55.31751495 -41.72526137 55.32207787 -39.61914062 55.32617188 C-34.45439936 55.33720138 -29.28971187 55.35446625 -24.125 55.375 C-24.13388245 54.82456024 -24.14276489 54.27412048 -24.1519165 53.70700073 C-24.24059291 47.96427828 -24.30081803 42.22175117 -24.34472656 36.47851562 C-24.36480888 34.33683366 -24.39208037 32.1952063 -24.42675781 30.05371094 C-24.47542398 26.97056585 -24.4980029 23.88814738 -24.515625 20.8046875 C-24.54659271 19.37465897 -24.54659271 19.37465897 -24.57818604 17.91574097 C-24.58048572 11.06153917 -23.3501981 7.69482494 -18.52734375 2.73046875 C-12.61011506 -1.98753493 -7.06322322 -3.21783893 0 0 Z " fill="#010101" transform="translate(519.125,350.625)"/>
<path d="M0 0 C7.69178141 6.26264378 13.77908675 15.25688683 15.5234375 25.23046875 C16.5658618 37.59923404 13.43845934 48.95594592 5.5859375 58.61328125 C-1.75304035 66.55510371 -10.92432401 71.2059018 -21.78564453 71.67602539 C-34.7578934 71.95814081 -43.75551872 68.94646071 -53.5390625 59.91796875 C-61.70181192 51.0117719 -65.00830925 40.52316672 -64.7890625 28.57421875 C-63.80430726 18.0373377 -58.38052031 8.64062283 -50.7265625 1.48046875 C-35.89818888 -10.75792022 -15.54904943 -11.1099675 0 0 Z " fill="#FDFDFD" transform="translate(536.4765625,163.76953125)"/>
</svg>
