<?xml version="1.0" standalone="no"?>
<!DOCTYPE svg PUBLIC "-//W3C//DTD SVG 20010904//EN"
 "http://www.w3.org/TR/2001/REC-SVG-20010904/DTD/svg10.dtd">
<svg version="1.0" xmlns="http://www.w3.org/2000/svg"
 width="70.000000pt" height="70.000000pt" viewBox="0 0 70.000000 70.000000"
 preserveAspectRatio="xMidYMid meet">

<g transform="translate(0.000000,70.000000) scale(0.100000,-0.100000)"
fill="#000000" stroke="none">
<path d="M316 614 c-19 -19 -20 -36 -3 -53 10 -10 8 -14 -7 -23 -39 -22 -104
-89 -110 -113 -7 -27 15 -88 40 -117 15 -15 15 -21 0 -64 -9 -26 -15 -48 -13
-50 1 -1 18 -7 37 -12 l35 -9 -28 -11 c-15 -7 -47 -9 -71 -6 -57 8 -116 -3
-116 -21 0 -8 5 -26 12 -40 9 -20 16 -24 32 -18 12 4 55 7 97 5 64 -2 80 1
102 18 l26 21 30 -22 c26 -19 38 -21 89 -16 33 4 74 2 91 -3 30 -8 33 -7 48
25 9 19 13 38 9 42 -4 5 -48 8 -96 8 -97 0 -140 17 -75 29 22 5 35 12 32 19
-31 84 -31 81 -3 121 18 27 26 52 26 81 0 37 -5 47 -39 78 -22 19 -48 40 -60
46 -16 9 -19 18 -14 41 10 52 -36 80 -71 44z m52 -31 c-2 -10 -10 -18 -18 -18
-8 0 -16 8 -18 18 -2 12 3 17 18 17 15 0 20 -5 18 -17z m50 -96 c64 -48 72
-74 44 -133 l-22 -44 -89 0 c-81 0 -90 2 -103 23 -22 33 -31 66 -24 92 7 27
116 116 131 107 6 -3 34 -23 63 -45z m-20 -203 c17 -3 32 -14 35 -23 3 -14 -7
-16 -83 -16 -77 0 -86 2 -82 17 6 24 68 34 130 22z m-6 -60 c60 -10 33 -24
-47 -24 -76 0 -111 15 -53 23 58 7 62 7 100 1z m-67 -84 c-15 -30 -16 -30
-105 -30 -50 0 -93 0 -97 -1 -4 0 -9 4 -11 10 -2 7 25 11 81 11 70 0 89 4 108
20 34 28 42 25 24 -10z m72 10 c21 -16 41 -20 110 -20 59 0 84 -3 81 -11 -3
-8 -35 -11 -98 -10 -83 1 -97 4 -112 22 -33 39 -21 51 19 19z"/>
<path d="M340 445 c0 -20 -5 -25 -25 -25 -31 0 -33 -17 -2 -22 14 -2 23 -11
25 -25 5 -31 22 -29 22 2 0 20 5 25 25 25 14 0 25 5 25 10 0 6 -11 10 -25 10
-20 0 -25 5 -25 25 0 14 -4 25 -10 25 -5 0 -10 -11 -10 -25z"/>
</g>
</svg>
