<?xml version="1.0" standalone="no"?>
<!DOCTYPE svg PUBLIC "-//W3C//DTD SVG 20010904//EN"
 "http://www.w3.org/TR/2001/REC-SVG-20010904/DTD/svg10.dtd">
<svg version="1.0" xmlns="http://www.w3.org/2000/svg"
 width="70.000000pt" height="70.000000pt" viewBox="0 0 70.000000 70.000000"
 preserveAspectRatio="xMidYMid meet">

<g transform="translate(0.000000,70.000000) scale(0.100000,-0.100000)"
fill="#000000" stroke="none">
<path d="M340 611 c0 -14 -6 -21 -20 -21 -11 0 -20 -7 -20 -15 0 -8 9 -15 20
-15 29 0 26 -34 -5 -54 -16 -11 -25 -26 -25 -42 0 -21 -3 -25 -17 -19 -10 4
-41 10 -68 12 -44 5 -55 2 -83 -22 -36 -30 -50 -81 -32 -116 7 -13 28 -41 48
-61 37 -39 46 -82 28 -134 -12 -33 46 -49 179 -49 128 0 201 17 190 43 -4 9
-9 33 -12 53 -5 32 0 42 41 88 54 61 62 86 43 134 -22 51 -57 71 -115 64 -26
-2 -55 -8 -64 -12 -14 -5 -18 -2 -18 14 0 12 -11 31 -25 43 -31 26 -32 54 -4
61 23 6 17 27 -7 27 -8 0 -14 6 -14 14 0 8 -4 18 -10 21 -5 3 -10 -3 -10 -14z
m38 -133 c17 -17 15 -36 -9 -88 l-20 -45 -19 40 c-30 63 -22 105 20 105 9 0
21 -5 28 -12z m-118 -61 c39 -26 67 -70 72 -111 3 -30 3 -30 -72 -42 -44 -7
-82 -8 -92 -3 -32 17 -58 61 -58 100 0 72 82 103 150 56z m305 -2 c38 -37 34
-85 -11 -130 -20 -21 -42 -34 -50 -31 -8 3 -43 8 -79 12 -36 4 -65 11 -65 17
0 36 29 92 62 122 49 45 105 49 143 10z m-74 -180 c10 -4 15 -14 12 -25 -4
-15 -11 -17 -41 -12 -48 9 -176 9 -224 0 -28 -5 -38 -3 -42 9 -8 20 -4 23 36
34 36 9 233 5 259 -6z m-8 -66 c29 -16 19 -29 -15 -21 -18 4 -71 7 -118 7 -47
0 -100 -3 -117 -7 -25 -6 -33 -4 -33 7 0 8 13 16 33 19 17 3 43 8 57 10 37 6
172 -5 193 -15z m-12 -48 c23 -8 22 -9 -16 -17 -78 -16 -260 -6 -241 13 21 22
204 25 257 4z"/>
</g>
</svg>
