<?xml version="1.0" encoding="UTF-8"?>
<svg version="1.1" xmlns="http://www.w3.org/2000/svg" width="1024" height="1024">
<path d="M0 0 C5.02294603 3.4156033 6.3820276 7.47713735 7.7578125 13.1953125 C7.98486328 16.74389648 7.98486328 16.74389648 7.953125 20.44140625 C7.94888016 21.42537132 7.94888016 21.42537132 7.94454956 22.42921448 C7.93347234 24.49727659 7.90839313 26.56488423 7.8828125 28.6328125 C7.87276652 30.04621765 7.86364352 31.45962967 7.85546875 32.87304688 C7.83357434 36.31394644 7.79913301 39.75458502 7.7578125 43.1953125 C8.58347214 43.18198883 8.58347214 43.18198883 9.42581177 43.168396 C15.16853422 43.07971959 20.91106133 43.01949447 26.65429688 42.97558594 C28.79597884 42.95550362 30.9376062 42.92823213 33.07910156 42.89355469 C36.16224665 42.84488852 39.24466512 42.8223096 42.328125 42.8046875 C43.28147736 42.78404236 44.23482971 42.76339722 45.21707153 42.74212646 C50.92737065 42.74021058 54.25322643 43.32869229 58.7578125 47.1953125 C63.58888027 52.67922726 64.10805993 56.00070649 64.0390625 63.2109375 C63.54681204 68.43426184 61.05197041 70.96926816 57.3828125 74.4453125 C51.52431857 78.35097512 46.00278064 78.47203881 39.203125 78.390625 C38.40318115 78.38861084 37.6032373 78.38659668 36.77905273 78.38452148 C33.81358033 78.37412026 30.84819017 78.34619799 27.8828125 78.3203125 C21.2415625 78.2790625 14.6003125 78.2378125 7.7578125 78.1953125 C7.7578125 97.3353125 7.7578125 116.4753125 7.7578125 136.1953125 C10.7278125 136.8553125 13.6978125 137.5153125 16.7578125 138.1953125 C19.33734522 139.30883749 21.69310604 140.40874799 24.1328125 141.7578125 C24.77565186 142.10859863 25.41849121 142.45938477 26.08081055 142.82080078 C32.22422371 146.28043596 37.55799726 150.43480577 42.7578125 155.1953125 C43.58667969 155.94296875 44.41554688 156.690625 45.26953125 157.4609375 C67.13686496 178.1954266 82.08081514 208.26232733 82.90625 238.4921875 C83.02665941 246.76642816 82.64593897 254.96428329 81.7578125 263.1953125 C82.87349609 262.53789063 82.87349609 262.53789063 84.01171875 261.8671875 C87.90635634 259.60489506 91.82384712 257.38838985 95.7578125 255.1953125 C96.5832959 254.73479492 97.4087793 254.27427734 98.25927734 253.79980469 C125.98179836 238.4823028 155.25265187 228.03697545 186.7578125 224.1953125 C187.5108667 224.1010498 188.2639209 224.00678711 189.03979492 223.90966797 C237.82860087 218.37370075 286.54826086 231.17384553 324.98828125 261.74609375 C355.74422245 286.73646594 380.57482866 320.79149129 384.7578125 361.1953125 C388.99849534 405.41666383 373.90372849 446.49917814 346 480.6015625 C343.30237958 483.84388568 340.5372596 487.02293761 337.7578125 490.1953125 C337.0771875 490.98808594 336.3965625 491.78085937 335.6953125 492.59765625 C324.74169928 505.11301511 312.87067275 516.96285013 299.7578125 527.1953125 C297.90090503 528.77543058 296.04689774 530.35896116 294.1953125 531.9453125 C283.21702035 541.08682475 271.45698017 549.19516012 259.5078125 557.0078125 C258.35829102 557.76155151 258.35829102 557.76155151 257.18554688 558.53051758 C256.42048828 559.02447021 255.65542969 559.51842285 254.8671875 560.02734375 C254.12520048 560.51359757 253.38321346 560.9998514 252.61874199 561.50084019 C249.7578125 563.1953125 249.7578125 563.1953125 246.25322151 564.72966671 C238.93436638 567.98339718 238.93436638 567.98339718 234.48183823 574.36117744 C234.02073602 578.3214031 234.00259275 582.15687538 234.14013672 586.12915039 C234.14077254 587.6362045 234.13517717 589.14327209 234.12385559 590.65028381 C234.11023204 594.72669716 234.18186837 598.79766964 234.26809454 602.87302327 C234.34264703 607.14574159 234.3343556 611.4182609 234.33401489 615.69151306 C234.34514887 623.78353792 234.42401866 631.87331172 234.53033078 639.96459144 C234.71806206 654.45272459 234.78179233 668.94181254 234.83381474 683.43098062 C234.85462776 688.512535 234.90214722 693.59294543 234.97260547 698.67404759 C235.01354902 701.83733081 235.03868251 705.00061686 235.06053734 708.16408348 C235.07433774 709.62705047 235.09514154 711.08997136 235.12359428 712.55272675 C235.38583789 726.2924386 235.38583789 726.2924386 230.7578125 732.1953125 C227.2270443 735.4950405 223.15141741 737.92429553 219.0078125 740.3828125 C218.35151855 740.77227051 217.69522461 741.16172852 217.01904297 741.56298828 C167.18442259 770.85599251 109.99505592 787.46151916 52.7578125 794.1953125 C50.87835937 794.41960937 50.87835937 794.41960937 48.9609375 794.6484375 C8.99576376 799.27276836 -32.32023865 799.2393519 -72.2421875 794.1953125 C-72.92164429 794.11045593 -73.60110107 794.02559937 -74.30114746 793.93817139 C-132.85529526 786.55418373 -190.22213888 769.81665141 -241.1171875 739.4453125 C-241.86033203 739.00985107 -242.60347656 738.57438965 -243.36914062 738.12573242 C-248.77455771 734.82970074 -253.16882113 731.41541161 -255.2421875 725.1953125 C-255.33388604 723.12789048 -255.36412587 721.05756734 -255.36244202 718.9881134 C-255.36450401 717.03825783 -255.36450401 717.03825783 -255.36660767 715.04901123 C-255.3630685 713.60534645 -255.35943369 712.1616819 -255.35571289 710.71801758 C-255.35543087 709.20035301 -255.35558905 707.6826883 -255.3561554 706.1650238 C-255.35644278 702.04135411 -255.35055546 697.9177134 -255.34358144 693.79405046 C-255.33733821 689.48588599 -255.33674333 685.1777209 -255.33555603 680.86955261 C-255.33244558 672.70980723 -255.32423603 664.55007522 -255.31420654 656.39033574 C-255.30303653 647.10144836 -255.29753271 637.81256035 -255.29251111 628.52366793 C-255.2820532 609.41420854 -255.26445928 590.30476159 -255.2421875 571.1953125 C-256.02761932 570.88656693 -256.81305115 570.57782135 -257.62228394 570.25971985 C-259.90900156 569.33067839 -261.89529782 568.32550332 -264 567.05078125 C-264.69810791 566.62812988 -265.39621582 566.20547852 -266.11547852 565.77001953 C-266.85854248 565.31224121 -267.60160645 564.85446289 -268.3671875 564.3828125 C-269.15343506 563.89925293 -269.93968262 563.41569336 -270.74975586 562.91748047 C-305.51474907 541.3292357 -341.65176227 514.25523839 -366.2421875 481.1953125 C-367.12607455 480.04019045 -368.01020662 478.88525585 -368.89453125 477.73046875 C-395.01945338 443.23691433 -410.81978917 402.31948796 -404.89013672 358.59960938 C-401.18046529 334.81804626 -392.10353788 313.12993815 -377.2421875 294.1953125 C-376.82098633 293.65841797 -376.39978516 293.12152344 -375.96582031 292.56835938 C-345.07466958 253.72433026 -303.00864181 230.32987507 -253.85986328 223.8828125 C-200.28062154 217.79549755 -147.21810835 234.75295638 -102.2421875 263.1953125 C-102.314375 262.52628906 -102.3865625 261.85726563 -102.4609375 261.16796875 C-105.66111034 228.05506926 -98.60497606 197.01611483 -77.37890625 170.68359375 C-76.67378906 169.86246094 -75.96867187 169.04132813 -75.2421875 168.1953125 C-74.52675781 167.34324219 -73.81132812 166.49117187 -73.07421875 165.61328125 C-61.31943775 152.06927695 -48.33004017 141.95141071 -31.2421875 136.1953125 C-30.2521875 136.1953125 -29.2621875 136.1953125 -28.2421875 136.1953125 C-28.2421875 117.0553125 -28.2421875 97.9153125 -28.2421875 78.1953125 C-41.3751895 78.31366223 -41.3751895 78.31366223 -54.5078125 78.46557617 C-56.16926491 78.47434811 -57.83072384 78.48199037 -59.4921875 78.48828125 C-60.33652344 78.50362915 -61.18085938 78.51897705 -62.05078125 78.53479004 C-68.41710367 78.53756605 -74.27450486 77.72375559 -79.30078125 73.44140625 C-79.75582031 72.84457031 -80.21085937 72.24773437 -80.6796875 71.6328125 C-81.15277344 71.03339844 -81.62585938 70.43398437 -82.11328125 69.81640625 C-85.36977966 65.14011961 -84.7600384 59.69028593 -84.2421875 54.1953125 C-81.82283474 49.17739566 -78.2430144 45.69572595 -73.2421875 43.1953125 C-71.79181643 43.10581833 -70.33740121 43.0777281 -68.88427734 43.08178711 C-67.53310318 43.08190041 -67.53310318 43.08190041 -66.15463257 43.08201599 C-65.18063507 43.08717728 -64.20663757 43.09233856 -63.203125 43.09765625 C-62.20713287 43.0990712 -61.21114075 43.10048615 -60.18496704 43.10194397 C-56.99567697 43.10755314 -53.80645644 43.1201072 -50.6171875 43.1328125 C-48.45833435 43.13782632 -46.29948009 43.14238943 -44.140625 43.14648438 C-38.841122 43.15752555 -33.54165972 43.17427262 -28.2421875 43.1953125 C-28.25789795 42.33365479 -28.2736084 41.47199707 -28.28979492 40.58422852 C-28.34132529 37.34694698 -28.37873144 34.10987649 -28.40698242 30.87231445 C-28.42194688 29.47868922 -28.44232601 28.08511006 -28.46850586 26.69165039 C-28.80408324 8.35333332 -28.80408324 8.35333332 -23.89575195 2.62353516 C-16.6187279 -3.87824931 -8.37024715 -4.6939033 0 0 Z " fill="#010101" transform="translate(522.2421875,121.8046875)"/>
<path d="M0 0 C2.21567005 0.00316246 4.4300008 -0.02043356 6.64550781 -0.0456543 C21.11325609 -0.11181656 34.87076775 2.13033822 48.59863281 6.81567383 C49.60450439 7.15679199 50.61037598 7.49791016 51.64672852 7.84936523 C67.52933409 13.45880199 82.08366723 21.30276235 94.84863281 32.31567383 C96.19828125 33.47583008 96.19828125 33.47583008 97.57519531 34.65942383 C100.04282953 36.8363096 102.45472721 39.05820844 104.84863281 41.31567383 C105.85990234 42.24766602 105.85990234 42.24766602 106.89160156 43.19848633 C126.82518472 62.21695489 140.52584629 88.58219219 141.19189453 116.3605957 C141.32314408 129.09785917 139.7714608 140.21439151 135.84863281 152.31567383 C135.51968018 153.36609863 135.51968018 153.36609863 135.18408203 154.43774414 C129.48209432 172.29970114 119.56385884 187.82030687 107.84863281 202.31567383 C107.37731934 202.90268066 106.90600586 203.4896875 106.42041016 204.09448242 C95.74922744 217.26736153 83.7886783 229.83463897 70.42675781 240.29614258 C67.6428682 242.47685611 64.9717693 244.76527208 62.28613281 247.06567383 C49.28816414 257.88614775 35.27262496 267.2197495 20.875 276.05883789 C19.10276652 277.15804969 17.35256565 278.29262371 15.60644531 279.43286133 C14.73761719 279.99231445 13.86878906 280.55176758 12.97363281 281.12817383 C11.925625 281.8184668 11.925625 281.8184668 10.85644531 282.52270508 C7.53311952 283.8352248 5.20713287 282.88302843 1.99609375 281.54199219 C-0.29505119 280.5135381 -2.56648421 279.44742446 -4.83886719 278.37817383 C-25.56261805 268.89176097 -46.77960727 261.56374182 -68.66430664 255.31616211 C-70.97953332 254.65188997 -73.29069393 253.97327043 -75.59741211 253.2800293 C-84.30214096 250.69388184 -93.04683066 248.83365707 -101.96386719 247.19067383 C-103.98283675 246.81292019 -106.00144192 246.43328545 -108.01989746 246.05279541 C-109.94232985 245.69059887 -111.86520359 245.33074738 -113.78808594 244.97094727 C-116.42612957 244.45697303 -119.02809996 243.89055605 -121.63964844 243.26098633 C-128.18079878 241.77071373 -134.87201288 241.1059973 -141.52636719 240.31567383 C-142.24735596 240.22885345 -142.96834473 240.14203308 -143.71118164 240.05258179 C-160.78466993 238.00682043 -177.88916251 236.79721963 -195.05175781 235.79101562 C-196.22463348 235.72214268 -196.22463348 235.72214268 -197.42120361 235.65187836 C-199.33125338 235.53972906 -201.24130962 235.42769007 -203.15136719 235.31567383 C-203.33844108 225.36109448 -203.4797277 215.40694719 -203.56586456 205.45095444 C-203.60725027 200.82563022 -203.66318549 196.20152636 -203.75488281 191.5769043 C-204.50240758 152.83897018 -204.50240758 152.83897018 -196.16687012 138.112854 C-194.69479427 135.50765666 -193.4913661 132.78490742 -192.23730469 130.06958008 C-191.34709556 128.33216084 -190.4435793 126.60149035 -189.52636719 124.87817383 C-189.02838623 123.93425781 -188.53040527 122.9903418 -188.01733398 122.01782227 C-180.19824211 107.5123502 -170.99149987 93.73627182 -160.15136719 81.31567383 C-159.1717473 80.1556956 -158.19400928 78.99412649 -157.21777344 77.83129883 C-149.43331289 68.59069057 -141.51112916 60.2284834 -132.04980469 52.65942383 C-130.13223695 51.10882997 -128.24063158 49.52551448 -126.37792969 47.90942383 C-91.92020789 18.07753317 -45.59205735 -0.13527314 0 0 Z " fill="#FEFEFE" transform="translate(732.1513671875,379.684326171875)"/>
<path d="M0 0 C0.76196686 0.00021149 1.52393372 0.00042297 2.30899048 0.00064087 C20.52058835 0.05082497 37.85506396 2.54846642 55.05957031 8.66552734 C57.19607664 9.42231518 59.34338007 10.14222049 61.4921875 10.86328125 C98.6438602 23.62465043 132.65935723 47.40260259 158.0625 77.375 C158.587229 77.98819092 159.11195801 78.60138184 159.65258789 79.2331543 C174.37864918 96.57007135 186.06859897 115.69427219 195.875 136.1875 C196.23609863 136.93950684 196.59719727 137.69151367 196.96923828 138.46630859 C197.65650873 139.93254945 198.32598777 141.407295 198.97520447 142.89077759 C199.6659927 144.46907122 200.3796199 146.0377135 201.12327576 147.59179688 C204.95591062 156.51712785 204.57316061 165.20811905 204.453125 174.73046875 C204.44565002 176.48594005 204.43996304 178.24141978 204.43597412 179.99690247 C204.42081653 184.58207885 204.38162195 189.16673566 204.3371582 193.75170898 C204.29599043 198.44442724 204.27791751 203.13723073 204.2578125 207.83007812 C204.21511642 217.01194505 204.14698725 226.19342906 204.0625 235.375 C203.08159897 235.4231485 202.10069794 235.471297 201.09007263 235.52090454 C183.03592326 236.41749071 165.04934317 237.31198672 147.125 239.75 C145.42549109 239.97235701 143.72594606 240.1944381 142.02636719 240.41625977 C131.17835354 241.85343317 120.3977426 243.48741476 109.69970703 245.80957031 C106.61625428 246.4706772 103.52542283 247.09020783 100.43359375 247.7109375 C66.62729922 254.59383685 33.60107291 264.89867709 2.57421875 280.08203125 C1.60097656 280.54996094 0.62773437 281.01789063 -0.375 281.5 C-1.15746094 281.89445312 -1.93992187 282.28890625 -2.74609375 282.6953125 C-6.41508495 283.83328838 -9.14943915 282.78680879 -12.48608398 281.04321289 C-13.37626221 280.4836792 -14.26644043 279.92414551 -15.18359375 279.34765625 C-16.1789917 278.72528076 -17.17438965 278.10290527 -18.19995117 277.46166992 C-19.77160034 276.45970581 -19.77160034 276.45970581 -21.375 275.4375 C-22.99208862 274.41523315 -22.99208862 274.41523315 -24.6418457 273.37231445 C-32.61335175 268.29899329 -40.38649697 263.05258962 -47.9375 257.375 C-48.47342773 256.97506836 -49.00935547 256.57513672 -49.56152344 256.16308594 C-70.75560497 240.31458092 -91.7812703 222.43730992 -107.9375 201.375 C-108.36240723 200.83182129 -108.78731445 200.28864258 -109.22509766 199.72900391 C-130.10192113 172.94747254 -143.52353037 141.64207248 -139.69433594 107.18701172 C-139.08020017 103.1586459 -138.07182506 99.2837565 -136.9375 95.375 C-136.67066406 94.32828125 -136.40382812 93.2815625 -136.12890625 92.203125 C-132.09550456 77.50361663 -124.81172159 64.87363142 -114.9375 53.375 C-114.28177002 52.60978027 -114.28177002 52.60978027 -113.61279297 51.82910156 C-103.33401454 39.97562179 -92.15409134 29.85295981 -78.9375 21.375 C-77.98359375 20.75882812 -77.0296875 20.14265625 -76.046875 19.5078125 C-64.89306443 12.65096174 -52.86697937 7.94426519 -40.25 4.5625 C-39.5273999 4.36769043 -38.8047998 4.17288086 -38.06030273 3.97216797 C-25.47509637 0.79754652 -12.9130059 -0.03330229 0 0 Z " fill="#FEFEFE" transform="translate(290.9375,379.625)"/>
<path d="M0 0 C2.07260465 0.00566103 4.14520105 0.00846832 6.21781158 0.0110817 C26.94350976 0.049038 47.40537119 0.56558465 67.97238922 3.31805801 C69.31918877 3.49173089 70.66603239 3.66506224 72.01291656 3.83807755 C111.78096625 9.01723782 156.41332585 16.18015803 191.97238922 35.31805801 C189.02508908 37.70082554 186.15154854 39.25655597 182.66770172 40.73602676 C181.62203033 41.18147842 180.57635895 41.62693008 179.49900055 42.08588028 C173.66618701 44.52023115 167.82681604 46.93610567 161.97238922 49.31805801 C161.06666168 49.69156387 160.16093414 50.06506973 159.22776031 50.44989395 C133.79582392 60.81787742 106.39997308 66.69706345 79.40988922 71.31805801 C78.59031738 71.45994553 77.77074554 71.60183304 76.9263382 71.74802017 C53.39475649 75.77071298 30.04668303 76.72332456 6.21863937 76.69561768 C3.88430348 76.69302965 1.54998179 76.69367883 -0.78435516 76.6944313 C-23.7619963 76.68584559 -46.28677232 75.80903607 -69.02761078 72.31805801 C-70.76642683 72.09455744 -72.50593941 71.87634952 -74.24636078 71.66571426 C-113.7128394 66.60547897 -152.19388408 53.10930232 -188.02761078 36.31805801 C-185.85130268 33.8925413 -183.98346628 32.68327792 -180.94948578 31.52118301 C-180.13060883 31.2058461 -179.31173187 30.89050919 -178.46804047 30.56561661 C-177.58019867 30.23642227 -176.69235687 29.90722794 -175.77761078 29.56805801 C-174.3801059 29.0452626 -174.3801059 29.0452626 -172.95436859 28.51190567 C-154.36396008 21.67309173 -135.35151341 16.6065339 -116.02761078 12.31805801 C-115.04663422 12.09907852 -114.06565765 11.88009903 -113.05495453 11.6544838 C-100.00312693 8.78473275 -86.86882135 6.57555699 -73.65261078 4.63055801 C-72.97281158 4.52782578 -72.29301239 4.42509354 -71.59261322 4.3192482 C-47.84853064 0.76269966 -23.97988964 -0.06663535 0 0 Z " fill="#FDFDFD" transform="translate(510.0276107788086,807.681941986084)"/>
<path d="M0 0 C1.36278652 0.15142524 2.72557949 0.30279245 4.08837891 0.45410156 C32.59152991 3.65989348 61.22582381 8.19928666 88.53027344 17.19140625 C91.40351354 18.13211119 94.28397735 19.04922054 97.1640625 19.96875 C115.30111189 25.82195689 132.94164187 32.47082093 150 41 C150 54.86 150 68.72 150 83 C139.8818366 79.62727887 139.8818366 79.62727887 135.2578125 77.87890625 C134.25363281 77.50056641 133.24945312 77.12222656 132.21484375 76.73242188 C131.19519531 76.34634766 130.17554688 75.96027344 129.125 75.5625 C125.08520369 74.03664063 121.04348473 72.51605709 117 71 C116.08202637 70.65243652 115.16405273 70.30487305 114.21826172 69.94677734 C107.52297246 67.45122764 100.76133197 65.39937872 93.875 63.5 C92.8746875 63.21769531 91.874375 62.93539062 90.84375 62.64453125 C75.54343261 58.38587868 60.15525257 55.13759088 44.5 52.5 C43.62024506 52.35036804 42.74049011 52.20073608 41.83407593 52.04656982 C14.81907799 47.46979826 -12.28684894 43.84643235 -39.73046875 43.83203125 C-41.21519499 43.82880045 -42.69992095 43.82543519 -44.18464661 43.82194519 C-47.28318007 43.81600474 -50.38168587 43.81409965 -53.48022461 43.81469727 C-56.59519328 43.81477794 -59.71001305 43.80792107 -62.82495117 43.79418945 C-88.50624414 43.68293459 -113.8638721 44.62593958 -139.3125 48.375 C-140.85625586 48.59654024 -142.40003894 48.81789085 -143.94384766 49.0390625 C-155.68299575 50.73777213 -167.38011663 52.60700771 -179 55 C-179.8765625 55.17998535 -180.753125 55.3599707 -181.65625 55.54541016 C-209.93350721 61.451741 -238.04023218 69.89051259 -264.4921875 81.53125 C-268 83 -268 83 -270 83 C-270 69.14 -270 55.28 -270 41 C-190.39759613 1.83056318 -95.94457701 -10.03164015 0 0 Z " fill="#FDFDFD" transform="translate(572,731)"/>
<path d="M0 0 C1.06339914 -0.00088371 1.06339914 -0.00088371 2.1482811 -0.00178528 C23.16401104 -0.0140899 43.89995295 0.29221703 64.75 3.25 C65.90951172 3.4051709 67.06902344 3.5603418 68.26367188 3.72021484 C76.11359089 4.77511492 83.93294439 5.97637278 91.75 7.25 C92.73758301 7.40581543 93.72516602 7.56163086 94.74267578 7.72216797 C186.77845427 22.27845427 186.77845427 22.27845427 208.75 44.25 C208.83871273 47.27977804 208.8651935 50.28667022 208.84765625 53.31640625 C208.84553383 54.67934059 208.84553383 54.67934059 208.84336853 56.06980896 C208.83775193 58.98407221 208.82519665 61.89825981 208.8125 64.8125 C208.80748714 66.78320202 208.80292386 68.75390524 208.79882812 70.72460938 C208.78777711 75.56643559 208.77050138 80.40820495 208.75 85.25 C204.87978653 84.59327149 201.4472976 83.46209122 197.796875 82.02734375 C196.63349609 81.57520508 195.47011719 81.12306641 194.27148438 80.65722656 C193.65748779 80.41750122 193.04349121 80.17777588 192.41088867 79.93078613 C148.78813902 62.96266791 102.86067811 52.27802883 56.16894531 48.52636719 C52.7948302 48.25362381 49.42545519 47.9438848 46.0546875 47.6328125 C-18.43484462 42.12248649 -85.78345778 46.89661384 -148.25 64.25 C-149.30767578 64.54124756 -149.30767578 64.54124756 -150.38671875 64.83837891 C-167.16238383 69.5013006 -183.69086771 74.97854012 -199.7668457 81.6730957 C-200.54503662 81.9949585 -201.32322754 82.31682129 -202.125 82.6484375 C-203.14207031 83.07648682 -203.14207031 83.07648682 -204.1796875 83.51318359 C-206.25 84.25 -206.25 84.25 -211.25 85.25 C-211.25 71.39 -211.25 57.53 -211.25 43.25 C-165.87101707 22.57999207 -119.96043409 9.62148722 -70.39697266 3.63623047 C-67.7644592 3.31313999 -65.13801057 2.96717008 -62.51171875 2.59765625 C-41.81085337 -0.25261366 -20.85450241 0.00796193 0 0 Z " fill="#FDFDFD" transform="translate(513.25,648.75)"/>
<path d="M0 0 C18.41891311 11.07161627 30.60067928 31.31507202 37.15234375 51.45703125 C41.66827007 70.53017887 37.30105208 91.75103834 33.15234375 110.45703125 C32.86399658 111.79725342 32.86399658 111.79725342 32.56982422 113.16455078 C30.25750662 123.54414978 26.55705537 130.64926379 19.15234375 138.45703125 C17.36563478 140.48750412 15.59294451 142.52311702 13.83984375 144.58203125 C13.3806958 145.12110107 12.92154785 145.6601709 12.44848633 146.21557617 C0.2271241 160.76763177 -10.62500285 177.31958192 -18.84765625 194.45703125 C-19.50765625 194.45703125 -20.16765625 194.45703125 -20.84765625 194.45703125 C-21.47027344 193.19826172 -21.47027344 193.19826172 -22.10546875 191.9140625 C-31.97167039 172.47362387 -44.6963271 153.85834868 -59.64453125 137.96875 C-65.22032688 131.61194754 -68.82015867 126.19644506 -70.97265625 117.95703125 C-71.21709473 117.05194824 -71.4615332 116.14686523 -71.71337891 115.21435547 C-76.52729085 96.7078194 -78.85054776 78.57514427 -77.84765625 59.45703125 C-77.78835938 58.29945313 -77.7290625 57.141875 -77.66796875 55.94921875 C-75.57558022 37.2197897 -61.20117894 16.73620043 -47.046875 5.16796875 C-31.78992706 -6.18699927 -17.19572528 -9.31729971 0 0 Z " fill="#FDFDFD" transform="translate(531.84765625,295.54296875)"/>
</svg>
