<?xml version="1.0" standalone="no"?>
<!DOCTYPE svg PUBLIC "-//W3C//DTD SVG 20010904//EN"
 "http://www.w3.org/TR/2001/REC-SVG-20010904/DTD/svg10.dtd">
<svg version="1.0" xmlns="http://www.w3.org/2000/svg"
 width="70.000000pt" height="70.000000pt" viewBox="0 0 70.000000 70.000000"
 preserveAspectRatio="xMidYMid meet">

<g transform="translate(0.000000,70.000000) scale(0.100000,-0.100000)"
fill="#000000" stroke="none">
<path d="M183 573 c4 -38 1 -53 -14 -72 -10 -13 -19 -31 -19 -40 0 -10 -18
-52 -40 -94 -22 -41 -40 -85 -40 -96 0 -31 41 -69 82 -76 32 -6 38 -4 55 22
23 36 37 47 96 78 61 31 62 15 4 -57 -67 -83 -77 -100 -77 -135 l0 -33 195 0
195 0 6 26 c9 36 -4 157 -26 225 -37 120 -120 216 -203 238 -31 7 -47 18 -55
36 -14 31 -38 32 -53 3 -6 -13 -13 -25 -15 -27 -2 -2 -17 8 -34 23 -49 41 -64
35 -57 -21z m151 -28 c7 -34 26 -49 26 -20 0 18 9 19 47 4 97 -36 182 -212
183 -376 l0 -63 -170 0 c-114 0 -170 4 -170 11 0 18 22 52 72 112 26 32 48 61
49 65 8 72 8 152 -1 147 -5 -3 -10 -14 -10 -23 -1 -34 -28 -64 -86 -96 -32
-18 -70 -48 -83 -67 -15 -22 -21 -26 -17 -12 8 26 -9 40 -22 17 -5 -9 -18 -14
-28 -12 -32 6 -28 51 10 126 20 37 36 73 36 80 0 24 24 63 36 58 20 -8 25 8
12 42 -7 17 -9 34 -5 38 12 12 38 -18 32 -37 -5 -15 -1 -17 22 -15 18 2 29 10
31 22 9 55 26 55 36 -1z"/>
<path d="M194 454 c-25 -37 -5 -51 29 -20 15 14 27 30 27 36 0 20 -40 10 -56
-16z"/>
<path d="M113 285 c-3 -9 -3 -18 0 -21 9 -9 27 6 27 22 0 19 -19 18 -27 -1z"/>
</g>
</svg>
