<?xml version="1.0" encoding="UTF-8"?>
<svg version="1.1" xmlns="http://www.w3.org/2000/svg" width="1024" height="1024">
<path d="M0 0 C11.58990936 6.09213184 17.44343467 15.87158894 21.42333984 28.05786133 C25.30728026 40.93911991 28.21234408 54.94371956 27.1875 68.4375 C28.22261719 68.39367187 29.25773437 68.34984375 30.32421875 68.3046875 C36.63935779 68.31299143 42.79212243 69.49998336 49 70.5625 C49.65578033 70.67387299 50.31156067 70.78524597 50.98721313 70.8999939 C135.31261346 85.28409903 218.48621581 122.35099388 272.1875 191.4375 C273.06427847 192.49374195 273.94471578 193.54695377 274.828125 194.59765625 C288.87697342 211.45340529 300.68232155 230.20293631 311.1875 249.4375 C311.66106934 250.30101074 312.13463867 251.16452148 312.62255859 252.05419922 C325.64233296 275.96308352 336.15844045 300.77417806 345.1875 326.4375 C345.75331787 328.02038818 345.75331787 328.02038818 346.33056641 329.63525391 C375.66336231 412.06460625 386.1103562 501.68329995 390.9375 588.5625 C390.99657532 589.6141333 391.05565063 590.6657666 391.11651611 591.74926758 C392.85856362 623.35844932 393.35793043 654.9542101 393.31787109 686.60546875 C393.31209759 691.20004029 393.31552417 695.79455433 393.32144356 700.38912392 C393.32508681 704.01152976 393.32389474 707.6339223 393.32131577 711.25632858 C393.32066086 712.950423 393.32142294 714.64451872 393.32379532 716.3386116 C393.33311534 724.83153961 393.23549157 733.31051687 392.81982422 741.79443359 C392.79157625 742.49291727 392.76332829 743.19140095 392.73422432 743.9110508 C392.41984369 749.43774233 391.15203165 753.51738888 387.1875 757.4375 C381.62401375 761.64403839 376.20058335 761.58321147 369.43765545 761.56892776 C368.54029919 761.5709804 367.64294294 761.57303303 366.71839407 761.57514787 C363.68982784 761.58083467 360.66130685 761.57935855 357.63273621 761.57794189 C355.44812811 761.58052456 353.26352048 761.58353744 351.07891351 761.5869453 C345.05862873 761.59503 339.03835586 761.59680568 333.01806629 761.59754276 C326.53191295 761.59939074 320.04576584 761.60693673 313.55961609 761.61367798 C298.62961886 761.62824988 283.6996229 761.63378895 268.76961984 761.63836992 C261.39361134 761.64070523 254.01760362 761.64430779 246.64159573 761.6480653 C221.39819897 761.66090056 196.15480265 761.67162026 170.9114027 761.6750679 C169.32662235 761.67528953 167.741842 761.67551132 166.15706166 761.67573325 C164.56843356 761.67595389 162.97980546 761.67617438 161.39117736 761.6763947 C158.2040629 761.67683726 155.01694844 761.67728437 151.82983398 761.67773438 C151.03961422 761.67784377 150.24939445 761.67795316 149.43522862 761.67806586 C123.80491725 761.68169753 98.17463413 761.69762187 72.54433358 761.72092474 C45.45318895 761.74551082 18.36206048 761.75924015 -8.72909564 761.76043582 C-11.70194702 761.76060728 -14.67479839 761.76082271 -17.64764977 761.76107025 C-18.74566745 761.7611539 -18.74566745 761.7611539 -19.86586732 761.76123925 C-31.65456205 761.76239069 -43.4432278 761.77342053 -55.23191274 761.78795731 C-67.07663067 761.80231085 -78.92130821 761.80531286 -90.76603249 761.79751733 C-97.18503363 761.79360096 -103.60393711 761.79458854 -110.02292633 761.80857468 C-115.89581586 761.82125425 -121.76853374 761.82016855 -127.64142283 761.80798396 C-129.76927539 761.80601664 -131.89713986 761.80915282 -134.02497564 761.81782833 C-136.91190448 761.82885624 -139.79822064 761.82147833 -142.68513203 761.8094368 C-143.51590263 761.81703199 -144.34667322 761.82462718 -145.20261869 761.83245254 C-151.1951338 761.77830053 -156.15224311 760.81689311 -160.7734375 756.68359375 C-161.24007812 756.08675781 -161.70671875 755.48992188 -162.1875 754.875 C-162.66960937 754.27558594 -163.15171875 753.67617188 -163.6484375 753.05859375 C-171.18515834 742.5628248 -165.67037743 717.67411461 -163.84765625 705.4453125 C-158.46720013 672.84199249 -146.60812427 642.98211338 -126.8125 616.4375 C-126.36406738 615.83357422 -125.91563477 615.22964844 -125.45361328 614.60742188 C-117.01242257 603.3362893 -107.58254306 593.05670893 -97.5390625 583.19921875 C-95.86372518 581.48976823 -94.33579025 579.72005476 -92.8125 577.875 C-90.76020467 575.42105333 -88.61400756 573.32695379 -86.17358398 571.26074219 C-81.60036621 567.30392795 -77.31308831 563.09980695 -73.03515625 558.828125 C-72.22437119 558.02066833 -71.41358612 557.21321167 -70.57823181 556.38128662 C-68.87351959 554.68160819 -67.17013401 552.98059825 -65.46801758 551.27832031 C-62.89099647 548.70348292 -60.30608146 546.13675484 -57.72070312 543.5703125 C-49.62455975 535.5015284 -41.79824505 527.49975127 -34.8125 518.4375 C-33.91618043 517.37288381 -33.01254479 516.31432675 -32.09765625 515.265625 C0.89945641 476.99129397 19.30426661 423.70150931 20.1875 373.4375 C19.00994141 374.72333984 19.00994141 374.72333984 17.80859375 376.03515625 C10.70553913 383.77427153 3.64798786 391.37282306 -4.32421875 398.23046875 C-6.98755857 400.59277173 -9.57689063 403.02236857 -12.16625977 405.46508789 C-17.95427402 410.92413112 -23.79029969 416.20005042 -30.01171875 421.16796875 C-32.68829612 423.33685502 -35.29695365 425.56528588 -37.8984375 427.82275391 C-44.37092188 433.43848203 -50.99933074 438.785071 -57.84228516 443.94433594 C-60.13679383 445.68327213 -62.4180972 447.43885328 -64.69921875 449.1953125 C-77.40315521 458.96053247 -90.34249721 468.27701231 -103.5234375 477.3828125 C-123.55416518 491.23222093 -142.82570053 504.98095332 -157.8125 524.4375 C-158.73917676 525.59096693 -159.66906003 526.74186266 -160.6015625 527.890625 C-165.91918235 534.45035468 -171.08879924 541.09668732 -176.125 547.875 C-187.9962932 563.75363182 -201.49936035 576.68723563 -221.8125 579.9140625 C-230.67801708 580.84841847 -241.29537824 581.46163662 -249.328125 577.05859375 C-255.83460534 571.7068895 -260.76372659 564.83974215 -261.8125 556.4375 C-262.96363281 556.581875 -264.11476563 556.72625 -265.30078125 556.875 C-292.41855127 560.11118238 -318.16101402 559.69017653 -340.76171875 542.1484375 C-359.83975606 525.90485145 -366.65462023 500.27211403 -369.8125 476.4375 C-369.94527344 475.46039062 -370.07804687 474.48328125 -370.21484375 473.4765625 C-370.53793633 470.45808112 -370.69592158 467.47186973 -370.8125 464.4375 C-370.85036621 463.59977051 -370.88823242 462.76204102 -370.92724609 461.89892578 C-371.50951355 447.48964878 -370.42571629 435.09397291 -365.8125 421.4375 C-365.43424072 420.25462402 -365.43424072 420.25462402 -365.04833984 419.04785156 C-352.42700379 379.79714167 -331.77038836 341.65295063 -311.7578125 305.76171875 C-308.38609677 299.71067229 -305.15787201 293.58414445 -301.91567993 287.4631958 C-295.31102233 275.00380683 -288.53252264 262.66042354 -281.52246094 250.42333984 C-279.66916412 247.18721475 -277.82252587 243.94734475 -275.9765625 240.70703125 C-268.25138575 227.1525405 -260.50357985 213.61042758 -252.671875 200.1171875 C-250.29172485 196.0139462 -247.93866373 191.89722517 -245.6114502 187.76387024 C-231.68605378 163.06575955 -231.68605378 163.06575955 -222.515625 154.12109375 C-208.95210752 140.65557856 -196.08196752 120.82740938 -190.8125 102.4375 C-190.91042459 98.22674262 -192.41117318 95.05298276 -194.1875 91.3125 C-199.0484442 81.00055478 -200.93559329 70.05793896 -200.9453125 58.703125 C-200.94626923 57.98445251 -200.94722595 57.26578003 -200.94821167 56.52532959 C-200.94888816 55.01265373 -200.94707116 53.49997487 -200.94287109 51.98730469 C-200.93754697 49.70761358 -200.94281791 47.42812232 -200.94921875 45.1484375 C-200.96358602 20.36050669 -200.96358602 20.36050669 -195.8125 14.4375 C-188.05651294 7.16303763 -180.58540024 4.8566273 -170.046875 5.16015625 C-152.10669262 6.69850522 -138.46312584 20.67900425 -127.16015625 33.58203125 C-104.8125 60.76362313 -104.8125 60.76362313 -104.8125 66.4375 C-96.5625 66.4375 -88.3125 66.4375 -79.8125 66.4375 C-79.1525 64.7875 -78.4925 63.1375 -77.8125 61.4375 C-65.96405139 38.67824979 -31.52240027 -12.79567816 0 0 Z " fill="#FEFEFE" transform="translate(489.8125,150.5625)"/>
<path d="M0 0 C11.58990936 6.09213184 17.44343467 15.87158894 21.42333984 28.05786133 C25.30728026 40.93911991 28.21234408 54.94371956 27.1875 68.4375 C28.22261719 68.39367187 29.25773437 68.34984375 30.32421875 68.3046875 C36.63935779 68.31299143 42.79212243 69.49998336 49 70.5625 C49.65578033 70.67387299 50.31156067 70.78524597 50.98721313 70.8999939 C135.31261346 85.28409903 218.48621581 122.35099388 272.1875 191.4375 C273.06427847 192.49374195 273.94471578 193.54695377 274.828125 194.59765625 C288.87697342 211.45340529 300.68232155 230.20293631 311.1875 249.4375 C311.66106934 250.30101074 312.13463867 251.16452148 312.62255859 252.05419922 C325.64233296 275.96308352 336.15844045 300.77417806 345.1875 326.4375 C345.75331787 328.02038818 345.75331787 328.02038818 346.33056641 329.63525391 C375.66336231 412.06460625 386.1103562 501.68329995 390.9375 588.5625 C390.99657532 589.6141333 391.05565063 590.6657666 391.11651611 591.74926758 C392.85856362 623.35844932 393.35793043 654.9542101 393.31787109 686.60546875 C393.31209759 691.20004029 393.31552417 695.79455433 393.32144356 700.38912392 C393.32508681 704.01152976 393.32389474 707.6339223 393.32131577 711.25632858 C393.32066086 712.950423 393.32142294 714.64451872 393.32379532 716.3386116 C393.33311534 724.83153961 393.23549157 733.31051687 392.81982422 741.79443359 C392.79157625 742.49291727 392.76332829 743.19140095 392.73422432 743.9110508 C392.41984369 749.43774233 391.15203165 753.51738888 387.1875 757.4375 C381.62401375 761.64403839 376.20058335 761.58321147 369.43765545 761.56892776 C368.54029919 761.5709804 367.64294294 761.57303303 366.71839407 761.57514787 C363.68982784 761.58083467 360.66130685 761.57935855 357.63273621 761.57794189 C355.44812811 761.58052456 353.26352048 761.58353744 351.07891351 761.5869453 C345.05862873 761.59503 339.03835586 761.59680568 333.01806629 761.59754276 C326.53191295 761.59939074 320.04576584 761.60693673 313.55961609 761.61367798 C298.62961886 761.62824988 283.6996229 761.63378895 268.76961984 761.63836992 C261.39361134 761.64070523 254.01760362 761.64430779 246.64159573 761.6480653 C221.39819897 761.66090056 196.15480265 761.67162026 170.9114027 761.6750679 C169.32662235 761.67528953 167.741842 761.67551132 166.15706166 761.67573325 C164.56843356 761.67595389 162.97980546 761.67617438 161.39117736 761.6763947 C158.2040629 761.67683726 155.01694844 761.67728437 151.82983398 761.67773438 C151.03961422 761.67784377 150.24939445 761.67795316 149.43522862 761.67806586 C123.80491725 761.68169753 98.17463413 761.69762187 72.54433358 761.72092474 C45.45318895 761.74551082 18.36206048 761.75924015 -8.72909564 761.76043582 C-11.70194702 761.76060728 -14.67479839 761.76082271 -17.64764977 761.76107025 C-18.74566745 761.7611539 -18.74566745 761.7611539 -19.86586732 761.76123925 C-31.65456205 761.76239069 -43.4432278 761.77342053 -55.23191274 761.78795731 C-67.07663067 761.80231085 -78.92130821 761.80531286 -90.76603249 761.79751733 C-97.18503363 761.79360096 -103.60393711 761.79458854 -110.02292633 761.80857468 C-115.89581586 761.82125425 -121.76853374 761.82016855 -127.64142283 761.80798396 C-129.76927539 761.80601664 -131.89713986 761.80915282 -134.02497564 761.81782833 C-136.91190448 761.82885624 -139.79822064 761.82147833 -142.68513203 761.8094368 C-143.51590263 761.81703199 -144.34667322 761.82462718 -145.20261869 761.83245254 C-151.1951338 761.77830053 -156.15224311 760.81689311 -160.7734375 756.68359375 C-161.24007812 756.08675781 -161.70671875 755.48992188 -162.1875 754.875 C-162.66960937 754.27558594 -163.15171875 753.67617188 -163.6484375 753.05859375 C-171.18515834 742.5628248 -165.67037743 717.67411461 -163.84765625 705.4453125 C-158.46720013 672.84199249 -146.60812427 642.98211338 -126.8125 616.4375 C-126.36406738 615.83357422 -125.91563477 615.22964844 -125.45361328 614.60742188 C-117.01242257 603.3362893 -107.58254306 593.05670893 -97.5390625 583.19921875 C-95.86372518 581.48976823 -94.33579025 579.72005476 -92.8125 577.875 C-90.76020467 575.42105333 -88.61400756 573.32695379 -86.17358398 571.26074219 C-81.60036621 567.30392795 -77.31308831 563.09980695 -73.03515625 558.828125 C-72.22437119 558.02066833 -71.41358612 557.21321167 -70.57823181 556.38128662 C-68.87351959 554.68160819 -67.17013401 552.98059825 -65.46801758 551.27832031 C-62.89099647 548.70348292 -60.30608146 546.13675484 -57.72070312 543.5703125 C-49.62455975 535.5015284 -41.79824505 527.49975127 -34.8125 518.4375 C-33.91618043 517.37288381 -33.01254479 516.31432675 -32.09765625 515.265625 C0.89945641 476.99129397 19.30426661 423.70150931 20.1875 373.4375 C19.00994141 374.72333984 19.00994141 374.72333984 17.80859375 376.03515625 C10.70553913 383.77427153 3.64798786 391.37282306 -4.32421875 398.23046875 C-6.98755857 400.59277173 -9.57689063 403.02236857 -12.16625977 405.46508789 C-17.95427402 410.92413112 -23.79029969 416.20005042 -30.01171875 421.16796875 C-32.68829612 423.33685502 -35.29695365 425.56528588 -37.8984375 427.82275391 C-44.37092188 433.43848203 -50.99933074 438.785071 -57.84228516 443.94433594 C-60.13679383 445.68327213 -62.4180972 447.43885328 -64.69921875 449.1953125 C-77.40315521 458.96053247 -90.34249721 468.27701231 -103.5234375 477.3828125 C-123.55416518 491.23222093 -142.82570053 504.98095332 -157.8125 524.4375 C-158.73917676 525.59096693 -159.66906003 526.74186266 -160.6015625 527.890625 C-165.91918235 534.45035468 -171.08879924 541.09668732 -176.125 547.875 C-187.9962932 563.75363182 -201.49936035 576.68723563 -221.8125 579.9140625 C-230.67801708 580.84841847 -241.29537824 581.46163662 -249.328125 577.05859375 C-255.83460534 571.7068895 -260.76372659 564.83974215 -261.8125 556.4375 C-262.96363281 556.581875 -264.11476563 556.72625 -265.30078125 556.875 C-292.41855127 560.11118238 -318.16101402 559.69017653 -340.76171875 542.1484375 C-359.83975606 525.90485145 -366.65462023 500.27211403 -369.8125 476.4375 C-369.94527344 475.46039062 -370.07804687 474.48328125 -370.21484375 473.4765625 C-370.53793633 470.45808112 -370.69592158 467.47186973 -370.8125 464.4375 C-370.85036621 463.59977051 -370.88823242 462.76204102 -370.92724609 461.89892578 C-371.50951355 447.48964878 -370.42571629 435.09397291 -365.8125 421.4375 C-365.43424072 420.25462402 -365.43424072 420.25462402 -365.04833984 419.04785156 C-352.42700379 379.79714167 -331.77038836 341.65295063 -311.7578125 305.76171875 C-308.38609677 299.71067229 -305.15787201 293.58414445 -301.91567993 287.4631958 C-295.31102233 275.00380683 -288.53252264 262.66042354 -281.52246094 250.42333984 C-279.66916412 247.18721475 -277.82252587 243.94734475 -275.9765625 240.70703125 C-268.25138575 227.1525405 -260.50357985 213.61042758 -252.671875 200.1171875 C-250.29172485 196.0139462 -247.93866373 191.89722517 -245.6114502 187.76387024 C-231.68605378 163.06575955 -231.68605378 163.06575955 -222.515625 154.12109375 C-208.95210752 140.65557856 -196.08196752 120.82740938 -190.8125 102.4375 C-190.91042459 98.22674262 -192.41117318 95.05298276 -194.1875 91.3125 C-199.0484442 81.00055478 -200.93559329 70.05793896 -200.9453125 58.703125 C-200.94626923 57.98445251 -200.94722595 57.26578003 -200.94821167 56.52532959 C-200.94888816 55.01265373 -200.94707116 53.49997487 -200.94287109 51.98730469 C-200.93754697 49.70761358 -200.94281791 47.42812232 -200.94921875 45.1484375 C-200.96358602 20.36050669 -200.96358602 20.36050669 -195.8125 14.4375 C-188.05651294 7.16303763 -180.58540024 4.8566273 -170.046875 5.16015625 C-152.10669262 6.69850522 -138.46312584 20.67900425 -127.16015625 33.58203125 C-104.8125 60.76362313 -104.8125 60.76362313 -104.8125 66.4375 C-96.5625 66.4375 -88.3125 66.4375 -79.8125 66.4375 C-79.1525 64.7875 -78.4925 63.1375 -77.8125 61.4375 C-65.96405139 38.67824979 -31.52240027 -12.79567816 0 0 Z M-20.52563477 42.77026367 C-33.67369239 55.94920175 -43.15905262 69.60642029 -51.72265625 86.1015625 C-52.32980469 87.26429688 -52.93695313 88.42703125 -53.5625 89.625 C-54.09359375 90.67042969 -54.6246875 91.71585938 -55.171875 92.79296875 C-57.51257208 96.56594952 -59.63667928 98.04555976 -63.8125 99.4375 C-65.6109744 99.5404643 -67.41298043 99.58599289 -69.21435547 99.59863281 C-70.31915253 99.60824036 -71.42394958 99.6178479 -72.56222534 99.62774658 C-73.75598785 99.63199646 -74.94975037 99.63624634 -76.1796875 99.640625 C-77.40656281 99.64632507 -78.63343811 99.65202515 -79.89749146 99.65789795 C-82.49496599 99.66735044 -85.09245253 99.67388291 -87.68994141 99.67773438 C-91.66460049 99.68744406 -95.63874347 99.71846778 -99.61328125 99.75 C-102.13541359 99.75652961 -104.65754964 99.76178025 -107.1796875 99.765625 C-108.36940155 99.7779718 -109.5591156 99.7903186 -110.78488159 99.80303955 C-111.89598297 99.80003845 -113.00708435 99.79703735 -114.15185547 99.79394531 C-115.12653778 99.79759094 -116.10122009 99.80123657 -117.10543823 99.80499268 C-120.28439884 99.37343816 -122.14812386 98.1710289 -124.8125 96.4375 C-125.4725 96.4375 -126.1325 96.4375 -126.8125 96.4375 C-127.06257812 95.91671875 -127.31265625 95.3959375 -127.5703125 94.859375 C-136.43657212 77.57295687 -149.03780594 58.28315388 -163.8125 45.4375 C-164.4725 45.4375 -165.1325 45.4375 -165.8125 45.4375 C-166.55922839 65.33560716 -166.55922839 65.33560716 -158.5625 83.1875 C-153.60334433 91.15757161 -154.83322286 100.32568559 -156.75 109.10546875 C-162.94035854 133.64175399 -177.5707911 155.38133275 -194.046875 174.21484375 C-194.971622 175.28659112 -195.89316051 176.36111051 -196.8125 177.4375 C-197.41368652 178.13810547 -198.01487305 178.83871094 -198.63427734 179.56054688 C-204.21635951 186.27595674 -208.61971659 193.50547547 -212.9375 201.0625 C-213.68060748 202.34908885 -214.42451795 203.63521421 -215.16918945 204.92089844 C-216.67365785 207.52032776 -218.17405552 210.12203945 -219.67138672 212.72558594 C-221.60876261 216.09026796 -223.56764344 219.44189457 -225.53515625 222.7890625 C-232.63703754 234.87166387 -239.5591521 247.04517601 -246.37890625 259.2890625 C-249.12862932 264.22382644 -251.91070534 269.13924691 -254.70507812 274.04882812 C-261.10941777 285.30894899 -267.29421168 296.67656532 -273.40625 308.09765625 C-275.54894926 312.09828858 -277.7116625 316.08619291 -279.90625 320.05859375 C-287.09217212 333.0678942 -293.82318303 346.26708909 -300.40380859 359.59228516 C-301.90523023 362.62479257 -303.42514381 365.64743463 -304.95141602 368.66748047 C-306.21819751 371.18095175 -307.46922236 373.70204562 -308.71679688 376.22509766 C-309.51962321 377.84613426 -310.32613821 379.46534545 -311.13476562 381.08349609 C-317.22278095 393.3027772 -322.87000382 405.61484239 -327.875 418.3125 C-328.32786377 419.4581543 -328.78072754 420.60380859 -329.24731445 421.78417969 C-333.47410302 432.72334889 -336.33706044 442.33309611 -336.125 454.125 C-336.11299561 455.17373291 -336.10099121 456.22246582 -336.08862305 457.30297852 C-335.73842245 476.7219744 -333.24299048 499.28322877 -319.5625 514.3125 C-313.35463008 520.06411222 -305.48474164 523.55874596 -297.03125 523.5703125 C-296.11174561 523.57240723 -295.19224121 523.57450195 -294.24487305 523.57666016 C-293.27718994 523.5719873 -292.30950684 523.56731445 -291.3125 523.5625 C-290.32741455 523.55911621 -289.3423291 523.55573242 -288.32739258 523.55224609 C-278.00961078 523.67340906 -278.00961078 523.67340906 -267.8125 522.4375 C-266.58309682 519.97869365 -266.65544514 518.27560551 -266.6015625 515.52734375 C-266.57320313 514.53669922 -266.54484375 513.54605469 -266.515625 512.52539062 C-266.46422383 510.45263851 -266.41976074 508.37970074 -266.3828125 506.30664062 C-266.09243717 496.92388776 -264.68748161 489.15623203 -257.8125 482.4375 C-249.90781999 476.89534233 -242.238734 476.73777955 -232.8125 477.4375 C-226.02046486 478.83462247 -221.18319218 481.10781288 -216.93359375 486.65625 C-212.69190095 493.39566434 -212.42540671 500.69558395 -213.8125 508.4375 C-215.81681424 514.87022534 -218.72774109 520.9379923 -221.64160156 526.99975586 C-222.80726335 529.42659759 -223.94735609 531.86203889 -225.0625 534.3125 C-225.54203125 535.35857422 -225.54203125 535.35857422 -226.03125 536.42578125 C-227.1954665 539.42363874 -227.54056886 542.24230908 -227.8125 545.4375 C-214.07468974 543.38129846 -206.87478174 531.76037768 -199.125 521.375 C-197.22432618 518.80018278 -195.32991873 516.22089476 -193.43798828 513.63964844 C-190.35706844 509.46573781 -187.12043605 505.43236631 -183.8125 501.4375 C-182.9875 500.42816406 -182.1625 499.41882813 -181.3125 498.37890625 C-165.43477996 479.13275137 -146.61972248 464.1257006 -125.8125 450.4375 C-110.27476989 440.20689581 -95.53746687 428.78957366 -80.8125 417.4375 C-80.1313916 416.91381836 -79.4502832 416.39013672 -78.74853516 415.85058594 C-71.60731102 410.34993829 -64.65676165 404.6746487 -57.84545898 398.76977539 C-54.43223047 395.8115163 -50.97095427 392.94014369 -47.4375 390.125 C-35.64131197 380.49059535 -24.90095849 369.62913229 -14.10525513 358.90548706 C-12.9683242 357.77661734 -11.82991885 356.64923027 -10.68991089 355.52346802 C-3.58414988 348.49720359 2.99320083 341.29854471 9.1875 333.4375 C10.15074604 332.26713859 11.11645533 331.09879463 12.0859375 329.93359375 C21.72868769 318.02464517 30.75225316 304.85364298 36.1875 290.4375 C36.44281494 289.79329102 36.69812988 289.14908203 36.96118164 288.48535156 C39.42369684 281.83984388 39.6216561 275.74650613 39.62695312 268.72265625 C39.78707267 261.53384091 41.40814713 257.14736905 46.6875 252 C51.86174739 249.69006813 56.61083292 249.68679482 62.1875 250.4375 C67.14979786 252.741424 69.64417701 255.63817502 72.1875 260.4375 C72.71870049 264.03450718 72.65566512 267.55896394 72.5625 271.1875 C72.56056641 272.59515625 72.56056641 272.59515625 72.55859375 274.03125 C72.40493543 286.39220842 69.86491735 300.53771224 62.96264648 310.99975586 C54.63451792 323.80444304 55.03161922 336.05081868 55.3125 350.9375 C55.35786849 355.5521234 55.37764622 360.16641446 55.3828125 364.78125 C55.38557693 365.91580124 55.38834137 367.05035248 55.39118958 368.21928406 C55.33252022 380.09054458 53.94409254 391.71093369 52.1875 403.4375 C52.07547241 404.19327332 51.96344482 404.94904663 51.84802246 405.72772217 C51.22163553 409.87450168 50.51242705 414.00125872 49.75 418.125 C49.4247937 419.90052246 49.4247937 419.90052246 49.09301758 421.71191406 C47.57164782 429.81767357 45.7824749 437.60202384 43.1875 445.4375 C42.63949232 447.21058782 42.09273872 448.98406347 41.546875 450.7578125 C30.322065 486.51613625 11.74796952 520.2962298 -14.14453125 547.59375 C-16.0432425 549.61755935 -17.83473584 551.6421078 -19.62231445 553.7565918 C-24.66073194 559.52418881 -30.13731013 564.8567113 -35.57447433 570.24407387 C-37.56301726 572.21501058 -39.54781207 574.18965386 -41.53164673 576.16532898 C-47.16782781 581.77724991 -52.80963476 587.38348879 -58.45605469 592.98510742 C-61.92441556 596.42646484 -65.38770737 599.87285935 -68.84807205 603.32225609 C-70.15609221 604.62413031 -71.46599793 605.92411326 -72.77793503 607.22204018 C-80.27195404 614.63673571 -87.34383292 622.09349919 -93.8125 630.4375 C-94.35464142 631.12851807 -94.89678284 631.81953613 -95.45535278 632.53149414 C-102.55834897 641.63311228 -108.51400308 651.18949371 -113.8125 661.4375 C-114.13734375 662.06124512 -114.4621875 662.68499023 -114.796875 663.32763672 C-119.77534469 673.0218802 -123.08770832 682.90267982 -125.8125 693.4375 C-126.11027344 694.571875 -126.40804687 695.70625 -126.71484375 696.875 C-129.09394614 706.53344551 -130.8125 716.47644933 -130.8125 726.4375 C30.5575 726.4375 191.9275 726.4375 358.1875 726.4375 C358.85444054 656.35789301 358.85444054 656.35789301 356.28515625 586.359375 C356.16121742 584.51137299 356.16121742 584.51137299 356.03477478 582.6260376 C355.86301944 580.08273691 355.68910416 577.5395811 355.51293945 574.99658203 C355.24726574 571.14789009 354.99141515 567.29862538 354.73632812 563.44921875 C353.97563509 552.18352758 353.1641667 540.97090487 351.63647461 529.78125 C351.05913752 525.48151714 350.65647017 521.17363788 350.25048828 516.85498047 C346.71784229 479.69330816 340.62944886 442.92469193 332.25 406.5625 C332.04475708 405.66773956 331.83951416 404.77297913 331.62805176 403.85110474 C327.17042733 384.50573556 321.75097546 365.50730328 315.4375 346.6875 C315.18115784 345.92056824 314.92481567 345.15363647 314.66070557 344.36346436 C310.01586044 330.50614646 304.95018832 316.87368727 299.1875 303.4375 C298.78853516 302.50341309 298.38957031 301.56932617 297.97851562 300.60693359 C282.98449068 265.82007137 263.0729865 233.96570024 238.1875 205.4375 C237.46433594 204.6021875 236.74117187 203.766875 235.99609375 202.90625 C226.24416749 191.8432913 215.86290137 181.46284269 204.1875 172.4375 C202.92278809 171.43278113 201.6584947 170.42753529 200.39453125 169.421875 C190.11489324 161.3201882 179.42128116 154.14626992 168.1875 147.4375 C167.4651416 147.0034082 166.7427832 146.56931641 165.99853516 146.12207031 C128.52302506 123.82358477 85.71854525 111.35120074 42.85693359 104.86279297 C39.13606681 104.26998613 35.43683203 103.57237924 31.73632812 102.86450195 C29.09624849 102.42221275 26.47984082 102.15479132 23.8125 101.9375 C4.45393741 100.29882684 4.45393741 100.29882684 -0.8125 95.4375 C-4.37295493 90.72230293 -5.91514954 87.27827876 -5.98828125 81.4140625 C-6.21390644 70.64067408 -6.68978359 60.16084588 -8.75 49.5625 C-9.00487183 48.24499756 -9.00487183 48.24499756 -9.26489258 46.90087891 C-10.05659452 43.1071971 -10.62477275 40.71909087 -12.8125 37.4375 C-16.27446679 37.4375 -18.15307858 40.44672613 -20.52563477 42.77026367 Z " fill="#000000" transform="translate(489.8125,150.5625)"/>
<path d="M0 0 C1.7634375 -0.01160156 1.7634375 -0.01160156 3.5625 -0.0234375 C10.94372451 0.83211352 14.99007977 4.91916566 19.6875 10.3125 C23.65921197 16.55376166 23.76933155 23.19997106 23 30.375 C18.18743572 51.99796323 5.73779176 76.25023764 -12.875 89 C-20.32333704 93.67291107 -27.29072886 94.47572828 -36 93.375 C-41.95266506 90.94362976 -46.02514559 87.08672048 -49 81.375 C-54.10554315 67.92170746 -49.78756636 54.71835521 -44.16796875 42.1875 C-36.26175171 25.35484497 -21.01695393 -0.13826943 0 0 Z " fill="#010101" transform="translate(344,312.625)"/>
<path d="M0 0 C5.82752994 4.47416944 10.26070555 9.77274543 12 17 C13.12292688 26.12244412 12.27129017 33.36973467 7 41 C2.79620505 46.11272359 -3.33185762 50.83876156 -10 52 C-18.13692275 52.61127129 -25.21495854 52.9096255 -32 48 C-32.62519531 47.56429687 -33.25039062 47.12859375 -33.89453125 46.6796875 C-39.36519209 42.46439936 -41.85018551 37.44944346 -44 31 C-44.604046 22.65228227 -45.05468919 15.04486299 -40 8 C-39.443125 7.13375 -38.88625 6.2675 -38.3125 5.375 C-28.03168493 -5.18367494 -12.94898579 -7.85793155 0 0 Z " fill="#010101" transform="translate(221,563)"/>
</svg>
