<?xml version="1.0" encoding="UTF-8"?>
<svg version="1.1" xmlns="http://www.w3.org/2000/svg" width="1024" height="1024">
<path d="M0 0 C21.86340192 19.8902299 35.30074175 46.34347155 37.0234375 76.02197266 C37.73586348 95.20080381 33.8424727 112.85864841 26.109375 130.33544922 C27.50736328 131.516875 27.50736328 131.516875 28.93359375 132.72216797 C63.35197787 162.02756092 89.21014873 200.08255824 93.109375 246.33544922 C94.26962254 265.85912809 93.99546193 285.31287733 89.109375 304.33544922 C88.93277344 305.07134277 88.75617188 305.80723633 88.57421875 306.56542969 C83.14311626 328.93855468 72.08614408 350.85558571 56.88671875 368.17138672 C55.2487367 370.16576487 54.14553312 371.98396084 53.109375 374.33544922 C53.83511719 374.60615234 54.56085938 374.87685547 55.30859375 375.15576172 C82.40244298 386.5676759 109.73723045 414.40296184 127.109375 437.33544922 C128.13020709 438.64115673 129.15246314 439.94575165 130.17578125 441.24951172 C189.46861715 517.20895845 207.109375 607.86147562 207.109375 702.33544922 C22.969375 702.33544922 -161.170625 702.33544922 -350.890625 702.33544922 C-350.890625 612.0256356 -336.01974055 520.21927761 -278.31103516 447.14111328 C-276.8956986 445.34189891 -275.50603547 443.52531631 -274.12109375 441.70263672 C-267.82813252 433.47156477 -261.08735379 425.78580722 -253.890625 418.33544922 C-253.29169434 417.71460449 -252.69276367 417.09375977 -252.07568359 416.45410156 C-244.40822311 408.54919714 -236.65496976 401.03416279 -227.890625 394.33544922 C-227.29137207 393.87041992 -226.69211914 393.40539062 -226.07470703 392.92626953 C-202.09290703 374.33544922 -202.09290703 374.33544922 -196.890625 374.33544922 C-199.07807908 370.4793603 -201.59724241 367.14776092 -204.390625 363.71044922 C-218.99171569 345.09419424 -228.52667868 323.27255689 -233.890625 300.33544922 C-234.2103125 299.06056641 -234.53 297.78568359 -234.859375 296.47216797 C-239.54794028 275.46083518 -239.2754402 249.16350801 -233.890625 228.33544922 C-233.69194824 227.52188965 -233.49327148 226.70833008 -233.28857422 225.87011719 C-225.89576444 196.01645611 -211.25028286 170.34576892 -189.890625 148.33544922 C-189.106875 147.51173828 -188.323125 146.68802734 -187.515625 145.83935547 C-182.02662977 140.18373003 -176.06895094 135.2203686 -169.890625 130.33544922 C-170.27734375 129.46146484 -170.6640625 128.58748047 -171.0625 127.68701172 C-183.15737232 99.50584251 -184.04228127 69.0053647 -172.890625 40.33544922 C-161.04173924 12.94488912 -139.35619318 -8.16990452 -111.81835938 -19.51855469 C-74.11112205 -33.79186385 -30.39035791 -26.75638691 0 0 Z " fill="#FEFEFE" transform="translate(583.890625,213.66455078125)"/>
<path d="M0 0 C21.86340192 19.8902299 35.30074175 46.34347155 37.0234375 76.02197266 C37.73586348 95.20080381 33.8424727 112.85864841 26.109375 130.33544922 C27.50736328 131.516875 27.50736328 131.516875 28.93359375 132.72216797 C63.35197787 162.02756092 89.21014873 200.08255824 93.109375 246.33544922 C94.26962254 265.85912809 93.99546193 285.31287733 89.109375 304.33544922 C88.93277344 305.07134277 88.75617188 305.80723633 88.57421875 306.56542969 C83.14311626 328.93855468 72.08614408 350.85558571 56.88671875 368.17138672 C55.2487367 370.16576487 54.14553312 371.98396084 53.109375 374.33544922 C53.83511719 374.60615234 54.56085938 374.87685547 55.30859375 375.15576172 C82.40244298 386.5676759 109.73723045 414.40296184 127.109375 437.33544922 C128.13020709 438.64115673 129.15246314 439.94575165 130.17578125 441.24951172 C189.46861715 517.20895845 207.109375 607.86147562 207.109375 702.33544922 C22.969375 702.33544922 -161.170625 702.33544922 -350.890625 702.33544922 C-350.890625 612.0256356 -336.01974055 520.21927761 -278.31103516 447.14111328 C-276.8956986 445.34189891 -275.50603547 443.52531631 -274.12109375 441.70263672 C-267.82813252 433.47156477 -261.08735379 425.78580722 -253.890625 418.33544922 C-253.29169434 417.71460449 -252.69276367 417.09375977 -252.07568359 416.45410156 C-244.40822311 408.54919714 -236.65496976 401.03416279 -227.890625 394.33544922 C-227.29137207 393.87041992 -226.69211914 393.40539062 -226.07470703 392.92626953 C-202.09290703 374.33544922 -202.09290703 374.33544922 -196.890625 374.33544922 C-199.07807908 370.4793603 -201.59724241 367.14776092 -204.390625 363.71044922 C-218.99171569 345.09419424 -228.52667868 323.27255689 -233.890625 300.33544922 C-234.2103125 299.06056641 -234.53 297.78568359 -234.859375 296.47216797 C-239.54794028 275.46083518 -239.2754402 249.16350801 -233.890625 228.33544922 C-233.69194824 227.52188965 -233.49327148 226.70833008 -233.28857422 225.87011719 C-225.89576444 196.01645611 -211.25028286 170.34576892 -189.890625 148.33544922 C-189.106875 147.51173828 -188.323125 146.68802734 -187.515625 145.83935547 C-182.02662977 140.18373003 -176.06895094 135.2203686 -169.890625 130.33544922 C-170.27734375 129.46146484 -170.6640625 128.58748047 -171.0625 127.68701172 C-183.15737232 99.50584251 -184.04228127 69.0053647 -172.890625 40.33544922 C-161.04173924 12.94488912 -139.35619318 -8.16990452 -111.81835938 -19.51855469 C-74.11112205 -33.79186385 -30.39035791 -26.75638691 0 0 Z M-127.54296875 32.54638672 C-141.97084911 49.68699667 -147.54081574 69.17019084 -145.890625 91.33544922 C-143.86706543 107.82492124 -135.44802971 121.80198131 -125.75195312 134.92895508 C-125.25115234 135.60708252 -124.75035156 136.28520996 -124.234375 136.98388672 C-123.78255859 137.58378418 -123.33074219 138.18368164 -122.86523438 138.80175781 C-121.890625 140.33544922 -121.890625 140.33544922 -121.890625 142.33544922 C-122.46393555 142.6518335 -123.03724609 142.96821777 -123.62792969 143.29418945 C-138.78891189 151.70023343 -152.21161798 160.41273385 -164.890625 172.33544922 C-165.77621094 173.12435547 -165.77621094 173.12435547 -166.6796875 173.92919922 C-182.39709107 188.52925182 -193.2205394 209.89192958 -198.890625 230.33544922 C-199.10976563 231.03927734 -199.32890625 231.74310547 -199.5546875 232.46826172 C-208.78003624 264.27506111 -201.94605239 300.00259055 -186.38378906 328.53564453 C-182.50745955 335.30357753 -177.94991813 341.41362545 -172.890625 347.33544922 C-172.46023926 347.84414551 -172.02985352 348.3528418 -171.58642578 348.87695312 C-164.7252029 356.90333733 -157.10698057 363.72810832 -148.890625 370.33544922 C-147.95476562 371.09083984 -147.01890625 371.84623047 -146.0546875 372.62451172 C-144.39122623 373.95827796 -142.72363708 375.2869226 -141.05078125 376.60888672 C-139.12701308 378.14650974 -137.25509653 379.72706173 -135.390625 381.33544922 C-133.16392908 383.5436809 -133.16392908 383.5436809 -130.890625 383.33544922 C-130.890625 383.99544922 -130.890625 384.65544922 -130.890625 385.33544922 C-131.74479004 385.45460693 -132.59895508 385.57376465 -133.47900391 385.6965332 C-136.98824044 386.35373028 -140.11907937 387.34882411 -143.4765625 388.55810547 C-144.09088638 388.77901855 -144.70521027 388.99993164 -145.33815002 389.22753906 C-147.31689066 389.94329659 -149.2917138 390.66898478 -151.265625 391.39794922 C-151.94013702 391.64632538 -152.61464905 391.89470154 -153.30960083 392.15060425 C-181.02577339 402.4000522 -203.65353506 417.91074398 -224.890625 438.33544922 C-225.38191895 438.8048291 -225.87321289 439.27420898 -226.37939453 439.7578125 C-233.10576862 446.21287066 -239.1779859 452.97312061 -244.890625 460.33544922 C-245.34018555 460.90859863 -245.78974609 461.48174805 -246.25292969 462.07226562 C-281.91048817 507.68835009 -305.82883966 564.64894617 -312.453125 622.27294922 C-312.70015343 624.3576282 -312.94754964 626.44226364 -313.1953125 628.52685547 C-313.31229492 629.52217285 -313.42927734 630.51749023 -313.54980469 631.54296875 C-313.84571593 633.96749082 -314.17170258 636.38337161 -314.5234375 638.80029297 C-315.96169416 648.93898959 -315.890625 657.80726918 -315.890625 668.33544922 C-154.850625 668.33544922 6.189375 668.33544922 172.109375 668.33544922 C172.26305591 654.37725438 172.26305591 654.37725438 171.19140625 640.63623047 C171.09418777 639.83606506 170.9969693 639.03589966 170.89680481 638.21148682 C170.58512008 635.68840496 170.25545784 633.16822219 169.921875 630.64794922 C169.80922302 629.7745993 169.69657104 628.90124939 169.58050537 628.00143433 C167.80094603 614.26272857 165.61529184 600.75204196 162.109375 587.33544922 C161.85961914 586.35721191 161.60986328 585.37897461 161.35253906 584.37109375 C145.52333808 522.98208114 113.48865329 460.54778069 62.109375 421.33544922 C61.28880615 420.70026367 61.28880615 420.70026367 60.45166016 420.05224609 C47.17197243 409.81159924 33.32990523 400.89825069 17.47851562 395.18945312 C14.552036 394.13454528 11.63614338 393.05194374 8.71875 391.97216797 C6.43285656 391.13338729 4.14639491 390.29615358 1.859375 389.46044922 C0.19648437 388.85124634 0.19648437 388.85124634 -1.5 388.22973633 C-2.5415625 387.85469971 -3.583125 387.47966309 -4.65625 387.09326172 C-5.59243164 386.75439941 -6.52861328 386.41553711 -7.49316406 386.06640625 C-9.95115406 385.18963199 -9.95115406 385.18963199 -12.890625 385.33544922 C-12.890625 384.67544922 -12.890625 384.01544922 -12.890625 383.33544922 C-12.33503906 383.08923828 -11.77945312 382.84302734 -11.20703125 382.58935547 C-8.44717912 381.09540516 -6.23745641 379.28486514 -3.828125 377.27294922 C-2.3740625 376.06445312 -2.3740625 376.06445312 -0.890625 374.83154297 C0.099375 374.00783203 1.089375 373.18412109 2.109375 372.33544922 C3.96287674 370.83462767 5.81702818 369.33460808 7.671875 367.83544922 C35.32186318 345.08794121 54.87546004 315.03765247 58.90283203 278.78369141 C61.95736905 242.57695715 52.06758135 208.59092208 28.671875 180.64794922 C26.8412367 178.5222276 24.98335487 176.42299998 23.109375 174.33544922 C22.39136719 173.53236328 21.67335938 172.72927734 20.93359375 171.90185547 C8.84089958 159.12595823 -6.62323225 150.71144839 -21.890625 142.33544922 C-20.63176913 138.91279483 -19.19472135 136.10174774 -17.0625 133.14794922 C-16.51255371 132.37354492 -15.96260742 131.59914063 -15.39599609 130.80126953 C-14.81672363 129.98754883 -14.23745117 129.17382812 -13.640625 128.33544922 C-1.14606313 110.34136367 4.91992481 91.29503712 1.81640625 69.25488281 C-0.7590048 55.28743173 -7.43437406 42.80677795 -16.890625 32.33544922 C-17.87095703 31.19849609 -17.87095703 31.19849609 -18.87109375 30.03857422 C-29.3460055 18.63998357 -45.98572459 9.51169211 -61.6328125 8.39404297 C-62.37789062 8.37470703 -63.12296875 8.35537109 -63.890625 8.33544922 C-65.04820312 8.28517578 -66.20578125 8.23490234 -67.3984375 8.18310547 C-90.89201187 7.46600929 -111.29536074 15.47979359 -127.54296875 32.54638672 Z " fill="#000000" transform="translate(583.890625,213.66455078125)"/>
</svg>
