<?xml version="1.0" standalone="no"?>
<!DOCTYPE svg PUBLIC "-//W3C//DTD SVG 20010904//EN"
 "http://www.w3.org/TR/2001/REC-SVG-20010904/DTD/svg10.dtd">
<svg version="1.0" xmlns="http://www.w3.org/2000/svg"
 width="70.000000pt" height="70.000000pt" viewBox="0 0 70.000000 70.000000"
 preserveAspectRatio="xMidYMid meet">

<g transform="translate(0.000000,70.000000) scale(0.100000,-0.100000)"
fill="#000000" stroke="none">
<path d="M317 569 c-24 -14 -38 -54 -28 -81 6 -18 2 -28 -26 -54 -37 -35 -43
-70 -16 -110 16 -25 16 -26 -15 -51 -51 -39 -88 -129 -75 -181 5 -22 7 -22
193 -22 l188 0 5 27 c12 61 -49 177 -103 195 -12 4 -10 10 8 33 32 40 28 72
-12 110 -25 24 -33 38 -29 54 9 34 -5 67 -32 79 -31 14 -35 14 -58 1z m67 -41
c7 -12 6 -24 -4 -44 -14 -24 -13 -28 4 -38 65 -39 77 -72 41 -114 -26 -31 -32
-52 -15 -52 18 0 83 -65 96 -97 8 -18 14 -46 14 -63 l0 -30 -170 0 -170 0 0
37 c0 34 42 123 58 123 4 0 21 11 37 24 l30 24 -29 31 c-37 38 -30 73 20 103
25 15 33 25 28 37 -15 37 -16 52 -4 67 16 19 49 15 64 -8z"/>
</g>
</svg>
