<?xml version="1.0" encoding="UTF-8"?>
<svg version="1.1" xmlns="http://www.w3.org/2000/svg" width="1024" height="1024">
<path d="M0 0 C12.47779174 10.00108202 21.47871134 24.02037469 24.10449219 39.97900391 C25.98905397 58.51483074 22.80303952 76.13196007 10.87792969 91.01025391 C5.2611178 97.63674975 -0.96600577 102.61404825 -8.61035156 106.78369141 C-9.24328125 107.14205078 -9.87621094 107.50041016 -10.52832031 107.86962891 C-13.12153788 109.26548429 -14.60985156 109.78369141 -17.61035156 109.78369141 C-17.34305819 110.99218608 -17.34305819 110.99218608 -17.07036495 112.2250948 C-12.75264047 131.77707088 -8.58368856 151.35365912 -4.57029176 170.97058368 C-3.83300972 174.57178448 -3.09320629 178.17246743 -2.35368347 181.77320862 C-1.10079456 187.87489379 0.15080062 193.97684296 1.40148926 200.07897949 C3.34365967 209.55436286 5.28956636 219.02897699 7.23632812 228.50341797 C7.3975622 229.28813217 7.55879627 230.07284637 7.72491622 230.88133979 C8.37365695 234.03869616 9.02241179 237.19604964 9.67120445 240.35339534 C10.79309701 245.81308086 11.91474422 251.27281675 13.0362854 256.73257446 C20.06672515 290.9565665 20.06672515 290.9565665 27.13381958 325.17300415 C27.80187868 328.3993364 28.46805811 331.62604759 29.13253784 334.8531189 C29.88608169 338.51253744 30.6430419 342.17122964 31.40311241 345.82929802 C31.79699558 347.72923957 32.18724111 349.62993415 32.5773468 351.53065491 C32.91901131 353.16846169 32.91901131 353.16846169 33.26757812 354.83935547 C33.46212585 355.7797467 33.65667358 356.72013794 33.8571167 357.68902588 C34.19301259 359.75741535 34.19301259 359.75741535 35.38964844 360.78369141 C35.7364566 359.86695648 35.7364566 359.86695648 36.090271 358.93170166 C46.92923622 330.28430798 57.79893673 301.64999344 68.8157959 273.07043457 C74.88466641 257.32480526 80.90636897 241.56203701 86.88964844 225.78369141 C93.59609122 208.10018129 100.34799105 190.43465554 107.13964844 172.78369141 C107.55625732 171.70071777 107.97286621 170.61774414 108.40209961 169.50195312 C109.60052941 166.38732249 110.79964876 163.2729583 111.99902344 160.15869141 C112.37389893 159.18456299 112.74877441 158.21043457 113.13500977 157.20678711 C114.91536637 152.58586154 116.70598194 147.96944157 118.52050781 143.36181641 C119.01529633 142.10232178 119.01529633 142.10232178 119.52008057 140.81738281 C120.13440818 139.25598493 120.75154568 137.69568851 121.37200928 136.13671875 C122.87044325 132.56885524 122.87044325 132.56885524 123.38964844 128.78369141 C121.95438552 127.70200056 120.46326647 126.69410302 118.95214844 125.72119141 C104.90959614 116.05579575 95.78677475 102.59560631 92.38964844 85.78369141 C89.76998973 68.04641894 92.80335052 50.68264784 103.62402344 36.08837891 C104.49800781 34.94755859 104.49800781 34.94755859 105.38964844 33.78369141 C105.82792969 33.16751953 106.26621094 32.55134766 106.71777344 31.91650391 C115.70141807 20.17282387 131.15972941 13.18125093 145.38964844 10.78369141 C164.06901995 8.95329059 180.35617797 13.18536919 195.51464844 24.40869141 C207.06191408 34.06807076 215.06775331 47.89117789 217.38964844 62.78369141 C219.03165312 81.89779488 216.24883275 97.96116058 204.32324219 113.47119141 C195.46973114 123.86100043 184.17555724 131.92488315 170.70849609 134.84667969 C169.49475815 135.11147629 169.49475815 135.11147629 168.25650024 135.38162231 C167.64043915 135.51430511 167.02437805 135.64698792 166.38964844 135.78369141 C167.00504237 165.16899939 167.62446828 194.55422009 168.24949446 223.93932482 C168.32334195 227.41137216 168.3971552 230.88342023 168.47094727 234.35546875 C168.49298341 235.39226803 168.49298341 235.39226803 168.51546473 236.45001276 C168.75300911 247.63030232 168.98778139 258.81064846 169.22152268 269.9910181 C169.46156458 281.46979517 169.70465929 292.94850421 169.95039517 304.42716086 C170.0882643 310.87171242 170.22475623 317.31628648 170.35793877 323.76093674 C170.48340038 329.82986041 170.61256304 335.89869419 170.74453354 341.96747971 C170.79225619 344.19180435 170.83864022 346.41615819 170.8835659 348.64054108 C170.94525696 351.68496129 171.01183026 354.72923836 171.07957458 357.77352905 C171.09611648 358.64710064 171.11265839 359.52067223 171.12970155 360.42071569 C171.26624882 366.24660882 171.73402649 371.99368575 172.38964844 377.78369141 C172.94724854 376.90185181 172.94724854 376.90185181 173.51611328 376.00219727 C179.80098863 366.07131949 186.08401006 356.14527246 192.64038086 346.39086914 C197.72592751 338.81641061 202.66606142 331.147355 207.63037109 323.49316406 C210.66816919 318.8146346 213.71650237 314.14298302 216.76464844 309.47119141 C217.39072998 308.51148438 218.01681152 307.55177734 218.66186523 306.56298828 C219.93533737 304.61097211 221.20885639 302.65898652 222.48242188 300.70703125 C225.61880852 295.89967159 228.7541824 291.09165153 231.88964844 286.28369141 C233.13964347 284.3670215 234.38964347 282.45035484 235.63964844 280.53369141 C236.25839844 279.58494141 236.87714844 278.63619141 237.51464844 277.65869141 C244.38964844 267.11702474 251.26464844 256.57535807 258.13964844 246.03369141 C258.75880127 245.08429688 259.3779541 244.13490234 260.01586914 243.15673828 C261.26170077 241.24651723 262.50763123 239.33636062 263.75366211 237.42626953 C266.94326549 232.53651785 270.13096751 227.64554313 273.31542969 222.75244141 C273.96125 221.76083008 274.60707031 220.76921875 275.27246094 219.74755859 C276.54316358 217.79584679 277.81272472 215.84339124 279.08105469 213.89013672 C281.87312275 209.59912186 284.68399991 205.32747203 287.58886719 201.11181641 C288.06670654 200.41443359 288.5445459 199.71705078 289.03686523 198.99853516 C289.91077691 197.72922616 290.79320376 196.46571902 291.68579102 195.20947266 C292.96191117 193.4054003 292.96191117 193.4054003 294.38964844 190.78369141 C293.34880486 187.66116067 292.20553373 186.63216416 289.91308594 184.41259766 C278.18398292 171.87147981 273.56644452 156.59699863 273.38964844 139.78369141 C274.44469176 121.98471985 281.69200056 106.41910444 294.59667969 94.13916016 C308.38421328 82.51135211 324.42692953 77.75416982 342.30908203 78.60449219 C360.57692009 80.17790138 374.30498479 88.94784238 386.48730469 102.03759766 C393.26615614 110.12752367 397.97483745 120.30692648 399.38964844 130.78369141 C399.52242187 131.67185547 399.65519531 132.56001953 399.79199219 133.47509766 C401.86727938 150.98679072 397.05094836 167.79722971 386.38964844 181.78369141 C375.66836283 194.26436747 361.89595452 202.63854903 345.38964844 204.78369141 C342.71154768 204.89565214 340.07232158 204.82994439 337.38964844 204.78369141 C337.26507956 206.05758634 337.14051067 207.33148127 337.01216698 208.64397907 C336.43273076 213.83384666 335.47065535 218.90468151 334.42935181 224.01908875 C334.23052001 225.01172645 334.03168822 226.00436415 333.82683122 227.02708179 C333.16343382 230.33431106 332.49454457 233.64040493 331.82568359 236.9465332 C331.34729956 239.32585707 330.86927645 241.70525352 330.3915863 244.0847168 C329.36353619 249.20218649 328.33322178 254.31919481 327.30101395 259.43582726 C325.80399416 266.85716718 324.31259375 274.27962833 322.82278185 281.70241819 C320.39897428 293.77859034 317.97271679 305.85426858 315.54394531 317.92944336 C315.39875762 318.65128364 315.25356993 319.37312391 315.10398261 320.11683813 C313.48753674 328.15306879 311.8702851 336.18913683 310.25189209 344.22497559 C310.10678012 344.94550746 309.96166815 345.66603933 309.81215885 346.4084055 C309.59473109 347.48800444 309.59473109 347.48800444 309.37291086 348.58941346 C309.08063758 350.0406472 308.78836521 351.49188113 308.49609375 352.94311523 C308.27948797 354.01863104 308.27948797 354.01863104 308.05850632 355.11587443 C305.63867612 367.13182553 303.22418188 379.14884187 300.81385839 391.16670352 C299.33159146 398.55616175 297.84494 405.94470986 296.35236774 413.33209357 C295.20407822 419.01747642 294.06297963 424.70428495 292.92434883 430.39160919 C292.46036009 432.7033276 291.99408959 435.01458958 291.5252018 437.32531929 C289.07812072 449.39150658 286.86075241 461.41324003 285.369681 473.63936394 C282.57130085 496.21715853 269.42847903 510.91625034 253.79980469 526.27337646 C242.99583003 536.89510569 234.16420735 547.15629409 227.16308594 560.71337891 C224.28907822 565.68908389 220.89602854 570.29719544 217.52685547 574.94702148 C216.77057861 575.99345825 216.77057861 575.99345825 215.99902344 577.06103516 C215.54495117 577.68228271 215.09087891 578.30353027 214.62304688 578.94360352 C210.14339003 585.62673368 211.07032447 591.52375162 212.48339844 599.14697266 C212.94461027 601.46489158 213.41354225 603.78128593 213.88964844 606.09619141 C214.36078557 608.42513685 214.82964634 610.75454431 215.29589844 613.08447266 C215.50537109 614.10710205 215.71484375 615.12973145 215.93066406 616.18334961 C216.38964844 618.78369141 216.38964844 618.78369141 216.38964844 621.78369141 C216.98390625 622.05697266 217.57816406 622.33025391 218.19042969 622.61181641 C230.11817023 628.96762842 236.70831963 644.14385415 240.51464844 656.40869141 C241.90584056 661.77471816 242.44883792 666.7406558 242.52734375 672.25390625 C242.68302046 679.57529034 242.95993746 684.78940455 247.76074219 690.63134766 C255.68690175 701.10452252 256.37838401 714.21459754 255.38964844 726.78369141 C253.13518268 738.83014398 245.93302771 750.13194624 236.38964844 757.78369141 C230.76601226 761.58459123 225.81000602 762.77192689 219.13964844 763.72119141 C218.07375488 763.88103516 217.00786133 764.04087891 215.90966797 764.20556641 C165.02343844 771.58671084 113.71304784 775.20580377 62.38964844 777.78369141 C61.66980774 777.82000671 60.94996704 777.85632202 60.20831299 777.89373779 C51.93756733 778.30611437 43.66789 778.57812988 35.38964844 778.78369141 C33.70507657 778.82774001 32.02050639 778.87185309 30.3359375 778.91601562 C-69.37186691 781.4862355 -169.61337411 779.45612589 -273.61035156 766.78369141 C-274.38348694 766.68938843 -275.15662231 766.59508545 -275.95318604 766.4979248 C-280.77966125 765.90820805 -285.60207116 765.29333209 -290.42285156 764.65869141 C-291.56689453 764.51238281 -292.7109375 764.36607422 -293.88964844 764.21533203 C-306.52780242 762.46758486 -314.23883379 758.22947671 -322.62597656 748.42822266 C-331.77202637 736.24011715 -334.25181917 723.67749746 -332.61035156 708.78369141 C-330.99175503 700.34794711 -326.77350421 689.94684405 -320.61035156 683.78369141 C-320.51463063 681.89267124 -320.42567167 680.00105995 -320.37133789 678.10839844 C-319.71440013 656.76774244 -313.17614752 639.75542475 -298.23535156 624.15869141 C-295.61035156 621.78369141 -295.61035156 621.78369141 -293.61035156 621.78369141 C-293.50078125 621.03087891 -293.39121094 620.27806641 -293.27832031 619.50244141 C-292.53625316 614.53119479 -291.78211659 609.57111194 -290.80957031 604.63916016 C-290.60521362 603.59888672 -290.60521362 603.59888672 -290.39672852 602.53759766 C-290.00298174 600.55975034 -289.5998535 598.58377763 -289.19628906 596.60791016 C-288.0584234 589.18144028 -288.06051891 584.58669955 -292.54785156 578.15869141 C-293.38036772 576.93766771 -294.21238508 575.71630381 -295.04394531 574.49462891 C-295.47175293 573.87942383 -295.89956055 573.26421875 -296.34033203 572.63037109 C-298.33651819 569.72780437 -300.21836172 566.75472955 -302.11035156 563.78369141 C-302.86274567 562.61949312 -303.61535038 561.45543092 -304.36816406 560.29150391 C-305.87493507 557.95097756 -307.34417667 555.59197194 -308.79003906 553.21337891 C-314.99605889 543.09163957 -322.48721247 534.79593053 -330.96191406 526.52587891 C-348.50200673 509.37267308 -360.41239529 493.63703546 -363.55112141 468.64341676 C-365.23889024 455.25011603 -367.76574176 442.08331094 -370.44897461 428.859375 C-370.93276369 426.44897679 -371.41594047 424.03845562 -371.89855957 421.62782288 C-372.92915199 416.48671363 -373.96376357 411.34643169 -375.00214195 406.20689011 C-376.5041409 398.7722298 -377.99771137 391.33589457 -379.48923419 383.89912637 C-381.91174114 371.82123083 -384.33969188 359.74443704 -386.77172852 347.66845703 C-386.91657213 346.94924669 -387.06141575 346.23003634 -387.21064857 345.48903175 C-387.50385127 344.03316427 -387.79705414 342.57729683 -388.09025719 341.12142942 C-388.23566397 340.39942351 -388.38107074 339.67741759 -388.53088379 338.93353271 C-388.67644317 338.21077316 -388.82200256 337.48801361 -388.97197283 336.74335226 C-390.59581357 328.67987867 -392.21819417 320.61611151 -393.84008789 312.55224609 C-393.9856625 311.82847371 -394.13123712 311.10470132 -394.28122308 310.35899644 C-396.70670004 298.29931726 -399.12908888 286.23901917 -401.54974777 274.17837203 C-403.03980888 266.75529528 -404.53294646 259.33284934 -406.03008864 251.91119744 C-407.1735442 246.24206658 -408.31323977 240.57218521 -409.45156097 234.90202141 C-409.91945274 232.57487532 -410.38868405 230.24799811 -410.85933113 227.9214077 C-411.49984771 224.75424017 -412.13566443 221.58616462 -412.77030945 218.41781616 C-412.95891956 217.49119183 -413.14752966 216.5645675 -413.34185523 215.60986364 C-413.51069151 214.7620349 -413.6795278 213.91420617 -413.85348034 213.04068565 C-414.07431657 211.9444746 -414.07431657 211.9444746 -414.29961413 210.82611787 C-414.61035156 208.78369141 -414.61035156 208.78369141 -414.61035156 204.78369141 C-415.66222656 204.84556641 -416.71410156 204.90744141 -417.79785156 204.97119141 C-433.75617699 204.85900634 -447.90842529 197.58631886 -458.98925781 186.53369141 C-471.38840522 173.52474986 -477.41366663 158.70168891 -477.61035156 140.78369141 C-476.56603778 122.39216543 -469.64710287 106.76893963 -456.26269531 94.06884766 C-442.8295831 82.49540046 -426.30773704 77.76678681 -408.69091797 78.60449219 C-390.42307991 80.17790138 -376.69501521 88.94784238 -364.51269531 102.03759766 C-353.76807882 114.86029382 -349.74080399 130.96131531 -350.85644531 147.41259766 C-352.71751021 162.41640402 -358.52692145 175.4816477 -368.61035156 186.78369141 C-369.60035156 187.44369141 -370.59035156 188.10369141 -371.61035156 188.78369141 C-370.10988882 193.07645916 -367.85561726 196.62580494 -365.29785156 200.34619141 C-364.38787592 201.69048502 -363.47908125 203.0355786 -362.57128906 204.38134766 C-362.08885742 205.09564941 -361.60642578 205.80995117 -361.109375 206.54589844 C-358.50629506 210.43186436 -355.96596517 214.35832441 -353.42285156 218.28369141 C-352.31223998 219.99597348 -351.20156137 221.70821207 -350.09082031 223.42041016 C-349.52282715 224.29616699 -348.95483398 225.17192383 -348.36962891 226.07421875 C-345.33183081 230.75274821 -342.28349763 235.4243998 -339.23535156 240.09619141 C-338.60927002 241.05589844 -337.98318848 242.01560547 -337.33813477 243.00439453 C-336.06466263 244.9564107 -334.79114361 246.90839629 -333.51757812 248.86035156 C-330.38119148 253.66771122 -327.2458176 258.47573128 -324.11035156 263.28369141 C-322.86035653 265.20036131 -321.61035653 267.11702798 -320.36035156 269.03369141 C-301.61035156 297.78369141 -301.61035156 297.78369141 -282.86035156 326.53369141 C-282.24095703 327.4834082 -281.6215625 328.433125 -280.98339844 329.41162109 C-279.73982933 331.31847028 -278.49633909 333.22537089 -277.25292969 335.13232422 C-274.0301987 340.07463412 -270.80589101 345.01590511 -267.57910156 349.95556641 C-266.91458984 350.97328125 -266.25007812 351.99099609 -265.56542969 353.03955078 C-264.3094361 354.96306544 -263.05296611 356.88626915 -261.79589844 358.80908203 C-257.68649186 365.1040501 -253.6338704 371.43350248 -249.61035156 377.78369141 C-248.85411581 371.10513328 -248.42749759 364.49196356 -248.30027771 357.77352905 C-248.27900552 356.81760066 -248.25773334 355.86167226 -248.23581654 354.87677634 C-248.16610667 351.70177313 -248.10196944 348.52668297 -248.0378418 345.3515625 C-247.98877086 343.06439501 -247.93935386 340.77723492 -247.88961792 338.49008179 C-247.75600495 332.30085947 -247.62721861 326.11154511 -247.49931216 319.92220259 C-247.36466391 313.4465797 -247.2255581 306.97105259 -247.08692932 300.49551392 C-246.85498539 289.6331293 -246.62577715 278.77069014 -246.39868164 267.90820312 C-246.16485096 256.72391876 -245.92935958 245.53967138 -245.69165039 234.35546875 C-245.67697814 233.66511301 -245.66230588 232.97475727 -245.64718901 232.26348166 C-245.57356633 228.7998829 -245.49991116 225.33628483 -245.42623985 221.8726871 C-244.81590821 193.17646077 -244.21131873 164.48011529 -243.61035156 135.78369141 C-244.43490845 135.58380615 -245.25946533 135.3839209 -246.10900879 135.17797852 C-247.19033081 134.91251221 -248.27165283 134.6470459 -249.38574219 134.37353516 C-250.45779907 134.1117749 -251.52985596 133.85001465 -252.63439941 133.58032227 C-266.41049648 129.89260704 -278.47270911 119.16634897 -286.14941406 107.38916016 C-294.67882103 92.17762419 -297.69705239 73.91835407 -293.54785156 56.78369141 C-287.65599243 39.63122298 -277.82160564 26.19308005 -261.81738281 17.21728516 C-245.75391257 9.45211556 -227.98877662 8.28894034 -210.96972656 13.52978516 C-193.9718881 19.87432719 -181.29342239 31.85211358 -173.63769531 48.27197266 C-166.76553003 65.07350223 -167.23826659 82.97841492 -174.14160156 99.65478516 C-179.98203763 112.09677794 -188.53808755 122.07687806 -200.61035156 128.78369141 C-198.62900169 134.8659512 -196.50048907 140.87354533 -194.23144531 146.85400391 C-193.90775467 147.71112976 -193.58406403 148.56825562 -193.25056458 149.45135498 C-192.18490619 152.27119477 -191.11650039 155.08998368 -190.04785156 157.90869141 C-189.28642593 159.92056065 -188.52503337 161.93244242 -187.76367188 163.94433594 C-181.3825526 180.79401956 -174.94353876 197.62140019 -168.49095154 214.44381714 C-167.92357018 215.92303146 -167.92357018 215.92303146 -167.34472656 217.43212891 C-166.96353165 218.4259256 -166.58233673 219.41972229 -166.18959045 220.44363403 C-161.48279284 232.7184127 -156.79730815 245.00132658 -152.11035156 257.28369141 C-145.41425842 274.83006331 -138.70672808 292.37198945 -131.98535156 309.90869141 C-125.49090048 326.85342642 -119.02495925 343.80855461 -112.61035156 360.78369141 C-111.21993692 356.80374928 -110.12535551 352.89134641 -109.27612305 348.76319885 C-109.03016923 347.5766571 -108.78421541 346.39011536 -108.53080845 345.1676178 C-108.26701861 343.87633469 -108.00322878 342.58505157 -107.73144531 341.25463867 C-107.44508022 339.86621718 -107.1583913 338.47786244 -106.8714056 337.08956909 C-106.09006083 333.30521013 -105.31323583 329.51993578 -104.53717303 325.73449063 C-103.71043259 321.70590367 -102.87946923 317.67818786 -102.04896545 313.65037537 C-100.63281655 306.77951334 -99.21922237 299.90812997 -97.80740356 293.03637695 C-95.79822393 283.25729615 -93.78472179 273.47910948 -91.76988852 263.70119214 C-88.87491171 249.65187455 -85.98177212 235.60217989 -83.09063661 221.55207133 C-78.52931036 199.38534182 -73.96290969 177.219665 -69.38218117 155.05693531 C-68.25544483 149.60534984 -67.13052068 144.15339531 -66.00724125 138.70109653 C-65.33375355 135.43374113 -64.65879189 132.16669165 -63.98336601 128.8997364 C-63.68016042 127.43168989 -63.37756223 125.96351777 -63.07563972 124.49520683 C-62.67489905 122.54675334 -62.27173084 120.59879958 -61.8684082 118.65087891 C-61.6473793 117.57950684 -61.4263504 116.50813477 -61.19862366 115.40429688 C-60.61035156 112.78369141 -60.61035156 112.78369141 -59.61035156 109.78369141 C-60.69123047 109.60966797 -60.69123047 109.60966797 -61.79394531 109.43212891 C-73.91384429 106.64169447 -84.80907904 96.46165905 -91.54785156 86.34619141 C-100.97519091 70.20474696 -104.43308662 52.88383665 -100.04785156 34.59619141 C-95.85796703 18.89887752 -86.71668702 5.99375028 -73.04785156 -2.71630859 C-50.02646045 -15.83251488 -21.75264801 -16.42991091 0 0 Z " fill="#000000" transform="translate(550.6103515625,131.21630859375)"/>
<path d="M0 0 C2.58244522 0.00140371 5.16488797 0.00129568 7.74733353 0.00119781 C37.34171618 0.00952097 66.85783456 0.62113667 96.4155159 2.18888092 C97.24728348 2.23226593 98.07905106 2.27565094 98.93602371 2.32035065 C114.97391817 3.16109873 130.9832048 4.2738395 146.96629715 5.85294342 C150.39926642 6.1872983 153.83321351 6.50913989 157.26758194 6.82871246 C174.46924582 8.43211898 191.65596067 10.09370674 208.7905159 12.31388092 C210.01762283 12.47227448 211.24472977 12.63066803 212.50902176 12.79386139 C217.86002866 13.50683022 223.20200674 14.27321906 228.52879715 15.14981842 C229.38255936 15.28952057 230.23632156 15.42922272 231.11595535 15.57315826 C237.35675872 17.24417494 240.54880678 22.12680468 243.7905159 27.37638092 C246.56751819 32.21014693 247.53389714 35.58995529 247.4077034 41.17716217 C247.39094559 42.35858795 247.37418777 43.54001373 247.35692215 44.7572403 C247.31285641 47.24177044 247.26084742 49.72617312 247.20067215 52.2103653 C247.18649246 53.39565826 247.17231277 54.58095123 247.1577034 55.80216217 C247.1356282 56.88279938 247.11355301 57.96343658 247.09080887 59.07682037 C247.65259036 64.46105247 250.16941703 68.24081395 253.8530159 72.06388092 C257.98151029 76.64720944 260.83173073 81.07536002 261.9780159 87.18888092 C261.08893788 91.93063036 260.17201439 94.98419391 256.4155159 98.18888092 C253.8449069 98.90693745 251.52780928 99.4007183 248.9077034 99.77872467 C248.15685974 99.89821472 247.40601608 100.01770477 246.63241959 100.14081573 C244.22952036 100.51319127 241.82424181 100.85639246 239.4155159 101.18888092 C238.66136398 101.29320435 237.90721207 101.39752777 237.13020706 101.50501251 C231.42198846 102.27503862 225.70307783 102.93290893 219.9780159 103.56388092 C219.04908524 103.66737854 218.12015457 103.77087616 217.16307449 103.87751007 C184.0482457 107.52908783 150.75924198 109.77058839 117.5170784 111.91153717 C116.49727386 111.97829903 116.49727386 111.97829903 115.45686722 112.04640961 C100.82232472 112.95861796 86.1665499 113.38827256 71.5092659 113.72013092 C70.5741077 113.74144829 69.63894951 113.76276566 68.67545319 113.784729 C44.71531253 114.31855618 20.75589016 114.43015946 -3.2094841 114.43888092 C-4.33237335 114.43976463 -5.4552626 114.44064835 -6.6121788 114.44155884 C-44.31144828 114.46772948 -81.82356943 113.63713431 -119.4537468 111.37241364 C-124.21216563 111.09346161 -128.97230896 110.85269558 -133.7329216 110.61466217 C-164.012434 109.08285255 -193.99875 106.10164051 -224.06617355 102.24381256 C-228.67614815 101.65611904 -233.28239191 101.10456452 -237.90870285 100.66153717 C-238.73370285 100.5804068 -239.55870285 100.49927643 -240.40870285 100.41568756 C-241.92723574 100.26995233 -243.44677532 100.1341742 -244.9672966 100.0109024 C-249.22014296 99.59918851 -252.15608781 98.76804143 -255.5844841 96.18888092 C-258.53487261 92.058337 -259.15925939 88.60228656 -258.4282341 83.69278717 C-256.33694977 77.48670727 -251.51849177 72.5110642 -247.38526535 67.54825592 C-244.49887362 63.76651925 -244.50545957 61.01296144 -244.69776535 56.41153717 C-244.72805832 55.2571817 -244.75835129 54.10282623 -244.78956223 52.9134903 C-244.86016581 50.50654996 -244.95072333 48.10009695 -245.06299973 45.6947403 C-245.2777215 35.19658667 -242.21391192 27.14924638 -235.3969841 19.12638092 C-229.47538761 14.56961336 -221.79264916 14.35237822 -214.60840988 13.54239655 C-211.36253429 13.16293361 -208.1294568 12.72023659 -204.89307785 12.26700592 C-196.80084274 11.147281 -188.69698669 10.14861285 -180.5844841 9.18888092 C-179.88524826 9.10531342 -179.18601242 9.02174591 -178.46558762 8.93564606 C-153.19810434 5.93299809 -127.8568014 4.38689867 -102.4594841 3.00138092 C-101.68265526 2.95874115 -100.90582642 2.91610138 -100.10545731 2.87216949 C-66.73711083 1.0433288 -33.41939222 -0.01819511 0 0 Z " fill="#FEFEFE" transform="translate(510.5844841003418,761.8111190795898)"/>
<path d="M0 0 C0.91521423 0.11299438 1.83042847 0.22598877 2.77337646 0.34240723 C9.95541667 1.23109364 17.1346145 2.14089583 24.3125 3.0625 C25.2846344 3.18656219 26.2567688 3.31062439 27.25836182 3.43844604 C37.81405408 4.79310258 48.28593599 6.3017472 58.7253418 8.37988281 C62.8111958 9.15361495 66.85998448 9.63035576 71 10 C69.8546955 22.21658134 56.82764822 32.29536092 48.65332031 40.23144531 C39.74041396 48.88959884 31.85094766 57.62929942 25 68 C24.18885742 67.88724731 24.18885742 67.88724731 23.36132812 67.7722168 C20.74111075 67.40899932 18.12055475 67.048275 15.5 66.6875 C14.65179687 66.56955078 13.80359375 66.45160156 12.9296875 66.33007812 C9.62119843 65.87574336 6.31074843 65.43758994 3 65 C2.1813446 64.88933197 1.36268921 64.77866394 0.51922607 64.66464233 C-15.41632633 62.52116493 -31.33780879 61.06338036 -47.375 59.9375 C-49.75742266 59.76610607 -52.13982807 59.59447234 -54.5222168 59.42260742 C-67.61455003 58.48534979 -80.70968217 57.59068241 -93.8125 56.8125 C-95.01503418 56.74087646 -96.21756836 56.66925293 -97.45654297 56.59545898 C-100.53315012 56.42195976 -103.6100163 56.26295756 -106.68783951 56.11287212 C-108.26433283 56.03591287 -109.84075463 55.95747769 -111.41711044 55.87775135 C-129.93724566 54.96134999 -148.43768957 54.8208089 -166.97508335 54.79981136 C-169.49627697 54.79682387 -172.01746662 54.79270959 -174.53865814 54.78830719 C-182.55042402 54.77467914 -190.56218009 54.76500025 -198.57395673 54.7611053 C-206.70072474 54.75712549 -214.82737358 54.74508393 -222.95410156 54.71875 C-338.06124297 53.32090591 -338.06124297 53.32090591 -451.953125 67.58203125 C-455.17694793 68.02427363 -456.98786217 68.24349769 -460 67 C-461.75302351 64.86695042 -463.2378569 62.79464482 -464.75 60.5 C-471.46065018 50.88589766 -479.77533546 42.96567841 -488.19042969 34.87109375 C-494.95879398 28.32040511 -501.15694203 21.73992868 -505 13 C-505 12.01 -505 11.02 -505 10 C-504.0867395 9.87939209 -504.0867395 9.87939209 -503.1550293 9.75634766 C-500.33215051 9.38195772 -497.50983127 9.00349446 -494.6875 8.625 C-493.73037109 8.49867188 -492.77324219 8.37234375 -491.78710938 8.2421875 C-487.11662904 7.61316658 -482.47791717 6.92619414 -477.84765625 6.046875 C-470.19033491 4.62070486 -462.47059692 3.63648312 -454.75 2.625 C-453.93030731 2.51706116 -453.11061462 2.40912231 -452.26608276 2.2979126 C-435.01914226 0.03769834 -417.73623474 -1.80800707 -400.42211914 -3.46850586 C-396.45494893 -3.85117302 -392.49199764 -4.26558132 -388.52905273 -4.68969727 C-365.04476637 -7.15203974 -341.51600624 -8.49422466 -317.9375 -9.6875 C-316.32599123 -9.76966263 -316.32599123 -9.76966263 -314.68192673 -9.85348511 C-229.3284072 -14.18004054 -144.0464638 -12.91312269 0 0 Z " fill="#FDFDFD" transform="translate(729,595)"/>
<path d="M0 0 C1.1114035 0.12475204 2.22280701 0.24950409 3.3678894 0.3780365 C4.38360016 0.49699783 5.39931091 0.61595917 6.44580078 0.73852539 C7.33921173 0.84266251 8.23262268 0.94679962 9.15310669 1.05409241 C11.3046875 1.40234375 11.3046875 1.40234375 13.3046875 2.40234375 C12.24091516 5.67548942 11.12207582 8.82157256 9.74609375 11.98046875 C7.90549598 16.88422233 7.93029609 21.46795472 8.0546875 26.65234375 C8.06564453 27.57168701 8.07660156 28.49103027 8.08789062 29.43823242 C8.19619268 36.12294163 8.53436524 42.75831426 9.3046875 49.40234375 C-3.18296088 49.04194986 -15.51866786 47.6703429 -27.91287231 46.19308472 C-39.34990598 44.83533098 -50.76172843 43.74988017 -62.25756836 42.99829102 C-63.78136108 42.89859009 -63.78136108 42.89859009 -65.3359375 42.796875 C-66.20766602 42.74378174 -67.07939453 42.69068848 -67.97753906 42.63598633 C-69.96448496 42.46517181 -71.94500424 42.21438956 -73.917099 41.91778564 C-77.57710396 41.41847032 -81.17723716 41.12917357 -84.86450195 40.92163086 C-85.89554031 40.86291164 -85.89554031 40.86291164 -86.94740772 40.80300617 C-89.23426609 40.67449361 -91.52136627 40.55144659 -93.80859375 40.4296875 C-94.61404507 40.38637047 -95.41949638 40.34305344 -96.24935532 40.29842377 C-102.5014553 39.96418809 -108.75440494 39.64855527 -115.0078125 39.33984375 C-116.39598364 39.27088583 -116.39598364 39.27088583 -117.81219864 39.20053482 C-149.17484809 37.65338528 -180.48340498 37.02889866 -211.8828125 37.08984375 C-213.3337499 37.09182833 -213.3337499 37.09182833 -214.81399918 37.093853 C-221.28886107 37.10335215 -227.76351523 37.12813164 -234.23828125 37.1640625 C-235.05471981 37.16764519 -235.87115837 37.17122787 -236.71233749 37.17491913 C-246.72226713 37.22525019 -256.67910817 37.54670812 -266.67007446 38.17137146 C-271.76858449 38.48313448 -276.86626834 38.58422116 -281.97290039 38.69238281 C-314.17432483 39.3921078 -346.28418406 41.68406649 -378.3203125 44.96484375 C-379.35656769 45.07066772 -380.39282288 45.1764917 -381.46047974 45.28552246 C-391.35445007 46.30511011 -401.21875959 47.33143825 -411.02172852 49.03833008 C-415.57105504 49.65772975 -420.1153342 49.56755339 -424.6953125 49.40234375 C-424.623125 48.8403125 -424.5509375 48.27828125 -424.4765625 47.69921875 C-423.06278367 34.89666605 -421.64659634 20.51926253 -426.6953125 8.40234375 C-427.0871875 7.20609375 -427.4790625 6.00984375 -427.8828125 4.77734375 C-428.1509375 3.99359375 -428.4190625 3.20984375 -428.6953125 2.40234375 C-420.10874632 0.44966271 -411.50897904 -0.47639426 -402.76147461 -1.34765625 C-400.32140574 -1.59130623 -397.88238619 -1.84381303 -395.44335938 -2.09765625 C-371.4028179 -4.56054011 -347.2720368 -6.12979026 -323.1328125 -7.22265625 C-322.41585205 -7.25521389 -321.6988916 -7.28777153 -320.96020508 -7.32131577 C-239.34766703 -10.96583126 -155.95781707 -11.30997834 0 0 Z " fill="#FDFDFD" transform="translate(719.6953125,691.59765625)"/>
<path d="M0 0 C0.66 0 1.32 0 2 0 C2.34611328 1.85625 2.34611328 1.85625 2.69921875 3.75 C5.0829191 16.44649778 7.65694412 29.09544038 10.31591797 41.73681641 C11.53484111 47.55127991 12.73542178 53.36953493 13.9375 59.1875 C14.44660283 61.64974201 14.95571748 64.11198158 15.46484375 66.57421875 C15.71862793 67.80188965 15.97241211 69.02956055 16.23388672 70.29443359 C17.48856281 76.36309953 18.74432929 82.4315398 20 88.5 C20.50000538 90.91666555 21.00000538 93.33333222 21.5 95.75 C21.87125 97.544375 21.87125 97.544375 22.25 99.375 C36.5 168.25 36.5 168.25 37.25073242 171.87890625 C37.74809706 174.28259223 38.24565397 176.68623842 38.7434082 179.08984375 C39.89971622 184.67468642 41.05430285 190.25986187 42.20162964 195.84655762 C42.60333287 197.80210225 43.00576606 199.75749688 43.40820312 201.71289062 C43.9094614 204.14882996 44.40955676 206.58500903 44.90820312 209.02148438 C46.30299483 215.79227997 47.80566951 222.52354939 49.44262695 229.24023438 C50 232 50 232 50 236 C17.99 236 -14.02 236 -47 236 C-47 229.3916216 -46.89095537 225.5393075 -45.3125 219.5 C-43.54340093 212.45221449 -42.02588385 205.37993844 -40.625 198.25 C-38.81448847 189.07393456 -36.9632954 179.90781787 -35.0625 170.75 C-34.81129395 169.53924805 -34.56008789 168.32849609 -34.30126953 167.08105469 C-33.78977437 164.61714107 -33.27805495 162.153274 -32.76611328 159.68945312 C-31.5072526 153.627024 -30.25387417 147.56346205 -29 141.5 C-28.50002692 139.08332776 -28.0000269 136.6666611 -27.5 134.25 C-27.12875 132.455625 -27.12875 132.455625 -26.75 130.625 C-12.5 61.75 -12.5 61.75 -11.74902344 58.12060547 C-11.25210621 55.71862291 -10.75535972 53.31660502 -10.25878906 50.91455078 C-9.09989156 45.30965951 -7.93941565 39.70511322 -6.77258301 34.10186768 C-6.36228236 32.13115182 -5.95254272 30.16032012 -5.54296875 28.18945312 C-5.03105733 25.72698265 -4.51811136 23.26472691 -4.00390625 20.80273438 C-2.56720946 13.88515841 -1.22493596 6.95826802 0 0 Z " fill="#FDFDFD" transform="translate(511,313)"/>
<path d="M0 0 C3.21263022 1.60631511 3.67855501 4.97387913 4.84375 8.1953125 C5.12437286 8.95255112 5.40499573 9.70978973 5.69412231 10.48997498 C6.30896574 12.15090457 6.9206405 13.81300962 7.52960205 15.47610474 C9.21029915 20.06390358 10.91567738 24.6425452 12.6171875 29.22265625 C12.97533539 30.18866257 13.33348328 31.15466888 13.70248413 32.14994812 C17.60032827 42.65012689 21.60812 53.10740972 25.625 63.5625 C26.76101001 66.52221886 27.89672203 69.48205196 29.03240967 72.44189453 C29.81131596 74.47188303 30.59032899 76.50183057 31.3694458 78.53173828 C35.64877317 89.68401786 39.90756721 100.84412226 44.16607666 112.00436401 C50.97456285 129.8464608 57.78606038 147.68741515 64.61108398 165.52319336 C65.3511368 167.45748359 66.09089927 169.39188494 66.83032227 171.32641602 C67.85997114 174.02002744 68.89062476 176.71325128 69.921875 179.40625 C70.24865234 180.26013306 70.57542969 181.11401611 70.91210938 181.99377441 C72.75559361 186.79835521 74.6235004 191.59248688 76.51367188 196.37890625 C77.13934052 197.9656012 77.13934052 197.9656012 77.77764893 199.58435059 C78.5886615 201.63773222 79.40263995 203.68994548 80.21990967 205.74084473 C80.58336487 206.66103394 80.94682007 207.58122314 81.32128906 208.52929688 C81.64583069 209.34555542 81.97037231 210.16181396 82.30474854 211.00280762 C83 213 83 213 83 215 C54.01520117 217.2563886 25.01659963 219.20117534 -4 221 C-4.1621954 197.11973538 -3.71346746 173.26333318 -3.19228363 149.38972521 C-3.07786308 144.11682988 -2.96712607 138.84385704 -2.85595703 133.57089233 C-2.64599744 123.63765734 -2.43284367 113.70449372 -2.21846962 103.77135313 C-1.97409846 92.44081789 -1.73339883 81.11020553 -1.49296951 69.77958608 C-0.9993263 46.51963755 -0.5011961 23.25978692 0 0 Z " fill="#FCFCFC" transform="translate(340,336)"/>
<path d="M0 0 C0.33 0 0.66 0 1 0 C1.52517653 24.41965023 2.04688777 48.83937243 2.56460571 73.25918198 C2.80513328 84.60072015 3.04674479 95.94223319 3.29101562 107.28369141 C3.50421177 117.18248984 3.71526464 127.08133139 3.92386818 136.98022771 C4.03413273 142.20923154 4.14538577 147.43820963 4.25921631 152.66713715 C4.73993945 174.78106974 5.16479003 196.8797905 5 219 C-0.14454462 219.10289089 -4.92409652 218.94642317 -10 218 C-11.96671624 217.84473457 -13.9361833 217.72178555 -15.90673828 217.62695312 C-17.04877716 217.57019409 -18.19081604 217.51343506 -19.36746216 217.45495605 C-20.58940277 217.39763306 -21.81134338 217.34031006 -23.0703125 217.28125 C-24.34292938 217.21844849 -25.61554626 217.15564697 -26.92672729 217.09094238 C-30.30527111 216.92451955 -33.68392328 216.7608792 -37.06268311 216.59893799 C-41.79493427 216.37191206 -46.52702904 216.14179601 -51.25900269 215.90905762 C-53.77218444 215.78559321 -56.28546583 215.66413452 -58.79885864 215.54504395 C-66.21545401 215.18244597 -73.60471613 214.66940934 -81 214 C-80.35801565 208.21616332 -78.30433392 203.17001722 -76.1953125 197.796875 C-75.60947891 196.2833847 -75.60947891 196.2833847 -75.0118103 194.73931885 C-74.16537638 192.55425667 -73.31637079 190.37018934 -72.46508789 188.18701172 C-70.63731244 183.49919558 -68.82197606 178.80659637 -67.00616455 174.11413574 C-66.06400622 171.67941815 -65.12124997 169.24493185 -64.17791748 166.81066895 C-59.95688172 155.9119695 -55.79899862 144.98991812 -51.65911865 134.06018066 C-44.4180336 114.94304506 -37.11091638 95.85216931 -29.75787354 76.77783203 C-25.00462305 64.44623954 -20.27183861 52.10736352 -15.5859375 39.75 C-15.1457428 38.58936035 -14.7055481 37.4287207 -14.25201416 36.23291016 C-12.13593928 30.65135368 -10.02302513 25.06862255 -7.9140625 19.484375 C-7.15889018 17.4895697 -6.40368375 15.49477731 -5.6484375 13.5 C-5.30670502 12.59217773 -4.96497253 11.68435547 -4.61288452 10.74902344 C-4.29638947 9.9140332 -3.97989441 9.07904297 -3.65380859 8.21875 C-3.38104095 7.49623047 -3.10827332 6.77371094 -2.82723999 6.02929688 C-1.9837113 3.96004231 -1.02496119 1.98482665 0 0 Z " fill="#FCFCFC" transform="translate(683,336)"/>
<path d="M0 0 C3.68276347 4.37712699 6.72803162 9.07155862 9.8125 13.875 C10.97762796 15.6785383 12.14300218 17.48191753 13.30859375 19.28515625 C13.91429199 20.22375488 14.51999023 21.16235352 15.14404297 22.12939453 C18.20671934 26.86643068 21.29129956 31.58913412 24.375 36.3125 C25.64327498 38.25648053 26.91150383 40.20049115 28.1796875 42.14453125 C28.81100586 43.11213379 29.44232422 44.07973633 30.09277344 45.07666016 C33.22916008 49.88401981 36.36453396 54.69203988 39.5 59.5 C40.74999503 61.41666991 41.99999504 63.33333657 43.25 65.25 C80.75 122.75 80.75 122.75 82.62768555 125.62915039 C83.86869395 127.53200836 85.10974166 129.4348407 86.35083008 131.33764648 C89.61373632 136.34036884 92.87581343 141.34362937 96.13671875 146.34765625 C96.81476563 147.38792969 97.4928125 148.42820312 98.19140625 149.5 C99.48723212 151.4881164 100.78281906 153.47638856 102.078125 155.46484375 C102.66464844 156.36460937 103.25117188 157.264375 103.85546875 158.19140625 C104.39993652 159.02816895 104.9444043 159.86493164 105.50537109 160.72705078 C106.7884933 162.67835228 108.10073998 164.60449586 109.42578125 166.52734375 C111 169 111 169 111 171 C110.25580811 171.08975098 109.51161621 171.17950195 108.74487305 171.27197266 C91.24901973 173.39372305 73.78451473 175.69501375 56.33203125 178.1484375 C54.34559626 178.42678498 52.35914614 178.70502445 50.37268066 178.9831543 C45.5816125 179.65419701 40.7907487 180.32668048 36 181 C31.60031498 159.02496585 27.20174004 137.04970977 22.80447578 115.07419109 C20.76259008 104.86991237 18.72034524 94.66570577 16.67724609 84.46166992 C14.89587141 75.56478358 13.11517958 66.66776089 11.33529747 57.77057582 C10.39340162 53.06239688 9.45117085 48.35428555 8.50812149 43.64633751 C7.61919643 39.20853595 6.73118951 34.77055163 5.84386444 30.33242989 C5.51930623 28.70991231 5.19442229 27.08745984 4.86917496 25.46508026 C3.1703308 16.99000773 1.50098235 8.51290912 0 0 Z " fill="#FDFDFD" transform="translate(182,391)"/>
<path d="M0 0 C1.14663591 3.43990772 0.81685389 4.72768154 0.02754211 8.21166992 C-0.32978988 9.82529167 -0.32978988 9.82529167 -0.69434071 11.47151184 C-1.096405 13.23938301 -1.096405 13.23938301 -1.5065918 15.04296875 C-2.0737183 17.6107497 -2.63907627 20.17885814 -3.20199585 22.74755859 C-3.3500346 23.42006936 -3.49807334 24.09258013 -3.65059811 24.78547001 C-5.30161764 32.31377306 -6.81996145 39.86764294 -8.32739258 47.42578125 C-8.61561937 48.86765746 -8.90385643 50.30953163 -9.19210339 51.75140381 C-9.94007545 55.49630241 -10.68589881 59.24162643 -11.43137574 62.9870224 C-12.2234191 66.96382728 -13.01792353 70.94014047 -13.81217957 74.91650391 C-15.3068291 82.40098715 -16.79967044 89.8858296 -18.29166764 97.37084198 C-20.97489573 110.83188099 -23.66047794 124.29245013 -26.34797782 137.75263691 C-27.28870764 142.46466372 -28.22835833 147.17690405 -29.16712058 151.88932323 C-29.74783395 154.80352354 -30.32932528 157.71756822 -30.91101074 160.63157463 C-31.18023634 161.98117275 -31.44912662 163.33083781 -31.71765709 164.68057442 C-32.08393953 166.52143874 -32.45152046 168.36204456 -32.81916809 170.20263672 C-33.02430936 171.23186249 -33.22945063 172.26108826 -33.4408083 173.32150269 C-33.90920566 175.56510012 -34.42285902 177.78233719 -35 180 C-41.09739314 179.39509989 -47.00083435 178.4744308 -53 177.25 C-62.67031513 175.34409946 -72.38234787 173.79170253 -82.125 172.3125 C-82.83092285 172.20417847 -83.5368457 172.09585693 -84.26416016 171.98425293 C-92.4903273 170.72564362 -100.69744504 169.61748196 -109 169 C-107.20641916 165.34253073 -105.15693553 161.89002056 -103 158.4375 C-102.57847656 157.76203125 -102.15695312 157.0865625 -101.72265625 156.390625 C-96.89929565 148.73470915 -91.84360713 141.23330208 -86.80541992 133.71810913 C-81.86040819 126.33926406 -76.99645114 118.92595218 -72.3371582 111.36230469 C-69.31613015 106.46757355 -66.15570756 101.6792449 -62.94799805 96.90527344 C-59.52186439 91.80069701 -56.15799613 86.65774497 -52.8125 81.5 C-52.26859619 80.66154541 -51.72469238 79.82309082 -51.16430664 78.95922852 C-50.02925518 77.20933694 -48.89424632 75.45941773 -47.75927734 73.70947266 C-44.72147923 69.03094316 -41.67313424 64.35929936 -38.625 59.6875 C-37.68805298 58.25120239 -37.68805298 58.25120239 -36.73217773 56.78588867 C-34.18299624 52.87827683 -31.63347976 48.97088361 -29.08398438 45.06347656 C-25.33255309 39.31370879 -21.58195636 33.56339865 -17.83300781 27.81201172 C-16.59818487 25.91767359 -15.36315464 24.02347056 -14.12792969 22.12939453 C-12.33433196 19.3785502 -10.54198899 16.62689251 -8.75 13.875 C-8.21294434 13.05169189 -7.67588867 12.22838379 -7.12255859 11.38012695 C-4.67906475 7.62499968 -2.2667124 3.86583142 0 0 Z " fill="#FDFDFD" transform="translate(841,391)"/>
<path d="M0 0 C5.96437005 4.9270883 11.10257035 11.27676603 12 19.171875 C12.38789717 28.8693042 10.20358852 36.22995591 3.79296875 43.65625 C-3.69708783 50.71703456 -10.81243757 52.05398866 -20.96875 51.8046875 C-25.53929026 51.32892366 -28.60918036 50.12327513 -32.30859375 47.45703125 C-33.22898437 46.83828125 -33.22898437 46.83828125 -34.16796875 46.20703125 C-40.14733671 41.70972885 -42.9846268 35.42893209 -45.30859375 28.45703125 C-46.17424332 19.80053559 -44.8618978 13.29227792 -39.6953125 6.26171875 C-29.13596404 -6.42822995 -14.15278213 -9.45913527 0 0 Z " fill="#FCFCFC" transform="translate(335.30859375,181.54296875)"/>
<path d="M0 0 C6.96178158 4.78537996 13.35046564 11.55722848 14.9375 20.0625 C15.97730255 28.80210621 14.36593461 36.03702243 9.39453125 43.32421875 C4.79852005 49.01401751 -0.21772398 51.78090799 -7.0625 54.0625 C-16.11006718 54.88607569 -23.59274479 54.56793676 -31.0625 49.0625 C-37.2094846 43.61430556 -41.38448052 37.15404248 -42.4765625 28.953125 C-42.86895635 20.15524185 -40.90770652 13.91567327 -35.453125 7.03125 C-33.75559451 5.19355644 -32.01777694 3.62093426 -30.0625 2.0625 C-29.25619141 1.41087891 -29.25619141 1.41087891 -28.43359375 0.74609375 C-21.03409092 -4.00481747 -7.82781195 -3.92754328 0 0 Z " fill="#FCFCFC" transform="translate(719.0625,178.9375)"/>
<path d="M0 0 C6.80408935 4.01441272 12.81453583 10.2282404 15.1640625 17.90234375 C16.55448261 25.44060178 16.25664398 33.23892194 12.5625 40.0625 C7.57421118 47.17659967 2.2292245 52.30439303 -6.4375 54.0625 C-15.66141579 55.13029321 -23.88433184 54.18465944 -31.46875 48.5546875 C-36.02883756 44.40037044 -38.27816954 39.76266803 -40.4375 34.0625 C-40.7675 33.4025 -41.0975 32.7425 -41.4375 32.0625 C-42.4036549 21.90995425 -40.60823418 14.79007333 -34.3125 6.8125 C-25.33167999 -2.66093883 -12.12908508 -5.36370943 0 0 Z " fill="#FCFCFC" transform="translate(149.4375,246.9375)"/>
<path d="M0 0 C7.59036182 4.48865251 13.16434036 11.45894878 15.5 20 C16.7284229 28.63695273 14.90765176 36.11626146 9.921875 43.26171875 C5.47207944 48.68365433 0.53696686 52.63556118 -6.5 54 C-15.77839365 54.7669133 -23.93006756 54.23100637 -31.53125 48.45703125 C-36.87801335 43.506744 -41.06250241 36.77661307 -41.73828125 29.3984375 C-41.98756057 19.2435851 -39.56056588 12.2200062 -32.5234375 4.796875 C-23.53757958 -3.18284439 -11.06498814 -4.95900383 0 0 Z " fill="#FCFCFC" transform="translate(900.5,247)"/>
<path d="M0 0 C7.32912486 3.59903381 12.29142503 8.99362066 15.9296875 16.2578125 C18.39247151 24.10013393 18.01938209 33.6706472 14.33984375 41.01953125 C10.18496938 47.5570587 4.23427329 52.64688737 -3.22265625 54.95703125 C-11.66067649 55.72169905 -20.13585601 56.22448179 -27.22265625 50.95703125 C-28.27453125 50.23515625 -29.32640625 49.51328125 -30.41015625 48.76953125 C-33.95189146 45.22779604 -36.02282187 41.41804997 -38.22265625 36.95703125 C-38.55265625 36.29703125 -38.88265625 35.63703125 -39.22265625 34.95703125 C-40.40871339 17.9633601 -40.40871339 17.9633601 -35.22265625 10.95703125 C-34.54203125 9.92578125 -33.86140625 8.89453125 -33.16015625 7.83203125 C-24.5400647 -1.6189125 -11.88842475 -3.84752656 0 0 Z " fill="#FCFCFC" transform="translate(523.22265625,155.04296875)"/>
</svg>
