<?xml version="1.0" standalone="no"?>
<!DOCTYPE svg PUBLIC "-//W3C//DTD SVG 20010904//EN"
 "http://www.w3.org/TR/2001/REC-SVG-20010904/DTD/svg10.dtd">
<svg version="1.0" xmlns="http://www.w3.org/2000/svg"
 width="70.000000pt" height="70.000000pt" viewBox="0 0 70.000000 70.000000"
 preserveAspectRatio="xMidYMid meet">

<g transform="translate(0.000000,70.000000) scale(0.100000,-0.100000)"
fill="#000000" stroke="none">
<path d="M328 619 c-22 -12 -24 -55 -4 -66 13 -7 13 -20 -2 -96 -9 -48 -19
-87 -23 -87 -4 0 -19 34 -35 76 -22 62 -25 80 -16 95 18 29 14 48 -13 61 -47
21 -78 -42 -36 -73 16 -13 18 -25 13 -112 l-4 -99 -43 78 c-32 57 -41 82 -33
91 6 7 7 24 4 38 -6 22 -11 26 -39 23 -28 -3 -32 -7 -32 -33 0 -21 6 -33 21
-39 17 -8 23 -25 33 -99 8 -56 22 -107 38 -136 17 -33 23 -55 18 -76 -13 -69
-14 -68 45 -82 64 -16 238 -12 288 7 28 10 31 16 25 34 -14 38 -9 103 11 124
11 14 23 55 33 120 14 88 18 101 39 111 44 20 21 76 -28 69 -25 -3 -37 -40
-20 -61 6 -8 -4 -37 -32 -87 l-41 -75 -9 93 c-8 88 -7 95 13 113 29 27 27 57
-4 71 -21 10 -29 9 -43 -5 -14 -14 -14 -22 -5 -48 10 -26 8 -41 -14 -102 -14
-40 -29 -76 -33 -80 -4 -5 -15 33 -24 83 -15 81 -15 92 -1 106 19 20 19 38 -1
58 -18 19 -23 19 -46 5z m37 -28 c7 -12 -12 -24 -25 -16 -11 7 -4 25 10 25 5
0 11 -4 15 -9z m-134 -26 c-1 -15 -24 -12 -29 3 -3 9 2 13 12 10 10 -1 17 -7
17 -13z m260 0 c-1 -15 -24 -12 -29 3 -3 9 2 13 12 10 10 -1 17 -7 17 -13z
m-376 -44 c7 -12 -12 -24 -25 -16 -11 7 -4 25 10 25 5 0 11 -4 15 -9z m495 -6
c0 -8 -4 -15 -9 -15 -13 0 -22 16 -14 24 11 11 23 6 23 -9z m-245 -121 c3 -26
9 -52 11 -59 3 -7 -6 -12 -26 -12 -27 0 -31 3 -26 21 3 12 8 40 12 63 8 53 20
48 29 -13z m-87 -68 c-1 -2 -14 -7 -27 -11 -23 -7 -24 -6 -18 31 4 22 7 50 7
64 1 18 7 11 21 -28 12 -29 19 -55 17 -56z m187 -13 c0 -1 -12 1 -26 4 l-26 5
21 56 21 57 5 -60 c3 -33 5 -61 5 -62z m-279 -20 c-11 -11 -36 20 -36 46 l0
26 21 -33 c12 -18 19 -36 15 -39z m364 48 c0 -20 -28 -56 -37 -47 -5 5 25 66
32 66 3 0 5 -9 5 -19z m-88 -62 c9 -5 26 -9 38 -9 13 0 20 -5 17 -12 -2 -7
-10 -12 -17 -10 -41 9 -204 12 -253 4 -43 -7 -60 -6 -67 3 -8 10 -1 14 27 19
21 4 58 10 83 15 49 9 145 3 172 -10z m21 -54 c9 -4 17 -13 17 -20 0 -10 -10
-12 -37 -7 -21 4 -72 7 -113 7 -41 0 -92 -3 -112 -7 -29 -5 -38 -4 -38 7 0 8
10 17 23 19 12 3 31 7 42 10 27 7 195 -1 218 -9z m0 -56 c29 -16 19 -29 -15
-21 -18 4 -71 7 -118 7 -47 0 -100 -3 -117 -7 -25 -6 -33 -4 -33 7 0 8 13 16
33 19 17 3 43 8 57 10 37 6 172 -5 193 -15z m-12 -48 c23 -8 22 -9 -16 -17
-78 -16 -260 -6 -241 13 21 22 204 25 257 4z"/>
</g>
</svg>
