<?xml version="1.0" encoding="UTF-8"?>
<svg version="1.1" xmlns="http://www.w3.org/2000/svg" width="1024" height="1024">
<path d="M0 0 C1.43329147 -0.00810448 1.43329147 -0.00810448 2.89553833 -0.01637268 C6.03281268 -0.02881125 9.16916065 -0.01240226 12.30639648 0.00561523 C14.49779814 0.00546015 16.68920006 0.00396955 18.88059998 0.00120544 C23.46430649 -0.00017633 28.04769925 0.01234372 32.63134766 0.03515625 C38.49791786 0.06355667 44.36396771 0.06079586 50.23057652 0.04806614 C54.75254234 0.04110206 59.2743885 0.04890637 63.79633904 0.06132317 C65.95922321 0.06582936 68.12212026 0.06618176 70.28500557 0.06225777 C73.31006211 0.05933802 76.33440836 0.07588896 79.359375 0.09765625 C80.69135674 0.09090378 80.69135674 0.09090378 82.05024719 0.08401489 C88.23154817 0.15768385 93.22748138 1.02259282 98.07592773 5.18530273 C98.77588867 6.05348633 98.77588867 6.05348633 99.48999023 6.93920898 C100.2131543 7.80352539 100.2131543 7.80352539 100.95092773 8.68530273 C107.12773878 18.32361527 103.11499023 43.35942406 103.11499023 46.50170898 C129.18499023 46.50170898 155.25499023 46.50170898 182.11499023 46.50170898 C182.11499023 35.28170898 182.11499023 24.06170898 182.11499023 12.50170898 C185.96405726 5.76584169 187.95453291 2.88852809 195.11499023 0.50170898 C196.7589781 0.40373099 198.40662679 0.36247685 200.05351257 0.35453796 C201.07260208 0.34738266 202.09169159 0.34022736 203.1416626 0.33285522 C204.81781647 0.32882187 204.81781647 0.32882187 206.52783203 0.32470703 C207.70535538 0.31813583 208.88287872 0.31156464 210.09608459 0.30479431 C214.00211946 0.28504586 217.90814088 0.27339215 221.81420898 0.26342773 C223.1609124 0.259379 224.50761562 0.25526205 225.85431862 0.25107765 C232.18359807 0.23202862 238.51286591 0.21779848 244.84216851 0.20946568 C252.1371909 0.19970191 259.43190917 0.17340404 266.72682446 0.13296479 C272.37197644 0.10275017 278.01704152 0.08799166 283.66227275 0.08468467 C287.03063352 0.08233973 290.39866929 0.07345309 293.76694298 0.0482235 C297.52993319 0.02387461 301.29213089 0.02479006 305.05517578 0.03173828 C306.16249054 0.01892822 307.2698053 0.00611816 308.41067505 -0.00708008 C314.81970449 0.0359935 319.79848277 0.73297238 325.11499023 4.50170898 C336.07723959 16.02612497 330.11499023 29.02150881 330.11499023 46.50170898 C356.18499023 46.50170898 382.25499023 46.50170898 409.11499023 46.50170898 C409.11499023 35.94170898 409.11499023 25.38170898 409.11499023 14.50170898 C412.51022601 6.57949216 412.51022601 6.57949216 415.55249023 4.12670898 C416.12870117 3.64459961 416.70491211 3.16249023 417.29858398 2.66577148 C420.4573607 0.64143716 423.61047898 0.37656317 427.30059814 0.35453796 C428.12753677 0.34738266 428.9544754 0.34022736 429.80647278 0.33285522 C430.70524643 0.33016632 431.60402008 0.32747742 432.5300293 0.32470703 C433.48336655 0.31813583 434.4367038 0.31156464 435.41893005 0.30479431 C438.57282594 0.28508929 441.72667428 0.27340505 444.88061523 0.26342773 C445.95918541 0.25935221 447.03775558 0.25527668 448.1490097 0.25107765 C453.85755725 0.23022908 459.56608084 0.21592196 465.2746582 0.20654297 C471.16367479 0.19547968 477.05231342 0.16107689 482.94119644 0.12137127 C487.47604057 0.0951992 492.01079469 0.0868506 496.5457077 0.08326149 C498.71616926 0.07839729 500.88662685 0.06678812 503.05701447 0.0482235 C506.09910369 0.02381952 509.14021545 0.0247996 512.18237305 0.03173828 C513.07304977 0.01892822 513.9637265 0.00611816 514.88139343 -0.00708008 C520.71611126 0.04125486 525.40938496 0.87522382 530.11499023 4.50170898 C535.85840233 10.36234671 535.8371959 16.92423295 535.77783203 24.74169922 C535.79338387 26.55056107 535.79338387 26.55056107 535.80924988 28.39596558 C535.83161757 31.68350714 535.8316339 34.97004537 535.81954932 38.25761294 C535.81238614 41.01095944 535.82093883 43.76416763 535.82945472 46.51750332 C535.8493649 53.01733098 535.84388616 59.51679047 535.82177734 66.01660156 C535.79941994 72.70274001 535.81701272 79.38791256 535.85482663 86.07395977 C535.88614353 91.83309952 535.89395167 97.59194158 535.88287288 103.35115582 C535.87641171 106.7827013 535.87826198 110.21369005 535.90219688 113.64517021 C535.92221402 117.47492282 535.90373561 121.3026635 535.87548828 125.13232422 C535.88920471 126.25624069 535.90292114 127.38015717 535.91705322 128.53813171 C535.80684564 136.03482946 534.5292382 141.13293016 529.11499023 146.50170898 C525.91892118 148.92305548 522.62774911 151.11338849 519.26025009 153.28569603 C495.81449476 168.48886596 471.41770351 189.64296103 465.36063075 218.03233135 C462.18891367 235.91521985 461.6605058 254.07086492 461.56030273 272.19311523 C461.55614456 272.9296286 461.55198638 273.66614196 461.54770219 274.42497391 C461.46614022 292.81438464 461.9615819 311.17727727 462.66984007 329.55126314 C463.12523405 341.4023473 463.38514289 353.24267399 463.48168945 365.10205078 C463.49131087 366.27743934 463.49131087 366.27743934 463.50112666 367.47657312 C463.5266177 370.62999561 463.55194799 373.7834193 463.57680918 376.93684683 C463.67858179 389.15770759 463.91391618 401.37652285 464.17410646 413.59491398 C464.25159206 417.24480385 464.32374647 420.89461789 464.38246775 424.54486203 C463.95312382 468.06069481 463.95312382 468.06069481 482.92238998 505.78353691 C493.11499023 518.41932921 493.11499023 518.41932921 493.11499023 523.50170898 C493.7556543 523.57647461 494.39631836 523.65124023 495.05639648 523.72827148 C501.51609772 524.71022309 505.84622369 526.43254871 510.11499023 531.50170898 C512.5664962 535.20825142 512.38461656 538.91899357 512.34204102 543.20776367 C512.34233307 543.97887985 512.34262512 544.74999603 512.34292603 545.54447937 C512.34153516 548.08762959 512.32598551 550.63048508 512.31030273 553.17358398 C512.30657174 554.93906494 512.30372517 556.70454797 512.30172729 558.47003174 C512.29409766 563.1126682 512.27445491 567.75517917 512.25231934 572.39776611 C512.23184649 577.13682355 512.2227225 581.8759013 512.21264648 586.61499023 C512.1912084 595.91061823 512.15708051 605.20615317 512.11499023 614.50170898 C512.74646469 614.49504715 513.37793915 614.48838531 514.02854919 614.48152161 C520.63144819 614.41488634 527.23425083 614.36979173 533.83740234 614.33691406 C536.29805383 614.32187558 538.75867872 614.30143956 541.21923828 614.27539062 C544.76658715 614.23879042 548.31358 614.22193264 551.86108398 614.20874023 C552.95206894 614.19325638 554.04305389 614.17777252 555.167099 614.16181946 C562.93464996 614.16012773 569.73160367 614.85384124 575.98999023 619.75170898 C580.30369038 625.33414446 581.48984793 630.06912941 581.51904297 637.05419922 C581.52933784 638.13373367 581.52933784 638.13373367 581.5398407 639.2350769 C581.55801278 641.59369115 581.5542852 643.9516341 581.54858398 646.31030273 C581.55315042 647.96265374 581.55845737 649.61500286 581.56446838 651.26734924 C581.57338065 654.72290789 581.57099798 658.1782352 581.56103516 661.63378906 C581.54954798 666.04648993 581.56976223 670.45839023 581.59895229 674.87098598 C581.61736106 678.28124504 581.61701257 681.69131388 581.61131477 685.10161018 C581.61116213 686.72779526 581.61715919 688.3539937 581.62960625 689.98013115 C581.73348716 705.77514913 581.73348716 705.77514913 577.11499023 712.50170898 C570.91931779 718.53851804 565.04275207 718.79343117 556.80809307 718.75897789 C555.22778175 718.764237 555.22778175 718.764237 553.61554495 718.76960236 C550.06165323 718.77895569 546.50792397 718.77398286 542.95402527 718.76913452 C540.38978434 718.77286879 537.82554455 718.77746942 535.26130658 718.78286517 C529.67390323 718.79317976 524.08653455 718.79600643 518.49912262 718.79395294 C510.19040023 718.79090675 501.88171629 718.79921845 493.57300137 718.80970219 C477.87111427 718.82906048 462.16924021 718.83467109 446.46734258 718.83581631 C434.3431941 718.83673481 422.21905076 718.84084843 410.09490395 718.84721756 C406.60707341 718.8490126 403.11924287 718.85079223 399.63141233 718.85256732 C398.3308461 718.85323046 398.3308461 718.85323046 397.0040058 718.853907 C372.61021846 718.86621821 348.21643291 718.87410784 323.82264233 718.87322044 C322.90263507 718.87318929 321.98262782 718.87315813 321.03474156 718.87312603 C316.37158574 718.87295981 311.70842992 718.87276173 307.0452741 718.87255661 C306.11912691 718.87251672 305.19297971 718.87247683 304.23876745 718.87243573 C302.36587159 718.87235486 300.49297573 718.87227126 298.62007987 718.87218495 C269.47700595 718.87095928 240.33397857 718.88597445 211.19091797 718.91333008 C178.46155511 718.94403926 145.73222282 718.96126328 113.00284463 718.95940363 C109.51407103 718.95925437 106.02529743 718.95915696 102.53652382 718.959095 C101.24795225 718.95906004 101.24795225 718.95906004 99.93334893 718.95902437 C86.09833941 718.95896278 72.26337022 718.9717442 58.4283727 718.98895953 C44.528172 719.00589848 30.62803043 719.0079035 16.72782513 718.99474089 C8.46659727 718.98734014 0.20554882 718.99104312 -8.0556601 719.01062557 C-14.2193683 719.02400342 -20.38288426 719.01654534 -26.54658338 719.00087912 C-29.0438691 718.9977916 -31.54117411 719.00150693 -34.03843711 719.01259927 C-37.4261429 719.02665376 -40.81291573 719.01618533 -44.20058918 718.99948692 C-45.1760467 719.00942328 -46.15150422 719.01935964 -47.15652105 719.0295971 C-53.22465519 718.96611783 -57.81879778 717.95697301 -62.88500977 714.50170898 C-68.03045487 709.22085743 -69.13398178 704.4087342 -69.15966797 697.16040039 C-69.1647789 696.43939651 -69.16988983 695.71839264 -69.17515564 694.97554016 C-69.18901082 692.60136522 -69.18809781 690.22748195 -69.18579102 687.85327148 C-69.18968053 686.19566745 -69.19401573 684.53806441 -69.19877625 682.88046265 C-69.20622994 679.40880094 -69.20595361 675.93724094 -69.20068359 672.46557617 C-69.19489372 668.02819672 -69.21181225 663.59123532 -69.23502827 659.15392494 C-69.24979899 655.73086128 -69.25063271 652.30789748 -69.24751854 648.88480759 C-69.24803019 647.24942574 -69.25323858 645.61403807 -69.26333046 643.97868729 C-69.27574109 641.6861219 -69.26887598 639.39436028 -69.25732422 637.10180664 C-69.25795364 635.800065 -69.25858307 634.49832336 -69.25923157 633.15713501 C-68.71470984 627.83820684 -67.06125019 624.02390248 -63.76000977 619.75170898 C-56.55522625 614.11318275 -48.45507605 614.08350558 -39.63110352 614.20874023 C-38.48964371 614.21298508 -37.3481839 614.21722992 -36.1721344 614.22160339 C-32.55534467 614.23828747 -28.93912879 614.27592132 -25.32250977 614.31420898 C-22.85832515 614.32926906 -20.39413173 614.34295514 -17.92993164 614.35522461 C-11.91476457 614.38815733 -5.89992818 614.4382537 0.11499023 614.50170898 C0.10610779 613.52531464 0.09722534 612.54892029 0.08807373 611.54293823 C0.00691823 602.33256653 -0.05300856 593.12226757 -0.09225845 583.91161919 C-0.11311581 579.17652334 -0.14139956 574.44171659 -0.18676758 569.70678711 C-0.23029149 565.1356129 -0.2541608 560.56471644 -0.26451874 555.99335098 C-0.27189837 554.25104527 -0.28630923 552.50875442 -0.30792999 550.76656723 C-0.33705166 548.32231789 -0.34096221 545.87920992 -0.33911133 543.43481445 C-0.35349243 542.71767776 -0.36787354 542.00054108 -0.38269043 541.26167297 C-0.33228728 535.09296478 2.05057822 531.626839 6.23999023 527.31420898 C9.11499023 525.50170898 9.11499023 525.50170898 11.2800293 525.15625 C15.85047354 524.41659527 18.39301832 523.37288636 21.39379883 519.75195312 C23.7319288 516.16802327 25.73551139 512.40380531 27.73999023 508.62670898 C28.79710132 506.70868194 29.86309886 504.79577264 30.92929077 502.88278198 C32.2550898 500.48843317 33.54931863 498.07805822 34.82328892 495.6557579 C36.11499023 493.50170898 36.11499023 493.50170898 38.02350521 491.15628433 C46.25126667 480.21692745 45.64357827 468.19227135 46.02294922 454.96508789 C46.12397608 452.3756744 46.22744131 449.78635508 46.33314514 447.1971283 C46.66597112 438.7094047 46.8999609 430.21979272 47.11108398 421.72827148 C47.12921195 421.00113746 47.14733991 420.27400344 47.1660172 419.52483505 C47.52465486 404.98914709 47.82637718 390.45244428 48.03620815 375.9138279 C48.08307605 372.72370823 48.13072256 369.53360149 48.17919922 366.34350586 C48.19720154 365.15466473 48.19720154 365.15466473 48.21556754 363.9418066 C48.40275494 352.01107635 48.79581946 340.09936289 49.30712891 328.1784668 C50.08631869 309.75913089 50.57467968 291.35280566 50.54858398 272.91577148 C50.54791174 272.17388663 50.54723949 271.43200177 50.54654688 270.66763556 C50.46534121 234.46032874 48.33634177 202.96079144 21.45558167 175.78622437 C12.08977433 166.76995632 1.91662622 158.49465087 -8.94078636 151.33686447 C-9.89880768 150.70460026 -9.89880768 150.70460026 -10.87618297 150.05956304 C-12.58465597 148.95050252 -14.31268309 147.87172394 -16.04212856 146.79566002 C-20.15558045 143.476472 -22.42635315 140.03092742 -23.39116764 134.71054935 C-23.39397456 133.80559947 -23.39678148 132.90064959 -23.39967346 131.96827698 C-23.41239792 130.91844635 -23.42512238 129.86861572 -23.43823242 128.78697205 C-23.43170654 127.65586502 -23.42518066 126.524758 -23.41845703 125.359375 C-23.43138039 123.54832275 -23.43138039 123.54832275 -23.44456482 121.70068359 C-23.46331946 118.40500704 -23.46413944 115.10996764 -23.45524335 111.8142674 C-23.45011519 109.05592308 -23.4574408 106.29766793 -23.46471542 103.53933281 C-23.48168757 97.02858322 -23.47817609 90.51806816 -23.46142578 84.00732422 C-23.44450724 77.30596122 -23.46034064 70.60524976 -23.49264866 63.9039579 C-23.51939843 58.1355378 -23.52660613 52.36731985 -23.51813358 46.59884399 C-23.51321988 43.16010983 -23.51533446 39.72176746 -23.5359211 36.28308296 C-23.55336809 32.4460535 -23.53881963 28.61041152 -23.51611328 24.7734375 C-23.52780548 23.64435471 -23.53949768 22.51527191 -23.55154419 21.35197449 C-23.47042105 14.6035496 -22.75359108 9.46176555 -17.88500977 4.50170898 C-12.38007104 0.2673945 -6.73174953 -0.07345939 0 0 Z " fill="#010101" transform="translate(255.885009765625,193.498291015625)"/>
<path d="M0 0 C116.16 0 232.32 0 352 0 C352 88.11 352 176.22 352 267 C235.84 267 119.68 267 0 267 C0 178.89 0 90.78 0 0 Z " fill="#FFFFFF" transform="translate(336,394)"/>
<path d="M0 0 C18.48 0 36.96 0 56 0 C56.3125 15.625 56.3125 15.625 56.38793945 20.52197266 C56.42105225 21.8063623 56.45416504 23.09075195 56.48828125 24.4140625 C56.51446533 25.7232666 56.54064941 27.0324707 56.56762695 28.38134766 C57.10437472 32.8735416 58.42641855 36.31430587 61.53515625 39.64453125 C65.67043621 42.80680416 67.69630871 44.12252799 72.85623169 44.14717102 C74.39542519 44.15790398 74.39542519 44.15790398 75.9657135 44.16885376 C77.09609543 44.17154266 78.22647736 44.17423157 79.39111328 44.17700195 C81.17180962 44.18685875 81.17180962 44.18685875 82.98847961 44.19691467 C86.93241733 44.21668737 90.87634175 44.22832136 94.8203125 44.23828125 C96.17908626 44.24232913 97.53785981 44.24644606 98.89663315 44.25063133 C105.28358115 44.2696891 111.67051759 44.2839161 118.05748856 44.2922433 C125.42157044 44.30200343 132.78535076 44.32828805 140.14932644 44.36874419 C145.84541323 44.39895881 151.54141389 44.41371742 157.23757923 44.41702431 C160.63725273 44.41936973 164.0366043 44.42826226 167.43619156 44.45348549 C171.23521119 44.47783355 175.03344575 44.47691891 178.83251953 44.4699707 C179.95075607 44.48278076 181.06899261 44.49559082 182.22111511 44.50878906 C188.91126084 44.46425118 193.46810755 43.91663984 199 40 C205.33974149 28.71737761 205.33974149 28.71737761 204 0 C230.4 0 256.8 0 284 0 C284.33 10.56 284.66 21.12 285 32 C287.94701656 39.03547552 287.94701656 39.03547552 293 43 C296.07499026 43.94840517 298.86210119 44.12969074 302.07223511 44.14044189 C303.60726685 44.14900711 303.60726685 44.14900711 305.17330933 44.15774536 C306.84878342 44.15942215 306.84878342 44.15942215 308.55810547 44.16113281 C310.32942841 44.16858017 310.32942841 44.16858017 312.13653564 44.17617798 C315.3721415 44.18827297 318.60771126 44.19574098 321.84333563 44.20018864 C323.86625413 44.20312365 325.88916701 44.20722922 327.91208267 44.21169281 C334.24562963 44.22535897 340.5791637 44.23503037 346.91272438 44.2388947 C354.21619113 44.24337577 361.51947076 44.26092946 368.82288063 44.2898953 C374.47396758 44.31152776 380.12500193 44.32159979 385.77612984 44.32293582 C389.14881921 44.32398258 392.52133246 44.32986286 395.89397812 44.34775543 C399.65716523 44.3647933 403.41989553 44.362941 407.18310547 44.35644531 C408.29603973 44.3656601 409.408974 44.37487488 410.55563354 44.3843689 C417.37543385 44.34745857 421.86546251 43.61211458 427.25 39.125 C430.97982664 34.59592479 431.27671658 30.25735636 431.4140625 24.51171875 C431.44967285 23.22483154 431.4852832 21.93794434 431.52197266 20.61206055 C431.57297119 18.17440308 431.57297119 18.17440308 431.625 15.6875 C431.74875 10.510625 431.8725 5.33375 432 0 C450.48 0 468.96 0 488 0 C488 26.07 488 52.14 488 79 C326.96 79 165.92 79 0 79 C0 52.93 0 26.86 0 0 Z " fill="#FEFEFE" transform="translate(268,229)"/>
<path d="M0 0 C146.52 0 293.04 0 444 0 C444 18.81 444 37.62 444 57 C297.48 57 150.96 57 0 57 C0 38.19 0 19.38 0 0 Z " fill="#FDFDFD" transform="translate(290,752)"/>
<path d="M0 0 C191.4 0 382.8 0 580 0 C580 11.22 580 22.44 580 34 C388.6 34 197.2 34 0 34 C0 22.78 0 11.56 0 0 Z " fill="#FEFEFE" transform="translate(222,843)"/>
<path d="M0 0 C116.49 0 232.98 0 353 0 C354.65 3.96 356.3 7.92 358 12 C359.26098759 14.30185794 360.58065604 16.57383544 361.98828125 18.7890625 C362.51037422 19.62212418 362.51037422 19.62212418 363.04301453 20.47201538 C364.1244165 22.19517676 365.21741457 23.91050915 366.3125 25.625 C367.77265394 27.92617475 369.22533733 30.23172037 370.67578125 32.5390625 C371.31427002 33.54146973 371.95275879 34.54387695 372.6105957 35.57666016 C374 38 374 38 374 40 C243.98 40 113.96 40 -20 40 C-18.35820649 35.89551623 -16.66692842 32.61994827 -14.375 28.88671875 C-13.66107155 27.7092188 -12.94754237 26.53147669 -12.234375 25.35351562 C-11.11966741 23.52105586 -10.00194983 21.69066508 -8.87695312 19.86450195 C-7.78354525 18.08579253 -6.70353276 16.29947618 -5.625 14.51171875 C-4.97789062 13.45428467 -4.33078125 12.39685059 -3.6640625 11.30737305 C-1.53194525 7.37091573 -1.53194525 7.37091573 0 0 Z " fill="#FDFDFD" transform="translate(335,678)"/>
<path d="M0 0 C145.2 0 290.4 0 440 0 C440 0.66 440 1.32 440 2 C438.68725586 3.29370117 438.68725586 3.29370117 436.77734375 4.85546875 C431.30081852 9.51359325 426.26780627 14.5819181 421.19750977 19.67211914 C419.54492818 21.33012955 417.88697801 22.98263976 416.22851562 24.63476562 C415.17415781 25.68978311 414.12010962 26.74511014 413.06640625 27.80078125 C412.57169327 28.29347 412.07698029 28.78615875 411.567276 29.29377747 C408.95586542 31.9002738 408.95586542 31.9002738 407 35 C359.47384463 35.18304869 311.94772651 35.32404561 264.42128822 35.40852264 C258.81235238 35.41852848 253.20341723 35.42888304 247.59448242 35.43945312 C246.47782867 35.44155161 245.36117492 35.44365009 244.21068317 35.44581217 C226.12196324 35.4806375 208.03344638 35.5437222 189.94484698 35.61722237 C171.38889222 35.69199359 152.83304393 35.73646156 134.2769447 35.75270796 C122.82361973 35.76369354 111.37086871 35.79840887 99.91772038 35.86333174 C92.06741884 35.90556903 84.21741469 35.91841232 76.36700772 35.90801102 C71.83522536 35.90287885 67.30444694 35.91083009 62.77284241 35.9536438 C58.62391064 35.99255626 54.47665833 35.99455778 50.32764948 35.96719116 C48.82682812 35.96380879 47.32590229 35.97397866 45.8252868 35.99906546 C34.60771386 36.17569328 34.60771386 36.17569328 30.62537682 33.26347923 C28.85721114 31.26006867 27.43795707 29.24624291 26 27 C25.03699582 25.94416904 24.05218533 24.90719921 23.03393555 23.90454102 C22.32366463 23.18954185 22.32366463 23.18954185 21.5990448 22.46009827 C21.1164772 21.9795549 20.63390961 21.49901154 20.13671875 21.00390625 C19.61866165 20.48489243 19.10060455 19.9658786 18.56684875 19.43113708 C17.48841867 18.3520348 16.40875834 17.27416062 15.32788086 16.19750977 C13.66987045 14.54492818 12.01736024 12.88697801 10.36523438 11.22851562 C9.31021689 10.17415781 8.25488986 9.12010962 7.19921875 8.06640625 C6.70653 7.57169327 6.21384125 7.07698029 5.70622253 6.567276 C3.0997262 3.95586542 3.0997262 3.95586542 0 2 C0 1.34 0 0.68 0 0 Z " fill="#F8F8F8" transform="translate(292,342)"/>
</svg>
