<?xml version="1.0" standalone="no"?>
<!DOCTYPE svg PUBLIC "-//W3C//DTD SVG 20010904//EN"
 "http://www.w3.org/TR/2001/REC-SVG-20010904/DTD/svg10.dtd">
<svg version="1.0" xmlns="http://www.w3.org/2000/svg"
 width="70.000000pt" height="70.000000pt" viewBox="0 0 70.000000 70.000000"
 preserveAspectRatio="xMidYMid meet">

<g transform="translate(0.000000,70.000000) scale(0.100000,-0.100000)"
fill="#000000" stroke="none">
<path d="M167 583 c-4 -3 -7 -30 -7 -59 0 -49 3 -55 35 -80 35 -26 35 -26 35
-108 0 -78 -1 -83 -30 -108 -21 -18 -30 -35 -30 -57 0 -26 -4 -31 -25 -31 -22
0 -25 -4 -25 -35 l0 -35 225 0 225 0 0 34 c0 28 -4 35 -22 38 -17 2 -23 10
-23 30 -1 16 -13 40 -28 56 -25 26 -27 35 -27 109 0 81 0 81 35 108 35 26 36
29 33 83 l-3 57 -42 3 c-37 3 -42 0 -45 -20 -4 -33 -52 -33 -56 0 -3 20 -8 23
-45 20 -35 -3 -43 -7 -45 -26 -5 -31 -46 -27 -50 6 -3 18 -10 22 -41 22 -21 0
-41 -3 -44 -7z m63 -43 c0 -17 7 -20 50 -20 43 0 50 3 50 20 0 13 7 20 20 20
13 0 20 -7 20 -20 0 -17 7 -20 50 -20 43 0 50 3 50 20 0 13 7 20 20 20 16 0
20 -7 20 -35 l0 -35 -162 2 c-148 3 -163 5 -166 21 -6 28 5 47 28 47 13 0 20
-7 20 -20z m250 -85 c-10 -12 -38 -15 -130 -15 -92 0 -120 3 -130 15 -11 13 5
15 130 15 125 0 141 -2 130 -15z m-35 -120 l0 -80 -95 0 -95 0 -3 83 -3 83 98
-3 98 -3 0 -80z m33 -122 c3 -10 -28 -13 -133 -13 -122 0 -136 2 -125 15 11
13 35 15 133 13 85 -2 122 -7 125 -15z m22 -53 c0 -19 -7 -20 -150 -20 -143 0
-150 1 -150 20 0 19 7 20 150 20 143 0 150 -1 150 -20z m50 -55 c0 -13 -29
-15 -200 -15 -171 0 -200 2 -200 15 0 13 29 15 200 15 171 0 200 -2 200 -15z"/>
</g>
</svg>
